<?xml version="1.0" encoding="UTF-8" ?>
<!DOCTYPE svg PUBLIC "-//W3C//DTD SVG 1.1//EN" "http://www.w3.org/Graphics/SVG/1.1/DTD/svg11.dtd">
<svg width="365pt" height="201pt" viewBox="0 0 365 201" version="1.1" xmlns="http://www.w3.org/2000/svg">
<g id="#ffffffff">
<path fill="#ffffff" opacity="1.00" d=" M 171.14 55.73 C 173.33 54.48 175.41 52.96 177.83 52.17 C 180.21 53.08 182.34 54.54 184.53 55.81 C 184.54 58.32 184.54 60.82 184.55 63.32 C 182.41 64.58 180.35 66.06 177.98 66.89 C 175.46 66.34 172.98 64.90 171.21 63.06 C 171.02 60.62 171.13 58.17 171.14 55.73 Z" />
</g>
<g id="#3a3c34ff">
<path fill="#3a3c34" opacity="1.00" d=" M 184.74 9.06 C 189.45 11.32 194.01 13.89 198.43 16.67 C 198.41 34.85 198.41 53.04 198.43 71.22 C 193.07 74.66 187.45 77.67 181.96 80.91 C 180.10 81.86 177.95 83.71 175.89 82.13 C 169.78 78.57 163.46 75.31 157.58 71.40 C 156.81 67.66 157.37 63.80 157.23 60.02 C 157.37 55.97 156.84 51.86 157.52 47.85 C 161.27 45.11 165.51 43.11 169.48 40.71 C 172.28 39.26 174.82 37.21 177.87 36.28 C 180.18 37.10 182.25 38.45 184.49 39.43 C 184.73 29.31 184.27 19.17 184.74 9.06 M 171.14 55.73 C 171.13 58.17 171.02 60.62 171.21 63.06 C 172.98 64.90 175.46 66.34 177.98 66.89 C 180.35 66.06 182.41 64.58 184.55 63.32 C 184.54 60.82 184.54 58.32 184.53 55.81 C 182.34 54.54 180.21 53.08 177.83 52.17 C 175.41 52.96 173.33 54.48 171.14 55.73 Z" />
<path fill="#3a3c34" opacity="1.00" d=" M 47.17 47.93 C 53.44 44.16 59.80 40.55 66.18 36.97 C 67.83 35.78 69.51 37.43 70.97 38.10 C 76.39 41.40 82.10 44.22 87.39 47.72 C 87.55 48.02 87.88 48.64 88.04 48.95 C 88.63 56.97 87.37 65.01 88.07 73.03 C 88.21 75.09 87.82 77.14 87.53 79.18 C 83.21 76.66 78.58 74.58 74.57 71.57 C 74.14 66.40 74.64 61.18 74.26 56.00 C 71.86 54.87 69.70 52.61 66.96 52.60 C 64.83 53.70 62.15 54.57 60.90 56.74 C 60.46 61.66 61.19 66.63 60.57 71.54 C 56.50 74.54 51.86 76.66 47.51 79.21 C 46.71 68.81 47.33 58.35 47.17 47.93 Z" />
<path fill="#3a3c34" opacity="1.00" d=" M 221.77 42.74 C 225.54 40.74 229.03 38.15 233.05 36.66 C 239.89 40.16 246.61 44.04 253.06 48.22 C 253.64 50.72 253.61 53.39 253.11 55.90 C 248.89 58.81 244.38 61.36 239.71 63.45 C 239.55 60.98 239.50 58.51 239.40 56.04 C 237.22 54.82 235.05 53.59 232.89 52.33 C 230.67 53.57 228.30 54.62 226.34 56.25 C 226.07 58.80 226.22 61.36 226.24 63.91 C 232.83 68.01 240.12 71.06 246.21 75.90 C 241.88 78.43 237.57 81.11 232.94 83.05 C 227.03 80.76 221.84 76.93 216.20 74.05 C 214.70 73.02 212.03 72.39 212.48 70.04 C 212.51 62.82 212.27 55.59 212.60 48.39 C 215.33 46.04 218.74 44.65 221.77 42.74 Z" />
<path fill="#3a3c34" opacity="1.00" d=" M 21.34 124.38 C 30.19 114.15 48.56 114.29 56.85 125.14 C 61.48 131.00 62.96 138.68 62.70 145.99 C 47.89 146.23 33.08 145.99 18.27 146.12 C 18.62 152.37 19.92 158.98 24.24 163.77 C 30.18 170.42 40.72 171.40 48.44 167.51 C 53.68 164.87 56.45 159.34 58.00 153.94 C 59.44 153.93 60.89 153.92 62.33 153.92 C 60.73 161.13 56.81 168.52 49.64 171.47 C 40.59 175.10 28.88 174.51 21.72 167.28 C 16.32 162.04 14.31 154.31 14.15 147.00 C 13.90 138.98 15.80 130.44 21.34 124.38 M 25.84 125.69 C 21.01 129.84 19.30 136.29 18.37 142.32 C 31.75 142.37 45.12 142.37 58.50 142.33 C 57.79 136.04 56.08 129.23 50.89 125.10 C 43.96 118.96 32.55 119.45 25.84 125.69 Z" />
<path fill="#3a3c34" opacity="1.00" d=" M 136.67 117.81 C 144.15 115.92 152.85 116.94 158.81 122.17 C 165.41 127.69 167.92 136.64 167.93 144.97 C 168.04 152.95 166.30 161.62 160.38 167.40 C 153.34 174.22 142.12 175.07 133.26 171.75 C 128.57 170.14 125.51 166.06 123.28 161.84 C 123.43 171.90 123.34 181.96 123.36 192.01 C 121.93 191.99 120.50 191.96 119.07 191.93 C 119.10 167.33 119.14 142.72 119.06 118.11 C 120.49 118.08 121.93 118.05 123.37 118.03 C 123.39 122.09 123.31 126.15 123.31 130.21 C 125.85 124.46 130.50 119.56 136.67 117.81 M 137.40 121.54 C 131.53 123.20 126.98 128.16 125.17 133.90 C 122.81 141.34 122.89 149.52 125.05 156.99 C 126.74 162.86 131.57 167.68 137.54 169.12 C 143.24 170.31 149.64 169.96 154.54 166.51 C 160.58 162.48 163.25 155.02 163.65 148.03 C 164.17 140.28 162.46 131.83 156.93 126.07 C 151.93 120.99 144.10 119.68 137.40 121.54 Z" />
<path fill="#3a3c34" opacity="1.00" d=" M 209.68 124.66 C 218.53 114.12 237.38 114.15 245.65 125.39 C 250.24 131.20 251.54 138.86 251.32 146.09 C 236.52 146.13 221.72 146.03 206.91 146.13 C 207.23 152.89 208.82 160.20 214.03 164.94 C 220.03 170.47 229.46 171.07 236.67 167.72 C 242.04 165.16 245.03 159.59 246.54 154.08 C 247.99 154.00 249.44 153.92 250.89 153.86 C 249.47 161.60 244.80 169.26 237.07 171.95 C 228.53 174.86 217.95 174.30 211.03 167.96 C 205.17 162.70 202.95 154.60 202.70 146.97 C 202.52 139.08 204.44 130.76 209.68 124.66 M 215.09 125.15 C 209.83 129.24 207.96 136.01 206.99 142.32 C 220.37 142.38 233.76 142.35 247.14 142.33 C 246.41 136.11 244.73 129.43 239.70 125.25 C 232.97 119.18 221.92 119.34 215.09 125.15 Z" />
<path fill="#3a3c34" opacity="1.00" d=" M 266.19 120.19 C 273.03 116.27 281.59 116.29 289.08 118.09 C 296.29 119.90 300.84 127.17 300.65 134.41 C 299.58 134.42 297.45 134.45 296.39 134.47 C 296.02 131.13 295.49 127.51 292.92 125.08 C 289.03 121.27 283.17 120.51 277.96 120.84 C 273.40 121.17 268.35 122.64 265.75 126.69 C 263.28 130.51 264.64 136.06 268.55 138.36 C 277.16 143.45 288.12 141.96 296.61 147.31 C 302.12 150.77 303.27 158.42 301.08 164.15 C 298.53 169.50 292.66 172.35 287.01 173.11 C 279.57 174.13 271.15 173.81 265.06 168.88 C 260.57 165.50 258.69 159.93 258.19 154.53 C 259.62 154.50 261.06 154.49 262.50 154.47 C 263.01 158.27 264.32 162.09 267.22 164.75 C 272.35 169.99 280.40 170.43 287.21 169.10 C 291.27 168.34 295.44 166.13 297.20 162.22 C 298.69 158.31 297.82 153.22 294.06 150.91 C 285.50 145.17 274.04 147.30 265.55 141.40 C 258.17 136.83 258.64 124.38 266.19 120.19 Z" />
<path fill="#3a3c34" opacity="1.00" d=" M 317.17 120.21 C 324.00 116.27 332.55 116.30 340.04 118.07 C 347.28 119.86 351.82 127.14 351.68 134.39 C 350.24 134.42 348.81 134.45 347.39 134.48 C 347.04 130.89 346.34 126.99 343.39 124.57 C 338.40 120.41 331.27 120.18 325.16 121.41 C 320.81 122.29 316.14 125.25 315.61 130.02 C 315.03 133.57 317.08 137.11 320.19 138.76 C 328.38 143.09 338.26 142.27 346.45 146.58 C 354.42 150.53 355.48 163.17 348.62 168.64 C 343.54 172.99 336.49 173.71 330.06 173.54 C 323.73 173.42 317.09 171.10 313.16 165.91 C 310.52 162.71 309.73 158.54 309.21 154.54 C 310.64 154.51 312.07 154.48 313.51 154.46 C 314.03 159.03 316.08 163.50 319.90 166.21 C 325.59 170.43 333.30 170.35 339.89 168.69 C 344.32 167.55 348.84 164.00 348.85 159.05 C 349.17 155.88 347.78 152.61 345.04 150.90 C 336.49 145.17 325.03 147.30 316.55 141.40 C 309.19 136.83 309.64 124.40 317.17 120.21 Z" />
<path fill="#3a3c34" opacity="1.00" d=" M 65.66 117.94 C 67.66 117.99 69.67 118.05 71.68 118.09 C 77.30 125.63 82.96 133.14 88.63 140.63 C 94.30 133.07 100.00 125.54 105.73 118.03 C 107.53 118.04 109.32 118.04 111.12 118.05 C 104.56 126.71 97.97 135.34 91.33 143.92 C 98.73 153.32 105.65 163.11 113.11 172.47 C 111.13 172.47 109.15 172.48 107.17 172.48 C 101.04 164.00 94.72 155.64 88.66 147.11 C 82.32 155.53 75.93 163.91 69.72 172.43 C 67.85 172.46 65.98 172.48 64.11 172.49 C 71.45 163.07 78.42 153.36 85.74 143.93 C 79.04 135.27 72.31 126.63 65.66 117.94 Z" />
<path fill="#3a3c34" opacity="1.00" d=" M 177.08 118.09 C 178.52 118.07 179.97 118.05 181.42 118.04 C 181.43 122.06 181.35 126.07 181.34 130.09 C 184.81 121.70 194.02 117.80 202.62 117.71 C 202.63 119.15 202.64 120.60 202.65 122.04 C 191.75 120.79 181.45 130.16 181.47 141.07 C 181.33 151.54 181.41 162.01 181.44 172.49 C 179.97 172.47 178.49 172.45 177.02 172.43 C 177.21 154.32 177.09 136.20 177.08 118.09 Z" />
</g>
<g id="#87c643ff">
<path fill="#87c643" opacity="1.00" d=" M 121.53 36.66 C 123.35 35.63 125.06 37.57 126.70 38.21 C 132.07 41.60 138.02 44.18 143.06 48.04 C 144.08 52.60 143.27 57.36 143.52 62.00 C 143.35 65.24 144.05 68.69 142.90 71.79 C 137.37 75.70 131.20 78.69 125.37 82.17 C 122.15 84.42 118.86 81.48 116.04 80.02 C 111.51 77.11 106.53 74.92 102.19 71.74 C 101.48 64.50 101.98 57.17 101.92 49.90 C 101.48 47.45 104.04 46.62 105.68 45.60 C 111.02 42.72 116.11 39.39 121.53 36.66 Z" />
<path fill="#87c643" opacity="1.00" d=" M 275.78 42.88 C 279.58 40.80 283.13 38.17 287.23 36.70 C 289.74 37.15 291.88 38.64 294.08 39.84 C 298.69 42.60 303.43 45.16 307.97 48.06 C 308.45 55.05 308.35 62.08 308.21 69.08 C 308.55 72.36 305.09 73.51 302.84 74.91 C 297.82 77.44 293.29 80.95 288.04 82.98 C 283.94 82.45 280.29 79.76 277.30 77.00 C 281.10 76.20 284.31 78.50 287.35 80.38 C 293.50 77.20 299.38 73.54 305.42 70.18 C 305.39 63.36 305.40 56.54 305.42 49.72 C 299.61 46.15 293.59 42.95 287.76 39.42 C 281.58 42.52 275.72 46.20 269.73 49.63 C 269.80 56.52 269.79 63.41 269.74 70.30 C 272.41 71.95 275.25 73.39 278.43 73.68 C 279.19 66.35 278.70 58.97 278.75 51.63 C 279.76 51.50 280.78 51.38 281.80 51.27 C 281.86 58.19 281.99 65.12 281.82 72.05 C 281.91 74.13 280.18 76.02 278.11 76.14 C 274.50 76.56 271.22 74.63 268.41 72.61 C 266.40 71.50 267.19 68.87 266.96 67.01 C 267.20 60.76 266.63 54.49 267.26 48.27 C 269.68 45.90 272.92 44.64 275.78 42.88 Z" />
<path fill="#87c643" opacity="1.00" d=" M 311.13 38.63 C 312.98 38.66 314.84 38.69 316.69 38.72 C 316.83 39.23 317.12 40.25 317.26 40.75 C 317.92 40.10 319.24 38.80 319.90 38.14 C 319.96 40.12 320.00 42.11 320.02 44.09 C 319.72 43.68 319.14 42.85 318.85 42.44 C 317.68 42.82 316.51 43.19 315.35 43.56 C 315.20 42.40 314.92 40.08 314.78 38.92 C 313.96 40.62 313.25 42.37 312.56 44.12 C 312.12 42.28 311.68 40.44 311.13 38.63 Z" />
<path fill="#87c643" opacity="1.00" d=" M 285.53 52.46 C 288.60 50.37 292.79 50.51 296.23 51.56 C 298.59 52.23 299.32 54.75 300.26 56.71 C 299.58 56.75 298.22 56.85 297.54 56.89 C 295.73 53.34 291.58 53.00 288.10 53.98 C 287.11 54.96 285.90 56.29 287.50 57.37 C 290.92 58.71 294.75 58.42 298.16 59.80 C 301.79 61.33 301.01 67.20 297.57 68.49 C 293.84 69.90 289.44 69.86 285.80 68.18 C 283.90 67.27 283.50 65.05 282.77 63.29 C 283.43 63.25 284.75 63.15 285.41 63.10 C 287.12 67.14 291.84 67.22 295.52 66.34 C 297.19 66.03 297.14 63.93 297.86 62.75 C 294.16 61.46 290.19 61.43 286.46 60.33 C 283.14 59.27 282.78 54.37 285.53 52.46 Z" />
<path fill="#87c643" opacity="1.00" d=" M 228.60 57.24 C 230.05 56.41 231.50 55.58 232.96 54.76 C 234.35 55.59 235.74 56.43 237.14 57.27 C 237.18 58.90 237.22 60.54 237.27 62.17 C 235.82 63.12 234.36 64.05 232.91 64.99 C 231.41 64.05 229.91 63.10 228.42 62.14 C 228.47 60.51 228.53 58.88 228.60 57.24 Z" />
</g>
</svg>
