<?xml version="1.0" encoding="UTF-8" ?>
<!DOCTYPE svg PUBLIC "-//W3C//DTD SVG 1.1//EN" "http://www.w3.org/Graphics/SVG/1.1/DTD/svg11.dtd">
<svg width="150pt" height="363pt" viewBox="0 0 150 363" version="1.1" xmlns="http://www.w3.org/2000/svg">
<g id="#3e9c87ff">
<path fill="#3e9c87" opacity="1.00" d=" M 108.55 0.00 L 150.00 0.00 L 150.00 57.71 C 136.01 57.75 122.02 57.65 108.03 57.75 C 100.38 57.70 93.23 64.39 93.33 72.14 C 93.21 85.08 93.32 98.03 93.28 110.98 C 111.73 111.12 130.19 111.20 148.65 110.91 C 144.71 133.89 139.93 156.74 136.23 179.75 C 121.93 180.39 107.59 179.72 93.27 180.09 C 93.30 241.06 93.27 302.03 93.28 363.00 L 35.42 363.00 C 35.41 302.03 35.41 241.07 35.42 180.10 C 23.61 179.71 11.81 180.20 0.00 179.93 L 0.00 111.07 C 11.80 111.08 23.59 111.07 35.39 111.08 C 35.50 97.76 35.30 84.44 35.49 71.12 C 35.85 49.83 46.20 28.97 63.00 15.87 C 75.78 5.48 92.19 0.29 108.55 0.00 Z" />
</g>
</svg>
