<?xml version="1.0" encoding="UTF-8" ?>
<!DOCTYPE svg PUBLIC "-//W3C//DTD SVG 1.1//EN" "http://www.w3.org/Graphics/SVG/1.1/DTD/svg11.dtd">
<svg width="390pt" height="384pt" viewBox="0 0 390 384" version="1.1" xmlns="http://www.w3.org/2000/svg">
<g id="#3e9c87ff">
<path fill="#3e9c87" opacity="1.00" d=" M 159.80 3.34 C 192.02 -2.52 225.71 -0.26 256.78 10.11 C 298.48 23.88 334.78 52.51 358.76 89.19 C 378.33 119.14 389.16 154.62 390.00 190.38 L 390.00 197.72 C 389.38 237.68 376.47 277.48 352.68 309.67 C 326.98 345.52 288.49 371.69 245.97 383.23 C 243.83 379.51 243.52 375.16 243.52 370.97 C 243.64 362.65 243.96 354.33 244.60 346.04 C 244.64 334.68 244.65 323.32 244.60 311.96 C 244.45 301.20 238.74 291.13 230.33 284.63 C 244.93 283.23 259.55 280.14 272.86 273.80 C 287.19 267.14 299.71 256.43 307.86 242.83 C 317.94 226.11 321.72 206.32 321.99 187.00 C 321.91 167.93 313.19 149.67 300.12 136.07 C 302.78 127.98 305.57 119.57 304.50 110.93 C 303.63 101.33 303.16 91.09 298.02 82.64 C 286.33 83.10 275.01 86.74 264.30 91.23 C 257.05 94.05 250.85 98.90 243.95 102.41 C 237.74 101.59 231.76 99.12 225.48 98.37 C 199.14 93.58 171.73 95.11 145.96 102.29 C 137.73 97.68 129.88 92.29 120.95 89.10 C 111.41 85.66 101.50 82.28 91.24 82.50 C 86.20 91.47 85.71 102.05 84.91 112.07 C 84.10 120.30 87.03 128.21 89.43 135.94 C 82.24 144.09 76.31 153.46 72.75 163.77 C 66.62 180.78 67.28 199.43 70.93 216.90 C 74.70 234.84 84.09 252.01 98.82 263.24 C 101.51 265.15 103.88 267.50 106.67 269.28 C 123.20 277.77 141.59 281.79 159.95 283.82 C 157.29 286.20 154.43 288.41 152.23 291.26 C 147.75 296.95 145.46 304.07 144.94 311.23 C 137.00 314.23 128.48 315.09 120.06 315.39 C 116.71 315.61 113.70 313.94 111.00 312.15 C 96.91 303.22 86.73 289.67 74.41 278.68 C 67.96 275.62 60.62 273.33 53.43 274.57 C 51.57 275.07 48.09 276.73 49.84 279.06 C 53.03 282.90 57.44 285.44 61.06 288.83 C 68.55 295.23 74.41 303.42 78.49 312.35 C 80.43 316.59 82.13 321.10 85.41 324.53 C 88.40 327.63 91.96 330.12 95.60 332.39 C 104.08 337.61 114.13 339.19 123.82 340.56 C 130.73 341.12 137.65 339.75 144.34 338.13 C 144.22 349.50 145.32 360.82 145.84 372.17 C 146.07 375.88 145.49 379.65 143.57 382.89 C 111.96 374.40 82.62 357.64 59.17 334.81 C 38.43 314.65 22.25 289.84 12.19 262.72 C 0.00 229.76 -3.00 193.47 3.44 158.93 C 10.18 122.49 27.83 88.21 53.38 61.41 C 81.47 31.41 119.28 10.55 159.80 3.34 Z" />
</g>
</svg>
