<?xml version="1.0" encoding="UTF-8" ?>
<!DOCTYPE svg PUBLIC "-//W3C//DTD SVG 1.1//EN" "http://www.w3.org/Graphics/SVG/1.1/DTD/svg11.dtd">
<svg width="362pt" height="371pt" viewBox="0 0 362 371" version="1.1" xmlns="http://www.w3.org/2000/svg">
<g id="#3e9c87ff">
<path fill="#3e9c87" opacity="1.00" d=" M 14.18 11.15 C 18.24 8.48 23.22 7.98 27.95 7.81 C 129.29 7.80 230.63 7.83 331.97 7.80 C 337.73 7.81 343.72 8.91 348.31 12.61 C 353.52 16.68 356.70 23.29 356.56 29.91 C 356.54 133.95 356.57 237.99 356.55 342.04 C 356.78 353.11 347.07 363.26 335.97 363.37 C 261.32 363.37 186.67 363.37 112.02 363.37 C 81.67 363.28 51.31 363.56 20.97 363.23 C 12.27 361.13 5.36 353.92 3.80 345.08 C 3.44 340.06 3.60 335.02 3.57 329.99 C 3.57 230.30 3.57 130.61 3.57 30.92 C 3.33 23.08 7.36 15.15 14.18 11.15 M 68.17 46.28 C 61.42 47.70 54.97 51.17 50.54 56.53 C 46.22 61.61 44.09 68.38 44.35 75.01 C 43.99 86.26 51.62 96.78 61.73 101.23 C 74.80 106.84 92.09 104.82 101.61 93.56 C 111.51 82.95 110.95 64.53 100.46 54.50 C 92.13 46.20 79.38 44.05 68.17 46.28 M 237.97 131.79 C 223.82 136.34 212.13 146.71 204.30 159.17 C 203.76 150.27 204.99 141.24 203.63 132.43 C 185.24 132.46 166.84 132.26 148.45 132.53 C 148.02 145.34 148.38 158.16 148.26 170.98 C 148.35 220.16 148.07 269.36 148.40 318.54 C 166.84 318.72 185.29 318.56 203.73 318.62 C 203.95 317.39 204.11 316.16 204.21 314.93 C 204.23 281.29 204.19 247.66 204.23 214.03 C 204.19 204.44 205.96 194.46 211.59 186.50 C 217.53 177.56 228.08 171.17 239.04 172.21 C 248.27 171.96 257.46 176.86 261.94 185.01 C 267.69 195.34 267.86 207.52 268.13 219.03 C 268.09 250.70 268.15 282.37 268.10 314.04 C 268.13 315.57 268.26 317.09 268.40 318.61 C 286.77 318.57 305.15 318.72 323.52 318.54 C 323.74 278.33 323.69 238.11 323.54 197.90 C 322.87 180.99 319.83 163.31 309.69 149.31 C 301.77 138.01 288.82 131.09 275.34 129.02 C 262.90 127.36 249.94 127.72 237.97 131.79 M 48.42 132.50 C 47.94 159.32 48.35 186.17 48.22 213.00 C 48.32 248.19 48.01 283.38 48.37 318.55 C 66.80 318.67 85.22 318.64 103.64 318.57 C 103.97 258.74 103.65 198.91 103.80 139.08 C 103.82 136.87 103.72 134.66 103.55 132.46 C 85.17 132.40 66.80 132.32 48.42 132.50 Z" />
</g>
<g id="#ffffffff">
<path fill="#ffffff" opacity="1.00" d=" M 68.17 46.28 C 79.38 44.05 92.13 46.20 100.46 54.50 C 110.95 64.53 111.51 82.95 101.61 93.56 C 92.09 104.82 74.80 106.84 61.73 101.23 C 51.62 96.78 43.99 86.26 44.35 75.01 C 44.09 68.38 46.22 61.61 50.54 56.53 C 54.97 51.17 61.42 47.70 68.17 46.28 Z" />
<path fill="#ffffff" opacity="1.00" d=" M 237.97 131.79 C 249.94 127.72 262.90 127.36 275.34 129.02 C 288.82 131.09 301.77 138.01 309.69 149.31 C 319.83 163.31 322.87 180.99 323.54 197.90 C 323.69 238.11 323.74 278.33 323.52 318.54 C 305.15 318.72 286.77 318.57 268.40 318.61 C 268.26 317.09 268.13 315.57 268.10 314.04 C 268.15 282.37 268.09 250.70 268.13 219.03 C 267.86 207.52 267.69 195.34 261.94 185.01 C 257.46 176.86 248.27 171.96 239.04 172.21 C 228.08 171.17 217.53 177.56 211.59 186.50 C 205.96 194.46 204.19 204.44 204.23 214.03 C 204.19 247.66 204.23 281.29 204.21 314.93 C 204.11 316.16 203.95 317.39 203.73 318.62 C 185.29 318.56 166.84 318.72 148.40 318.54 C 148.07 269.36 148.35 220.16 148.26 170.98 C 148.38 158.16 148.02 145.34 148.45 132.53 C 166.84 132.26 185.24 132.46 203.63 132.43 C 204.99 141.24 203.76 150.27 204.30 159.17 C 212.13 146.71 223.82 136.34 237.97 131.79 Z" />
<path fill="#ffffff" opacity="1.00" d=" M 48.42 132.50 C 66.80 132.32 85.17 132.40 103.55 132.46 C 103.72 134.66 103.82 136.87 103.80 139.08 C 103.65 198.91 103.97 258.74 103.64 318.57 C 85.22 318.64 66.80 318.67 48.37 318.55 C 48.01 283.38 48.32 248.19 48.22 213.00 C 48.35 186.17 47.94 159.32 48.42 132.50 Z" />
</g>
</svg>
