<?xml version="1.0" encoding="UTF-8" ?>
<!DOCTYPE svg PUBLIC "-//W3C//DTD SVG 1.1//EN" "http://www.w3.org/Graphics/SVG/1.1/DTD/svg11.dtd">
<svg width="256pt" height="256pt" viewBox="0 0 256 256" version="1.1" xmlns="http://www.w3.org/2000/svg">
<g id="#ffffffff">
</g>
<g id="#00678cff">
<path fill="#00678c" opacity="1.00" d=" M 157.97 66.86 C 156.64 63.97 158.64 60.01 161.95 59.90 C 167.05 59.67 171.24 62.92 175.33 65.45 C 179.26 66.03 183.37 66.18 186.93 68.15 C 198.48 74.49 208.47 84.43 213.13 96.91 C 215.07 101.50 217.24 106.00 219.51 110.44 C 220.84 113.38 224.49 113.62 226.99 115.13 C 232.68 118.27 238.17 122.16 242.09 127.41 C 237.69 128.81 233.03 129.03 228.64 130.43 C 231.59 133.61 235.81 135.11 238.87 138.15 C 241.15 140.36 243.31 142.73 244.95 145.47 C 238.44 139.08 227.05 137.97 223.76 128.51 C 228.34 126.59 233.27 125.96 238.19 125.77 C 233.37 122.50 228.87 118.42 223.15 116.79 C 220.89 115.93 218.02 115.59 216.82 113.19 C 213.14 106.58 210.43 99.48 207.20 92.66 C 201.84 82.80 193.26 74.55 182.89 70.12 C 179.91 68.74 176.51 69.24 173.39 68.44 C 169.86 66.15 166.30 63.49 162.00 62.94 C 160.62 63.08 159.97 64.32 160.42 65.56 C 161.57 68.51 163.98 70.70 165.63 73.35 C 169.11 78.41 169.06 85.16 173.09 89.90 C 174.16 91.31 175.85 92.86 174.79 94.78 C 171.83 102.46 170.73 112.89 177.26 119.06 C 177.99 114.26 178.26 108.94 182.13 105.44 C 185.44 114.23 190.05 122.75 196.84 129.34 C 191.05 124.61 184.86 119.79 182.13 112.54 C 181.41 115.33 181.72 118.65 179.91 121.02 C 177.29 123.24 174.11 120.57 172.83 118.18 C 168.33 110.62 169.68 101.31 172.32 93.36 C 168.61 89.23 166.89 83.88 165.25 78.70 C 164.00 74.09 159.76 71.19 157.97 66.86 Z" />
<path fill="#00678c" opacity="1.00" d=" M 174.94 74.48 C 178.66 73.60 180.78 77.57 178.89 80.49 C 177.54 78.51 176.22 76.51 174.94 74.48 Z" />
<path fill="#00678c" opacity="1.00" d=" M 11.31 139.99 C 10.76 134.13 18.48 132.96 22.67 134.46 C 25.06 135.29 26.28 137.66 27.19 139.83 C 30.73 148.12 34.33 156.38 37.90 164.65 C 41.95 155.75 45.82 146.77 49.95 137.91 C 52.13 133.09 58.58 133.11 62.68 135.23 C 64.86 136.24 64.93 138.88 64.93 140.94 C 64.92 150.72 64.92 160.50 64.92 170.28 C 62.33 170.28 59.75 170.28 57.16 170.28 C 57.15 160.14 57.18 150.00 57.14 139.85 C 52.99 148.86 49.07 157.98 44.87 166.97 C 42.23 172.87 32.00 171.83 30.58 165.44 C 26.75 156.89 22.90 148.36 19.01 139.83 C 18.98 149.98 19.01 160.13 19.00 170.28 C 16.43 170.28 13.86 170.28 11.29 170.28 C 11.33 160.18 11.25 150.09 11.31 139.99 Z" />
<path fill="#00678c" opacity="1.00" d=" M 71.37 145.44 C 73.94 145.45 76.51 145.45 79.08 145.45 C 79.21 151.31 78.86 157.18 79.22 163.03 C 79.44 164.77 81.53 165.23 82.99 165.30 C 88.79 165.53 94.60 165.31 100.41 165.36 C 100.42 158.69 100.42 152.02 100.41 145.35 C 102.99 145.35 105.58 145.33 108.16 145.24 C 108.15 154.53 108.27 163.81 108.12 173.10 C 108.00 178.62 101.66 180.78 97.04 180.98 C 88.53 181.20 80.01 181.00 71.50 181.06 C 71.50 179.35 71.49 177.65 71.48 175.95 C 79.35 175.86 87.22 175.98 95.09 175.91 C 96.88 175.83 99.10 175.66 100.13 173.95 C 100.30 172.66 100.42 171.36 100.48 170.06 C 93.94 169.90 87.37 170.36 80.84 169.80 C 77.13 169.30 72.51 167.69 71.47 163.65 C 71.11 157.59 71.56 151.51 71.37 145.44 Z" />
</g>
<g id="#ce8b2cff">
<path fill="#ce8b2c" opacity="1.00" d=" M 114.42 141.11 C 115.15 136.74 120.11 134.99 124.00 134.73 C 132.25 134.45 140.52 134.69 148.78 134.63 C 148.77 136.34 148.77 138.05 148.77 139.77 C 141.50 139.80 134.23 139.72 126.95 139.77 C 125.24 139.92 122.42 139.73 122.06 141.99 C 121.82 144.52 121.16 148.56 124.28 149.58 C 130.40 150.74 136.89 148.91 142.88 151.06 C 145.45 152.03 148.50 153.85 148.44 156.98 C 148.48 159.85 148.98 163.03 147.55 165.66 C 144.93 169.17 140.22 170.24 136.06 170.28 C 128.74 170.31 121.42 170.27 114.10 170.27 C 114.10 168.56 114.10 166.85 114.11 165.14 C 121.40 165.06 128.70 165.27 135.99 165.06 C 137.93 165.08 140.62 164.24 140.63 161.88 C 140.64 159.67 141.43 156.33 138.79 155.30 C 131.66 153.43 123.42 156.51 116.95 151.99 C 113.24 149.69 114.12 144.77 114.42 141.11 Z" />
<path fill="#ce8b2c" opacity="1.00" d=" M 159.35 135.65 C 164.08 134.11 169.12 134.81 174.00 134.66 C 178.98 134.71 184.52 134.13 188.84 137.12 C 191.10 138.59 191.96 141.37 191.85 143.96 C 191.79 150.31 192.01 156.67 191.73 163.01 C 191.75 165.75 189.51 167.53 187.45 168.93 C 189.94 171.13 192.40 173.37 194.86 175.61 C 192.00 175.59 189.12 175.81 186.27 175.49 C 183.76 174.18 181.94 171.85 179.78 170.05 C 174.53 170.36 169.26 170.58 164.01 170.32 C 160.63 170.06 156.95 169.03 154.78 166.24 C 153.01 163.88 153.46 160.77 153.36 158.01 C 153.50 152.72 153.18 147.43 153.50 142.15 C 153.65 138.91 156.45 136.57 159.35 135.65 M 161.89 143.03 C 161.50 147.99 161.86 152.97 161.71 157.94 C 161.82 160.14 161.36 163.11 163.66 164.38 C 166.95 165.86 170.73 165.07 174.22 165.26 C 172.24 163.23 170.16 161.31 168.04 159.44 C 170.91 159.47 173.80 159.23 176.66 159.55 C 179.06 160.89 180.86 163.08 182.98 164.81 C 185.19 162.35 184.59 158.97 184.64 155.95 C 184.51 151.66 184.83 147.37 184.51 143.09 C 184.36 140.93 181.93 139.96 180.05 139.93 C 175.69 139.73 171.33 139.77 166.97 139.89 C 164.96 139.91 162.17 140.65 161.89 143.03 Z" />
<path fill="#ce8b2c" opacity="1.00" d=" M 196.71 134.62 C 199.29 134.62 201.88 134.62 204.46 134.62 C 204.56 143.72 204.30 152.84 204.57 161.94 C 204.64 164.63 207.85 165.07 209.94 165.09 C 216.96 165.23 223.98 165.08 231.01 165.14 C 231.01 166.85 231.01 168.56 231.01 170.28 C 223.01 170.13 214.99 170.63 207.01 169.99 C 202.53 169.64 196.85 167.29 196.78 162.03 C 196.57 152.90 196.77 143.76 196.71 134.62 Z" />
<path fill="#ce8b2c" opacity="1.00" d=" M 232.69 164.92 C 234.34 165.00 236.00 165.04 237.67 165.04 C 237.17 165.41 236.19 166.16 235.70 166.53 C 235.61 167.66 235.44 169.92 235.35 171.06 C 234.40 168.96 235.03 166.22 232.69 164.92 Z" />
<path fill="#ce8b2c" opacity="1.00" d=" M 238.49 164.61 C 240.69 165.89 241.76 168.19 242.28 170.59 C 241.68 170.19 240.47 169.39 239.87 168.99 C 239.48 169.41 238.70 170.24 238.31 170.65 C 238.35 168.64 238.40 166.62 238.49 164.61 Z" />
<path fill="#ce8b2c" opacity="1.00" d=" M 242.77 165.30 C 244.72 164.92 244.54 168.53 243.86 169.69 C 242.28 169.45 241.71 166.48 242.77 165.30 Z" />
</g>
</svg>
