<?xml version="1.0" encoding="UTF-8" ?>
<!DOCTYPE svg PUBLIC "-//W3C//DTD SVG 1.1//EN" "http://www.w3.org/Graphics/SVG/1.1/DTD/svg11.dtd">
<svg width="280pt" height="280pt" viewBox="0 0 280 280" version="1.1" xmlns="http://www.w3.org/2000/svg">
<g id="#2f2f2f37">
<path fill="#2f2f2f" opacity="0.22" d=" M 116.03 0.00 L 122.05 0.00 C 122.03 0.55 122.00 1.64 121.98 2.18 C 119.96 2.18 117.95 2.19 115.93 2.19 C 115.96 1.65 116.01 0.55 116.03 0.00 Z" />
</g>
<g id="#6e6e6e81">
<path fill="#6e6e6e" opacity="0.51" d=" M 122.05 0.00 L 127.05 0.00 C 127.04 0.55 127.02 1.64 127.01 2.19 C 125.33 2.21 123.65 2.19 121.98 2.18 C 122.00 1.64 122.03 0.55 122.05 0.00 Z" />
</g>
<g id="#acababce">
<path fill="#acabab" opacity="0.81" d=" M 127.05 0.00 L 133.07 0.00 C 131.32 1.38 129.29 2.34 127.01 2.19 C 127.02 1.64 127.04 0.55 127.05 0.00 Z" />
</g>
<g id="#d9d9d9ff">
<path fill="#d9d9d9" opacity="1.00" d=" M 133.07 0.00 L 138.24 0.00 C 141.86 4.74 147.26 7.50 151.43 11.62 C 153.14 13.01 152.03 15.23 151.82 17.00 C 153.45 18.75 155.18 20.41 156.95 22.02 C 147.75 22.50 138.97 18.26 129.78 19.49 C 119.71 20.41 109.26 18.06 99.53 21.54 C 95.23 21.64 91.00 22.35 87.00 23.95 C 85.68 24.03 84.36 24.08 83.04 24.10 C 88.72 19.38 96.51 19.11 103.07 16.20 C 93.28 16.15 83.27 14.46 73.62 16.78 C 81.33 12.47 89.59 9.24 97.95 6.42 C 100.01 6.50 101.97 5.93 103.50 4.51 C 104.56 4.47 105.62 4.40 106.68 4.33 C 108.83 4.47 110.74 3.59 112.34 2.21 C 113.54 2.20 114.73 2.20 115.93 2.19 C 117.95 2.19 119.96 2.18 121.98 2.18 C 123.65 2.19 125.33 2.21 127.01 2.19 C 129.29 2.34 131.32 1.38 133.07 0.00 Z" />
</g>
<g id="#cac9c9ff">
<path fill="#cac9c9" opacity="1.00" d=" M 138.24 0.00 L 149.86 0.00 C 151.91 1.64 154.42 2.19 157.00 2.05 L 157.85 2.32 C 163.21 4.11 169.25 5.53 173.16 9.88 C 175.23 11.93 173.74 14.84 174.19 17.30 C 174.98 18.63 176.12 19.70 177.16 20.84 C 182.24 25.94 185.96 32.16 189.90 38.13 C 191.62 40.65 192.47 43.60 192.96 46.57 C 189.54 48.13 186.34 50.16 183.38 52.47 C 182.08 53.45 180.75 54.39 179.47 55.38 C 180.37 53.96 181.28 52.54 182.22 51.14 C 178.95 49.01 175.50 47.14 172.34 44.83 C 172.84 43.92 173.35 43.02 173.86 42.11 C 174.72 42.07 176.45 41.97 177.31 41.92 C 177.43 39.42 175.66 37.87 173.54 36.99 C 166.64 33.34 159.99 29.17 152.69 26.32 C 147.49 24.10 141.76 23.71 136.47 21.75 C 134.32 20.77 132.11 19.92 129.78 19.49 C 138.97 18.26 147.75 22.50 156.95 22.02 C 155.18 20.41 153.45 18.75 151.82 17.00 C 152.03 15.23 153.14 13.01 151.43 11.62 C 147.26 7.50 141.86 4.74 138.24 0.00 Z" />
</g>
<g id="#8f8e8eb2">
<path fill="#8f8e8e" opacity="0.70" d=" M 149.86 0.00 L 157.16 0.00 C 157.12 0.51 157.04 1.54 157.00 2.05 C 154.42 2.19 151.91 1.64 149.86 0.00 Z" />
</g>
<g id="#54545468">
<path fill="#545454" opacity="0.41" d=" M 157.16 0.00 L 159.63 0.00 C 159.66 0.47 159.71 1.41 159.74 1.88 C 159.27 1.99 158.33 2.21 157.85 2.32 L 157.00 2.05 C 157.04 1.54 157.12 0.51 157.16 0.00 Z" />
</g>
<g id="#27272731">
<path fill="#272727" opacity="0.19" d=" M 159.63 0.00 L 164.82 0.00 C 164.89 0.53 165.05 1.59 165.13 2.12 C 163.33 2.05 161.53 1.94 159.74 1.88 C 159.71 1.41 159.66 0.47 159.63 0.00 Z" />
</g>
<g id="#63626271">
<path fill="#636262" opacity="0.44" d=" M 106.68 4.33 C 107.76 2.07 110.19 2.12 112.34 2.21 C 110.74 3.59 108.83 4.47 106.68 4.33 Z" />
</g>
<g id="#bfbebfff">
<path fill="#bfbebf" opacity="1.00" d=" M 157.85 2.32 C 158.33 2.21 159.27 1.99 159.74 1.88 C 161.53 1.94 163.33 2.05 165.13 2.12 C 167.23 2.27 169.41 2.17 171.41 2.98 C 175.90 4.64 180.62 5.53 185.16 7.04 C 185.50 7.36 186.18 8.02 186.52 8.35 C 188.37 11.09 189.37 14.21 188.79 17.51 C 193.40 25.07 198.93 32.22 202.32 40.50 C 202.71 41.74 201.97 43.00 201.66 44.19 C 201.45 44.58 201.03 45.37 200.82 45.76 C 198.19 45.95 195.56 46.15 192.96 46.57 C 192.47 43.60 191.62 40.65 189.90 38.13 C 185.96 32.16 182.24 25.94 177.16 20.84 C 176.12 19.70 174.98 18.63 174.19 17.30 C 173.74 14.84 175.23 11.93 173.16 9.88 C 169.25 5.53 163.21 4.11 157.85 2.32 Z" />
</g>
<g id="#4c4b4b56">
<path fill="#4c4b4b" opacity="0.34" d=" M 99.72 4.61 C 100.98 4.57 102.24 4.54 103.50 4.51 C 101.97 5.93 100.01 6.50 97.95 6.42 C 98.40 5.97 99.28 5.06 99.72 4.61 Z" />
</g>
<g id="#b6b5b5ff">
<path fill="#b6b5b5" opacity="1.00" d=" M 186.52 8.35 C 190.42 8.83 194.71 9.48 197.48 12.57 C 203.10 23.13 211.74 32.27 214.25 44.31 C 210.07 43.86 205.82 43.38 201.66 44.19 C 201.97 43.00 202.71 41.74 202.32 40.50 C 198.93 32.22 193.40 25.07 188.79 17.51 C 189.37 14.21 188.37 11.09 186.52 8.35 Z" />
</g>
<g id="#aeadadff">
<path fill="#aeadad" opacity="1.00" d=" M 197.48 12.57 C 198.60 12.71 199.72 12.83 200.85 12.92 C 200.86 14.57 201.73 15.26 203.45 15.00 C 207.26 15.80 210.17 18.50 213.47 20.36 C 223.09 25.75 231.41 33.08 239.41 40.59 C 251.79 53.33 262.76 67.83 269.38 84.43 C 272.56 95.51 277.77 106.29 277.98 118.02 C 277.10 119.38 278.29 121.58 280.00 121.04 L 280.00 159.01 C 279.05 160.56 277.95 162.11 277.85 164.00 C 277.83 165.70 277.87 167.41 277.87 169.11 C 277.87 171.35 277.63 173.61 276.76 175.70 C 272.79 188.84 268.29 202.06 260.63 213.58 C 249.05 233.07 232.48 249.48 212.95 260.99 C 203.13 267.44 192.05 271.59 180.93 275.18 C 176.99 276.09 173.28 278.14 169.13 277.86 C 167.39 277.87 165.66 277.83 163.93 277.85 C 162.07 277.99 160.54 279.08 159.00 280.00 L 121.15 280.00 C 119.62 278.93 118.00 277.89 116.07 277.85 C 115.35 277.86 113.91 277.88 113.19 277.89 C 103.34 276.02 93.99 272.26 84.45 269.33 C 73.75 265.16 64.08 258.83 54.84 252.09 C 52.91 250.72 51.18 249.09 49.48 247.45 C 55.30 248.38 61.20 249.69 67.11 248.67 C 62.18 240.47 51.77 236.77 48.06 227.66 C 50.80 229.99 53.72 232.13 56.59 234.31 C 57.30 234.85 58.01 235.39 58.72 235.94 C 62.14 238.64 65.76 241.09 69.53 243.26 C 72.67 244.99 75.95 246.43 79.26 247.80 C 81.94 251.95 82.76 257.50 87.04 260.42 C 87.38 258.87 87.70 257.31 88.04 255.77 C 91.94 255.18 95.84 256.00 99.55 257.19 C 105.80 259.10 112.28 260.09 118.73 261.06 C 126.11 262.15 133.57 261.44 140.99 261.66 C 152.83 262.01 164.49 259.49 175.97 256.88 C 178.85 256.25 181.61 255.20 184.38 254.21 C 184.81 254.21 185.67 254.21 186.10 254.21 C 186.18 256.15 186.29 258.09 186.42 260.03 C 189.95 258.26 192.15 254.93 193.26 251.24 C 200.73 246.98 208.94 244.04 215.91 238.92 C 223.09 233.52 230.37 228.12 236.32 221.31 C 242.31 215.08 246.90 207.71 251.38 200.35 C 259.50 186.24 263.41 170.11 265.27 154.06 C 265.51 147.02 265.31 139.98 265.37 132.94 C 265.48 129.65 264.30 126.55 262.92 123.62 C 261.24 116.64 260.07 109.53 257.28 102.88 C 254.94 91.17 248.88 80.78 244.50 69.81 C 242.87 65.44 240.57 61.08 236.36 58.72 C 238.37 63.87 240.35 69.03 242.55 74.10 C 245.43 81.19 246.97 88.75 248.69 96.19 C 249.27 101.87 251.72 107.24 251.58 113.00 C 251.66 125.01 251.78 137.03 251.53 149.04 C 251.44 153.60 249.42 157.79 248.38 162.16 C 246.61 169.13 244.55 176.10 241.27 182.52 C 236.29 190.78 230.10 198.19 223.70 205.37 C 225.31 200.01 227.28 194.63 227.33 188.97 C 228.03 189.17 228.74 189.34 229.45 189.51 C 229.64 186.75 229.59 183.93 230.33 181.24 C 231.45 177.53 233.53 174.07 233.76 170.13 C 234.22 163.34 234.58 156.52 234.15 149.71 C 233.99 143.04 234.45 136.12 231.97 129.78 C 230.86 126.69 229.75 123.58 228.78 120.44 C 226.84 114.19 223.67 108.43 221.16 102.41 C 222.44 104.02 223.89 105.47 225.39 106.88 C 227.22 97.13 224.91 87.33 223.34 77.72 C 221.66 68.05 220.42 57.98 215.61 49.27 C 213.80 49.51 211.99 49.80 210.21 50.17 C 210.97 48.77 211.66 47.34 212.33 45.90 C 208.50 45.60 204.66 45.54 200.82 45.76 C 201.03 45.37 201.45 44.58 201.66 44.19 C 205.82 43.38 210.07 43.86 214.25 44.31 C 211.74 32.27 203.10 23.13 197.48 12.57 Z" />
</g>
<g id="#7171719c">
<path fill="#717171" opacity="0.61" d=" M 200.85 12.92 C 202.41 12.78 203.27 13.47 203.45 15.00 C 201.73 15.26 200.86 14.57 200.85 12.92 Z" />
</g>
<g id="#e8e8e8ff">
<path fill="#e8e8e8" opacity="1.00" d=" M 73.62 16.78 C 83.27 14.46 93.28 16.15 103.07 16.20 C 96.51 19.11 88.72 19.38 83.04 24.10 C 82.12 24.79 81.20 25.46 80.24 26.09 C 72.14 28.01 65.64 33.50 58.61 37.62 C 53.48 40.85 49.41 45.36 45.24 49.69 C 42.93 51.99 40.57 54.26 38.51 56.79 C 36.45 59.41 34.47 62.10 32.82 64.99 C 29.70 69.90 27.02 75.10 25.67 80.79 C 23.28 86.75 19.64 92.43 19.97 99.13 C 19.22 101.34 18.40 103.53 17.81 105.79 C 16.18 111.66 16.16 117.82 14.59 123.70 C 12.54 132.39 11.36 141.49 12.44 150.39 C 12.46 160.66 14.32 170.79 14.81 181.02 C 10.02 180.06 8.36 174.98 5.40 171.72 C 5.42 166.88 3.30 162.44 2.20 157.82 C 2.20 157.09 2.21 155.64 2.21 154.92 C 2.47 152.33 1.52 149.98 0.00 147.95 L 0.00 132.20 C 1.14 130.66 2.18 129.00 2.18 127.02 C 2.20 125.64 2.20 124.27 2.19 122.90 C 2.17 120.59 2.20 118.28 2.20 115.97 C 2.21 114.76 2.21 113.55 2.22 112.34 C 3.60 110.75 4.47 108.84 4.34 106.70 C 4.55 103.88 4.72 101.06 4.95 98.24 C 5.29 99.89 5.62 101.55 6.01 103.19 C 6.41 100.34 6.31 97.36 7.56 94.70 C 16.44 69.09 32.60 45.77 54.40 29.53 C 60.12 24.34 67.04 20.73 73.62 16.78 Z" />
</g>
<g id="#5c7eb4ff">
<path fill="#5c7eb4" opacity="1.00" d=" M 99.53 21.54 C 109.26 18.06 119.71 20.41 129.78 19.49 C 132.11 19.92 134.32 20.77 136.47 21.75 C 132.61 22.04 128.74 22.30 124.88 22.55 C 125.87 26.50 129.27 29.84 133.36 30.38 C 137.34 30.95 141.31 31.49 145.23 32.38 C 140.84 32.65 136.44 32.72 132.03 32.62 C 126.30 32.41 120.89 34.54 115.31 35.45 C 107.82 34.00 104.28 26.65 99.53 21.54 Z" />
</g>
<g id="#728ebfff">
<path fill="#728ebf" opacity="1.00" d=" M 87.00 23.95 C 91.00 22.35 95.23 21.64 99.53 21.54 C 104.28 26.65 107.82 34.00 115.31 35.45 C 111.87 36.94 108.45 38.47 105.00 39.91 C 102.22 40.35 98.70 42.01 96.40 39.59 C 92.62 35.83 88.76 32.13 85.21 28.14 C 85.81 26.75 86.41 25.35 87.00 23.95 Z" />
</g>
<g id="#3e69a2ff">
<path fill="#3e69a2" opacity="1.00" d=" M 124.88 22.55 C 128.74 22.30 132.61 22.04 136.47 21.75 C 141.76 23.71 147.49 24.10 152.69 26.32 C 159.99 29.17 166.64 33.34 173.54 36.99 C 173.08 37.46 172.16 38.40 171.70 38.87 C 167.84 38.51 164.46 36.25 160.68 35.52 C 155.53 34.47 150.45 33.07 145.23 32.38 C 141.31 31.49 137.34 30.95 133.36 30.38 C 129.27 29.84 125.87 26.50 124.88 22.55 Z" />
</g>
<g id="#869dc9ff">
<path fill="#869dc9" opacity="1.00" d=" M 83.04 24.10 C 84.36 24.08 85.68 24.03 87.00 23.95 C 86.41 25.35 85.81 26.75 85.21 28.14 C 88.76 32.13 92.62 35.83 96.40 39.59 C 98.70 42.01 102.22 40.35 105.00 39.91 C 100.19 43.78 94.89 46.96 89.95 50.65 C 87.54 49.32 85.02 48.12 82.94 46.29 C 80.84 40.15 74.45 37.71 69.80 33.89 C 72.64 30.51 76.70 28.62 80.24 26.09 C 81.20 25.46 82.12 24.79 83.04 24.10 Z" />
</g>
<g id="#99aad0ff">
<path fill="#99aad0" opacity="1.00" d=" M 58.61 37.62 C 65.64 33.50 72.14 28.01 80.24 26.09 C 76.70 28.62 72.64 30.51 69.80 33.89 C 74.45 37.71 80.84 40.15 82.94 46.29 C 77.31 46.05 71.66 45.27 66.02 45.73 C 64.71 45.80 63.75 46.83 62.68 47.47 C 60.46 46.07 58.69 44.12 57.21 41.98 C 57.68 40.53 58.15 39.07 58.61 37.62 Z" />
</g>
<g id="#84919eff">
<path fill="#84919e" opacity="1.00" d=" M 115.31 35.45 C 120.89 34.54 126.30 32.41 132.03 32.62 C 136.44 32.72 140.84 32.65 145.23 32.38 C 150.45 33.07 155.53 34.47 160.68 35.52 C 164.46 36.25 167.84 38.51 171.70 38.87 C 172.16 38.40 173.08 37.46 173.54 36.99 C 175.66 37.87 177.43 39.42 177.31 41.92 C 176.45 41.97 174.72 42.07 173.86 42.11 C 163.21 38.59 152.42 34.24 141.00 34.55 C 135.49 34.66 129.89 34.16 124.47 35.41 C 116.04 37.45 107.31 39.88 100.64 45.72 C 97.51 47.38 94.46 49.49 93.18 52.96 C 92.37 52.27 91.51 51.62 90.62 51.03 L 89.95 50.65 C 94.89 46.96 100.19 43.78 105.00 39.91 C 108.45 38.47 111.87 36.94 115.31 35.45 Z" />
</g>
<g id="#d9d8d8ff">
<path fill="#d9d8d8" opacity="1.00" d=" M 124.47 35.41 C 129.89 34.16 135.49 34.66 141.00 34.55 C 152.42 34.24 163.21 38.59 173.86 42.11 C 173.35 43.02 172.84 43.92 172.34 44.83 C 175.50 47.14 178.95 49.01 182.22 51.14 C 181.28 52.54 180.37 53.96 179.47 55.38 C 178.32 57.13 177.31 58.95 176.22 60.74 C 171.53 59.62 166.95 58.09 162.39 56.55 C 155.66 53.26 147.91 54.94 140.70 54.51 C 136.67 54.47 132.65 54.34 128.63 54.34 C 136.36 50.53 144.97 53.62 153.04 53.64 C 151.70 53.38 150.36 53.15 149.02 52.93 C 150.30 51.93 151.56 50.91 152.83 49.89 C 150.16 45.88 147.75 40.62 142.62 39.44 C 134.16 37.42 125.17 37.56 116.78 39.85 C 111.19 41.24 106.39 44.81 100.64 45.72 C 107.31 39.88 116.04 37.45 124.47 35.41 Z" />
</g>
<g id="#b1bedcff">
<path fill="#b1bedc" opacity="1.00" d=" M 45.24 49.69 C 49.41 45.36 53.48 40.85 58.61 37.62 C 58.15 39.07 57.68 40.53 57.21 41.98 C 58.69 44.12 60.46 46.07 62.68 47.47 C 67.82 50.00 69.75 55.79 70.20 61.13 C 70.23 62.54 70.24 63.94 70.24 65.34 C 66.49 64.30 63.22 62.18 60.19 59.81 C 56.19 56.65 51.20 55.35 46.57 53.44 C 46.12 52.19 45.67 50.94 45.24 49.69 Z" />
</g>
<g id="#ebeaeaff">
<path fill="#ebeaea" opacity="1.00" d=" M 116.78 39.85 C 125.17 37.56 134.16 37.42 142.62 39.44 C 147.75 40.62 150.16 45.88 152.83 49.89 C 151.56 50.91 150.30 51.93 149.02 52.93 C 150.36 53.15 151.70 53.38 153.04 53.64 C 144.97 53.62 136.36 50.53 128.63 54.34 C 127.35 54.44 126.06 54.53 124.78 54.59 C 120.20 54.32 115.90 55.93 111.58 57.14 C 108.06 57.67 104.81 59.18 101.74 60.90 C 98.52 58.67 96.00 55.65 93.18 52.96 C 94.46 49.49 97.51 47.38 100.64 45.72 C 106.39 44.81 111.19 41.24 116.78 39.85 Z" />
</g>
<g id="#f47d21ff">
<path fill="#f47d21" opacity="1.00" d=" M 62.68 47.47 C 63.75 46.83 64.71 45.80 66.02 45.73 C 71.66 45.27 77.31 46.05 82.94 46.29 C 85.02 48.12 87.54 49.32 89.95 50.65 L 90.62 51.03 C 90.56 52.25 90.50 53.48 90.43 54.70 C 83.59 56.55 76.88 58.77 70.20 61.13 C 69.75 55.79 67.82 50.00 62.68 47.47 Z" />
</g>
<g id="#ed2322ff">
<path fill="#ed2322" opacity="1.00" d=" M 192.96 46.57 C 195.56 46.15 198.19 45.95 200.82 45.76 C 204.66 45.54 208.50 45.60 212.33 45.90 C 211.66 47.34 210.97 48.77 210.21 50.17 C 207.72 54.39 205.26 58.92 205.48 63.99 C 205.58 70.12 204.98 76.50 206.90 82.41 C 210.87 89.61 217.26 95.15 221.16 102.41 C 219.44 102.73 217.72 103.05 216.01 103.40 C 212.80 98.90 209.90 93.90 205.14 90.85 C 201.88 88.76 198.42 87.00 195.09 85.02 C 192.23 77.94 191.75 70.20 188.99 63.09 C 187.70 59.27 185.63 55.79 183.38 52.47 C 186.34 50.16 189.54 48.13 192.96 46.57 Z" />
</g>
<g id="#b9b7b8ff">
<path fill="#b9b7b8" opacity="1.00" d=" M 210.21 50.17 C 211.99 49.80 213.80 49.51 215.61 49.27 C 220.42 57.98 221.66 68.05 223.34 77.72 C 224.91 87.33 227.22 97.13 225.39 106.88 C 223.89 105.47 222.44 104.02 221.16 102.41 C 217.26 95.15 210.87 89.61 206.90 82.41 C 204.98 76.50 205.58 70.12 205.48 63.99 C 205.26 58.92 207.72 54.39 210.21 50.17 Z" />
</g>
<g id="#c0cbe4ff">
<path fill="#c0cbe4" opacity="1.00" d=" M 38.51 56.79 C 40.57 54.26 42.93 51.99 45.24 49.69 C 45.67 50.94 46.12 52.19 46.57 53.44 C 51.20 55.35 56.19 56.65 60.19 59.81 C 63.22 62.18 66.49 64.30 70.24 65.34 C 70.25 67.57 70.28 69.79 70.24 72.02 C 70.12 75.85 70.08 79.79 68.60 83.39 C 65.33 74.39 57.75 67.46 48.92 64.05 C 45.60 62.91 42.14 62.29 38.76 61.38 C 38.67 59.85 38.59 58.32 38.51 56.79 Z" />
</g>
<g id="#f59021ff">
<path fill="#f59021" opacity="1.00" d=" M 90.62 51.03 C 91.51 51.62 92.37 52.27 93.18 52.96 C 96.00 55.65 98.52 58.67 101.74 60.90 C 104.81 59.18 108.06 57.67 111.58 57.14 C 114.31 61.39 119.42 62.75 123.15 65.85 C 130.22 71.53 135.01 79.67 137.70 88.26 C 139.78 94.60 138.92 101.41 137.76 107.85 C 136.91 113.11 133.34 117.90 134.34 123.42 C 135.60 124.02 136.86 124.64 138.15 125.21 C 136.42 125.18 134.70 125.08 132.98 124.96 C 132.68 121.19 132.29 117.41 131.42 113.72 C 131.16 112.32 130.87 110.93 130.57 109.53 C 131.21 99.57 130.42 88.89 124.49 80.47 C 119.18 73.19 111.46 66.99 102.33 65.61 C 95.96 64.53 89.33 65.15 83.24 67.26 C 78.85 68.74 75.20 72.76 70.24 72.02 C 70.28 69.79 70.25 67.57 70.24 65.34 C 70.24 63.94 70.23 62.54 70.20 61.13 C 76.88 58.77 83.59 56.55 90.43 54.70 C 90.50 53.48 90.56 52.25 90.62 51.03 Z" />
</g>
<g id="#ef3b21ff">
<path fill="#ef3b21" opacity="1.00" d=" M 179.47 55.38 C 180.75 54.39 182.08 53.45 183.38 52.47 C 185.63 55.79 187.70 59.27 188.99 63.09 C 191.75 70.20 192.23 77.94 195.09 85.02 C 189.86 82.37 183.83 83.29 178.19 83.11 C 179.39 76.09 176.03 69.51 173.49 63.20 C 174.41 62.39 175.34 61.59 176.22 60.74 C 177.31 58.95 178.32 57.13 179.47 55.38 Z" />
</g>
<g id="#f48321ff">
<path fill="#f48321" opacity="1.00" d=" M 111.58 57.14 C 115.90 55.93 120.20 54.32 124.78 54.59 C 128.08 59.15 132.96 62.21 136.32 66.71 C 140.04 71.61 142.95 77.11 145.12 82.87 C 146.98 87.60 146.89 92.74 147.30 97.73 C 148.65 97.65 150.00 97.57 151.35 97.48 C 149.15 102.01 146.51 106.35 144.80 111.10 C 143.84 116.24 144.42 121.52 144.48 126.71 L 143.60 126.36 C 143.59 125.99 143.56 125.25 143.54 124.88 C 143.41 121.41 143.41 117.94 143.42 114.47 C 143.22 114.46 142.81 114.44 142.61 114.44 C 142.64 117.97 142.61 121.50 142.30 125.02 C 140.92 125.16 139.53 125.23 138.15 125.21 C 136.86 124.64 135.60 124.02 134.34 123.42 C 133.34 117.90 136.91 113.11 137.76 107.85 C 138.92 101.41 139.78 94.60 137.70 88.26 C 135.01 79.67 130.22 71.53 123.15 65.85 C 119.42 62.75 114.31 61.39 111.58 57.14 Z" />
</g>
<g id="#f37420ff">
<path fill="#f37420" opacity="1.00" d=" M 124.78 54.59 C 126.06 54.53 127.35 54.44 128.63 54.34 C 132.65 54.34 136.67 54.47 140.70 54.51 C 143.93 60.42 148.68 65.38 151.49 71.55 C 154.46 76.79 155.22 82.83 157.14 88.46 C 158.97 88.29 160.80 88.13 162.63 87.90 C 159.04 91.31 154.15 93.25 151.35 97.48 C 150.00 97.57 148.65 97.65 147.30 97.73 C 146.89 92.74 146.98 87.60 145.12 82.87 C 142.95 77.11 140.04 71.61 136.32 66.71 C 132.96 62.21 128.08 59.15 124.78 54.59 Z" />
</g>
<g id="#f26320ff">
<path fill="#f26320" opacity="1.00" d=" M 140.70 54.51 C 147.91 54.94 155.66 53.26 162.39 56.55 C 160.53 56.84 158.68 57.21 156.83 57.57 C 157.77 60.30 159.19 62.81 160.68 65.28 C 164.29 71.48 166.00 78.57 166.69 85.66 C 165.31 86.36 163.97 87.13 162.63 87.90 C 160.80 88.13 158.97 88.29 157.14 88.46 C 155.22 82.83 154.46 76.79 151.49 71.55 C 148.68 65.38 143.93 60.42 140.70 54.51 Z" />
</g>
<g id="#cdd5e9ff">
<path fill="#cdd5e9" opacity="1.00" d=" M 32.82 64.99 C 34.47 62.10 36.45 59.41 38.51 56.79 C 38.59 58.32 38.67 59.85 38.76 61.38 C 42.14 62.29 45.60 62.91 48.92 64.05 C 57.75 67.46 65.33 74.39 68.60 83.39 C 68.18 84.63 67.76 85.89 67.42 87.16 C 65.02 88.32 63.22 90.30 61.56 92.33 C 63.84 86.79 59.29 81.93 55.80 78.19 C 49.70 71.95 40.91 69.42 32.35 69.76 C 32.49 68.16 32.61 66.57 32.82 64.99 Z" />
</g>
<g id="#f15120ff">
<path fill="#f15120" opacity="1.00" d=" M 156.83 57.57 C 158.68 57.21 160.53 56.84 162.39 56.55 C 166.95 58.09 171.53 59.62 176.22 60.74 C 175.34 61.59 174.41 62.39 173.49 63.20 C 176.03 69.51 179.39 76.09 178.19 83.11 C 174.21 83.10 170.34 84.16 166.69 85.66 C 166.00 78.57 164.29 71.48 160.68 65.28 C 159.19 62.81 157.77 60.30 156.83 57.57 Z" />
</g>
<g id="#334c61ff">
<path fill="#334c61" opacity="1.00" d=" M 236.36 58.72 C 240.57 61.08 242.87 65.44 244.50 69.81 C 243.84 71.23 243.19 72.66 242.55 74.10 C 240.35 69.03 238.37 63.87 236.36 58.72 Z" />
</g>
<g id="#d8dfefff">
<path fill="#d8dfef" opacity="1.00" d=" M 25.67 80.79 C 27.02 75.10 29.70 69.90 32.82 64.99 C 32.61 66.57 32.49 68.16 32.35 69.76 C 40.91 69.42 49.70 71.95 55.80 78.19 C 59.29 81.93 63.84 86.79 61.56 92.33 C 60.86 93.23 60.16 94.13 59.48 95.04 C 55.76 91.20 53.52 86.04 49.09 82.88 C 42.72 77.50 32.78 75.95 25.67 80.79 Z" />
</g>
<g id="#f7a322ff">
<path fill="#f7a322" opacity="1.00" d=" M 83.24 67.26 C 89.33 65.15 95.96 64.53 102.33 65.61 C 111.46 66.99 119.18 73.19 124.49 80.47 C 130.42 88.89 131.21 99.57 130.57 109.53 C 128.13 104.51 126.12 99.06 122.06 95.07 C 114.95 88.55 106.16 82.36 96.02 83.07 C 90.53 83.52 84.17 81.85 79.51 85.58 C 75.10 88.50 69.98 90.39 66.25 94.29 C 66.75 91.93 67.05 89.54 67.42 87.16 C 67.76 85.89 68.18 84.63 68.60 83.39 C 70.08 79.79 70.12 75.85 70.24 72.02 C 75.20 72.76 78.85 68.74 83.24 67.26 Z" />
</g>
<g id="#092c49ff">
<path fill="#092c49" opacity="1.00" d=" M 242.55 74.10 C 243.19 72.66 243.84 71.23 244.50 69.81 C 248.88 80.78 254.94 91.17 257.28 102.88 C 260.07 109.53 261.24 116.64 262.92 123.62 C 262.11 135.98 263.33 148.40 262.34 160.76 C 259.97 172.83 256.73 184.94 250.77 195.79 C 243.27 210.23 232.73 223.37 219.26 232.63 C 218.91 229.36 218.97 226.03 219.82 222.84 C 221.33 217.06 221.78 211.04 223.70 205.37 C 230.10 198.19 236.29 190.78 241.27 182.52 C 244.55 176.10 246.61 169.13 248.38 162.16 C 249.42 157.79 251.44 153.60 251.53 149.04 C 251.78 137.03 251.66 125.01 251.58 113.00 C 251.72 107.24 249.27 101.87 248.69 96.19 C 246.97 88.75 245.43 81.19 242.55 74.10 Z" />
<path fill="#092c49" opacity="1.00" d=" M 193.97 223.10 C 196.76 222.22 200.15 219.90 202.87 222.14 C 208.03 225.75 211.72 231.07 217.02 234.53 C 210.25 239.89 202.41 243.60 194.65 247.28 C 192.69 242.88 193.70 237.28 190.13 233.67 C 188.42 231.73 187.00 229.56 185.53 227.45 C 188.40 226.10 191.26 224.75 193.97 223.10 Z" />
</g>
<g id="#e4e9f4ff">
<path fill="#e4e9f4" opacity="1.00" d=" M 25.67 80.79 C 32.78 75.95 42.72 77.50 49.09 82.88 C 53.52 86.04 55.76 91.20 59.48 95.04 C 56.96 99.62 54.43 104.20 51.61 108.59 C 51.37 108.82 50.88 109.27 50.64 109.50 C 49.98 104.20 50.98 98.10 47.32 93.68 C 44.30 90.20 40.34 87.29 35.86 86.08 C 32.19 86.11 28.65 87.71 25.61 89.67 C 22.80 92.14 21.65 95.89 19.97 99.13 C 19.64 92.43 23.28 86.75 25.67 80.79 Z" />
</g>
<g id="#fefefeff">
<path fill="#fefefe" opacity="1.00" d=" M 79.51 85.58 C 84.17 81.85 90.53 83.52 96.02 83.07 C 106.16 82.36 114.95 88.55 122.06 95.07 C 126.12 99.06 128.13 104.51 130.57 109.53 C 130.87 110.93 131.16 112.32 131.42 113.72 C 131.49 117.73 131.32 121.75 131.01 125.75 C 124.67 129.71 117.27 134.37 116.29 142.53 C 115.90 145.87 115.91 149.23 116.02 152.59 C 114.38 153.42 112.80 154.35 111.19 155.24 C 105.80 156.62 100.41 158.23 94.87 158.82 C 85.98 158.45 77.38 155.56 69.67 151.18 C 63.58 145.33 57.56 138.23 56.57 129.53 C 56.34 122.49 55.97 115.33 57.52 108.40 C 59.29 103.09 63.09 98.81 66.25 94.29 C 69.98 90.39 75.10 88.50 79.51 85.58 M 94.49 107.59 C 90.61 109.83 86.76 112.63 84.60 116.67 C 82.81 119.82 83.05 123.60 83.16 127.10 C 83.43 133.45 88.15 138.61 93.35 141.74 C 98.11 142.89 103.15 142.57 108.00 142.18 C 114.10 140.95 117.67 135.11 119.81 129.74 C 122.72 120.31 116.31 109.56 106.95 107.01 C 102.85 106.49 98.43 106.15 94.49 107.59 Z" />
<path fill="#fefefe" opacity="1.00" d=" M 166.69 85.66 C 170.34 84.16 174.21 83.10 178.19 83.11 C 183.83 83.29 189.86 82.37 195.09 85.02 C 198.42 87.00 201.88 88.76 205.14 90.85 C 209.90 93.90 212.80 98.90 216.01 103.40 C 220.42 111.50 219.86 121.19 218.97 130.07 C 218.71 137.35 212.71 142.32 209.68 148.47 C 204.84 151.50 200.12 154.74 195.10 157.48 C 193.35 158.02 191.60 158.55 189.84 159.06 C 179.51 160.70 168.55 158.69 159.82 152.82 C 159.36 148.19 160.61 143.08 158.08 138.89 C 157.06 137.05 155.79 135.35 154.52 133.68 C 152.12 130.21 148.37 128.10 144.48 126.71 C 144.42 121.52 143.84 116.24 144.80 111.10 C 146.51 106.35 149.15 102.01 151.35 97.48 C 154.15 93.25 159.04 91.31 162.63 87.90 C 163.97 87.13 165.31 86.36 166.69 85.66 M 182.44 107.53 C 178.44 109.59 174.22 112.43 172.89 116.98 C 171.70 120.44 169.69 124.11 171.07 127.83 C 172.53 131.99 173.98 136.65 177.74 139.32 C 183.35 143.77 191.12 142.70 197.72 141.86 C 202.95 138.83 208.51 133.64 207.97 127.05 C 207.72 123.08 208.88 118.29 205.83 115.12 C 203.31 112.39 200.91 109.36 197.69 107.44 C 192.73 106.42 187.34 106.09 182.44 107.53 Z" />
</g>
<g id="#6161618a">
<path fill="#616161" opacity="0.54" d=" M 269.38 84.43 C 273.21 89.71 275.25 96.30 275.96 102.74 C 275.76 104.39 276.45 105.21 278.03 105.18 C 277.86 108.60 277.86 112.20 280.00 115.07 L 280.00 118.39 C 279.49 118.29 278.48 118.11 277.98 118.02 C 277.77 106.29 272.56 95.51 269.38 84.43 Z" />
</g>
<g id="#f1f4f9ff">
<path fill="#f1f4f9" opacity="1.00" d=" M 25.61 89.67 C 28.65 87.71 32.19 86.11 35.86 86.08 C 40.34 87.29 44.30 90.20 47.32 93.68 C 50.98 98.10 49.98 104.20 50.64 109.50 C 50.41 112.41 49.44 115.16 47.87 117.62 C 44.93 118.52 42.23 120.01 39.55 121.48 C 33.34 124.87 25.13 122.56 20.80 117.20 C 18.56 113.86 18.29 109.67 17.81 105.79 C 18.40 103.53 19.22 101.34 19.97 99.13 C 21.65 95.89 22.80 92.14 25.61 89.67 Z" />
<path fill="#f1f4f9" opacity="1.00" d=" M 142.61 114.44 C 142.81 114.44 143.22 114.46 143.42 114.47 C 143.41 117.94 143.41 121.41 143.54 124.88 C 143.23 124.92 142.61 124.99 142.30 125.02 C 142.61 121.50 142.64 117.97 142.61 114.44 Z" />
</g>
<g id="#f69e26ff">
<path fill="#f69e26" opacity="1.00" d=" M 61.56 92.33 C 63.22 90.30 65.02 88.32 67.42 87.16 C 67.05 89.54 66.75 91.93 66.25 94.29 C 63.09 98.81 59.29 103.09 57.52 108.40 C 55.97 115.33 56.34 122.49 56.57 129.53 C 51.32 125.82 55.70 118.40 52.24 113.70 C 51.07 112.20 51.29 110.34 51.61 108.59 C 54.43 104.20 56.96 99.62 59.48 95.04 C 60.16 94.13 60.86 93.23 61.56 92.33 Z" />
</g>
<g id="#bc141aff">
<path fill="#bc141a" opacity="1.00" d=" M 216.01 103.40 C 217.72 103.05 219.44 102.73 221.16 102.41 C 223.67 108.43 226.84 114.19 228.78 120.44 C 229.75 123.58 230.86 126.69 231.97 129.78 C 231.50 129.75 230.55 129.67 230.07 129.63 C 226.93 140.31 222.49 150.55 217.46 160.46 C 215.08 165.03 210.55 168.01 208.38 172.72 C 207.49 173.93 206.51 175.08 205.54 176.22 C 203.40 175.85 201.28 175.44 199.15 175.02 C 199.92 176.27 200.68 177.52 201.45 178.78 C 201.82 181.07 202.18 183.65 200.67 185.64 C 199.08 188.64 195.61 189.52 192.74 190.78 C 191.71 193.82 191.01 197.25 188.33 199.33 C 176.13 209.77 163.56 220.29 148.66 226.67 C 145.29 228.24 140.73 229.54 140.66 234.06 C 134.82 234.11 128.98 234.23 123.15 233.93 L 122.27 233.80 C 120.35 231.35 118.43 228.88 116.23 226.67 C 120.82 228.01 125.87 228.33 130.31 226.27 C 152.32 217.20 173.89 205.00 189.35 186.52 C 192.12 183.31 193.69 179.33 194.78 175.28 C 193.78 175.43 192.78 175.58 191.78 175.72 C 193.68 170.72 199.85 169.89 202.37 165.36 C 205.36 160.03 210.13 155.00 209.68 148.47 C 212.71 142.32 218.71 137.35 218.97 130.07 C 219.86 121.19 220.42 111.50 216.01 103.40 Z" />
</g>
<g id="#2d2c2c3a">
<path fill="#2d2c2c" opacity="0.23" d=" M 275.96 102.74 C 277.54 102.73 278.23 103.55 278.03 105.18 C 276.45 105.21 275.76 104.39 275.96 102.74 Z" />
</g>
<g id="#e1e6f2ff">
<path fill="#e1e6f2" opacity="1.00" d=" M 14.59 123.70 C 16.16 117.82 16.18 111.66 17.81 105.79 C 18.29 109.67 18.56 113.86 20.80 117.20 C 25.13 122.56 33.34 124.87 39.55 121.48 C 42.23 120.01 44.93 118.52 47.87 117.62 C 46.14 122.15 45.82 127.10 43.72 131.51 L 43.41 132.32 C 35.83 135.97 26.55 136.26 19.28 131.72 C 16.33 130.13 15.60 126.60 14.59 123.70 Z" />
</g>
<g id="#6362626b">
<path fill="#636262" opacity="0.42" d=" M 2.22 112.34 C 2.14 110.21 2.07 107.75 4.34 106.70 C 4.47 108.84 3.60 110.75 2.22 112.34 Z" />
</g>
<g id="#bebdbeff">
<path fill="#bebdbe" opacity="1.00" d=" M 94.49 107.59 C 98.43 106.15 102.85 106.49 106.95 107.01 C 116.31 109.56 122.72 120.31 119.81 129.74 C 117.67 135.11 114.10 140.95 108.00 142.18 C 103.15 142.57 98.11 142.89 93.35 141.74 C 88.15 138.61 83.43 133.45 83.16 127.10 C 83.05 123.60 82.81 119.82 84.60 116.67 C 86.76 112.63 90.61 109.83 94.49 107.59 M 89.28 123.97 C 89.39 126.53 88.53 130.33 91.75 131.27 C 92.21 132.40 93.03 133.33 93.86 134.21 C 97.02 139.20 106.26 139.74 109.36 134.39 C 111.36 131.57 114.26 128.79 113.78 125.01 C 114.49 120.18 110.58 116.28 106.66 114.18 C 103.15 113.01 99.35 113.80 95.72 113.83 C 92.08 115.79 88.91 119.61 89.28 123.97 Z" />
</g>
<g id="#bebebeff">
<path fill="#bebebe" opacity="1.00" d=" M 182.44 107.53 C 187.34 106.09 192.73 106.42 197.69 107.44 C 200.91 109.36 203.31 112.39 205.83 115.12 C 208.88 118.29 207.72 123.08 207.97 127.05 C 208.51 133.64 202.95 138.83 197.72 141.86 C 191.12 142.70 183.35 143.77 177.74 139.32 C 173.98 136.65 172.53 131.99 171.07 127.83 C 169.69 124.11 171.70 120.44 172.89 116.98 C 174.22 112.43 178.44 109.59 182.44 107.53 M 183.20 115.00 C 184.16 116.01 185.11 117.06 186.33 117.75 C 184.91 117.93 183.49 118.13 182.08 118.36 C 181.73 120.45 181.94 122.55 182.37 124.61 L 181.62 124.61 C 181.40 122.33 181.24 120.05 181.03 117.78 C 179.30 119.09 177.02 120.47 177.33 122.99 C 176.28 128.06 180.04 132.30 183.67 135.27 C 187.61 137.07 192.30 136.74 196.32 135.32 C 199.13 132.24 201.88 128.39 201.38 123.98 C 201.67 119.67 198.79 115.60 194.91 113.96 C 192.64 113.47 190.30 113.57 188.00 113.59 C 186.42 113.91 184.00 113.13 183.20 115.00 Z" />
</g>
<g id="#f48021ff">
<path fill="#f48021" opacity="1.00" d=" M 50.64 109.50 C 50.88 109.27 51.37 108.82 51.61 108.59 C 51.29 110.34 51.07 112.20 52.24 113.70 C 55.70 118.40 51.32 125.82 56.57 129.53 C 57.56 138.23 63.58 145.33 69.67 151.18 C 71.19 152.68 72.66 154.25 74.28 155.65 C 61.31 152.69 52.20 142.26 44.09 132.46 L 43.72 131.51 C 45.82 127.10 46.14 122.15 47.87 117.62 C 49.44 115.16 50.41 112.41 50.64 109.50 Z" />
</g>
<g id="#767070ff">
<path fill="#767070" opacity="1.00" d=" M 89.28 123.97 C 88.91 119.61 92.08 115.79 95.72 113.83 C 96.63 115.09 97.56 116.35 98.43 117.64 C 97.02 117.88 95.60 118.12 94.19 118.36 C 93.97 119.98 93.76 121.61 93.55 123.23 C 92.40 122.48 91.25 121.75 90.08 121.04 C 89.76 124.54 90.35 128.04 91.75 131.27 C 88.53 130.33 89.39 126.53 89.28 123.97 Z" />
<path fill="#767070" opacity="1.00" d=" M 91.61 226.61 C 98.61 220.92 108.98 222.04 116.23 226.67 C 118.43 228.88 120.35 231.35 122.27 233.80 C 122.25 239.99 124.77 248.28 118.48 252.33 C 117.82 251.16 117.13 250.03 116.45 248.89 C 117.45 248.70 118.46 248.52 119.46 248.34 C 121.21 241.59 119.70 233.47 113.77 229.22 C 109.11 225.38 102.46 224.50 96.93 226.92 C 90.45 229.33 86.08 236.12 86.47 243.01 C 86.71 245.83 86.65 249.71 89.84 250.83 C 90.74 251.55 91.55 252.37 92.39 253.15 C 91.06 253.44 89.74 253.76 88.43 254.14 C 88.33 254.54 88.14 255.36 88.04 255.77 C 87.70 257.31 87.38 258.87 87.04 260.42 C 88.03 253.06 83.42 246.31 84.70 238.98 C 85.21 234.08 88.62 230.26 91.61 226.61 Z" />
</g>
<g id="#231f20ff">
<path fill="#231f20" opacity="1.00" d=" M 95.72 113.83 C 99.35 113.80 103.15 113.01 106.66 114.18 C 110.58 116.28 114.49 120.18 113.78 125.01 C 114.26 128.79 111.36 131.57 109.36 134.39 C 104.28 135.81 98.87 136.07 93.86 134.21 C 93.03 133.33 92.21 132.40 91.75 131.27 C 90.35 128.04 89.76 124.54 90.08 121.04 C 91.25 121.75 92.40 122.48 93.55 123.23 C 94.89 124.47 96.62 124.72 98.38 124.66 C 99.47 122.44 100.33 119.72 98.43 117.64 C 97.56 116.35 96.63 115.09 95.72 113.83 Z" />
<path fill="#231f20" opacity="1.00" d=" M 183.20 115.00 C 184.00 113.13 186.42 113.91 188.00 113.59 C 190.30 113.57 192.64 113.47 194.91 113.96 C 198.79 115.60 201.67 119.67 201.38 123.98 C 201.88 128.39 199.13 132.24 196.32 135.32 C 192.30 136.74 187.61 137.07 183.67 135.27 C 180.04 132.30 176.28 128.06 177.33 122.99 C 177.02 120.47 179.30 119.09 181.03 117.78 C 181.24 120.05 181.40 122.33 181.62 124.61 L 182.37 124.61 C 183.42 124.61 184.46 124.62 185.51 124.62 C 187.76 123.12 189.77 119.14 186.33 117.75 C 185.11 117.06 184.16 116.01 183.20 115.00 Z" />
</g>
<g id="#b8b7b8ff">
<path fill="#b8b7b8" opacity="1.00" d=" M 131.42 113.72 C 132.29 117.41 132.68 121.19 132.98 124.96 C 134.70 125.08 136.42 125.18 138.15 125.21 C 139.53 125.23 140.92 125.16 142.30 125.02 C 142.61 124.99 143.23 124.92 143.54 124.88 C 143.56 125.25 143.59 125.99 143.60 126.36 C 143.24 126.65 142.53 127.24 142.17 127.53 C 145.01 130.86 148.97 133.59 150.07 138.07 C 151.92 143.78 149.48 150.23 145.15 154.14 C 140.97 157.41 135.03 159.17 129.93 157.08 C 126.43 155.62 122.85 153.47 121.22 149.89 C 119.94 147.21 118.62 144.47 116.29 142.53 C 117.27 134.37 124.67 129.71 131.01 125.75 C 131.32 121.75 131.49 117.73 131.42 113.72 M 131.33 130.33 C 124.57 131.86 120.18 140.33 123.31 146.65 C 124.74 150.99 129.00 153.66 133.21 154.79 C 139.87 155.43 147.33 150.11 147.18 143.01 C 147.96 134.88 139.16 127.69 131.33 130.33 Z" />
</g>
<g id="#2e2e2e33">
<path fill="#2e2e2e" opacity="0.20" d=" M 0.00 116.08 C 0.55 116.05 1.65 116.00 2.20 115.97 C 2.20 118.28 2.17 120.59 2.19 122.90 C 1.64 122.84 0.55 122.73 0.00 122.68 L 0.00 116.08 Z" />
</g>
<g id="#fcfcfcff">
<path fill="#fcfcfc" opacity="1.00" d=" M 94.19 118.36 C 95.60 118.12 97.02 117.88 98.43 117.64 C 100.33 119.72 99.47 122.44 98.38 124.66 C 96.62 124.72 94.89 124.47 93.55 123.23 C 93.76 121.61 93.97 119.98 94.19 118.36 Z" />
</g>
<g id="#fbfbfbff">
<path fill="#fbfbfb" opacity="1.00" d=" M 182.08 118.36 C 183.49 118.13 184.91 117.93 186.33 117.75 C 189.77 119.14 187.76 123.12 185.51 124.62 C 184.46 124.62 183.42 124.61 182.37 124.61 C 181.94 122.55 181.73 120.45 182.08 118.36 Z" />
</g>
<g id="#8a8a8ac4">
<path fill="#8a8a8a" opacity="0.77" d=" M 277.98 118.02 C 278.48 118.11 279.49 118.29 280.00 118.39 L 280.00 121.04 C 278.29 121.58 277.10 119.38 277.98 118.02 Z" />
</g>
<g id="#8080808c">
<path fill="#808080" opacity="0.55" d=" M 0.00 122.68 C 0.55 122.73 1.64 122.84 2.19 122.90 C 2.20 124.27 2.20 125.64 2.18 127.02 C 1.63 127.05 0.54 127.10 0.00 127.13 L 0.00 122.68 Z" />
</g>
<g id="#cfd7eaff">
<path fill="#cfd7ea" opacity="1.00" d=" M 12.44 150.39 C 11.36 141.49 12.54 132.39 14.59 123.70 C 15.60 126.60 16.33 130.13 19.28 131.72 C 26.55 136.26 35.83 135.97 43.41 132.32 C 41.60 137.25 41.22 142.55 41.27 147.76 C 36.57 146.88 31.78 147.07 27.03 146.90 C 22.85 146.75 19.01 144.93 15.13 143.57 C 14.62 144.94 14.10 146.32 13.59 147.70 C 13.31 148.37 12.73 149.72 12.44 150.39 Z" />
</g>
<g id="#848385ff">
<path fill="#848385" opacity="1.00" d=" M 262.92 123.62 C 264.30 126.55 265.48 129.65 265.37 132.94 C 265.31 139.98 265.51 147.02 265.27 154.06 C 263.41 170.11 259.50 186.24 251.38 200.35 C 246.90 207.71 242.31 215.08 236.32 221.31 C 230.37 228.12 223.09 233.52 215.91 238.92 C 208.94 244.04 200.73 246.98 193.26 251.24 C 193.75 249.92 194.21 248.60 194.65 247.28 C 202.41 243.60 210.25 239.89 217.02 234.53 C 217.76 233.89 218.51 233.26 219.26 232.63 C 232.73 223.37 243.27 210.23 250.77 195.79 C 256.73 184.94 259.97 172.83 262.34 160.76 C 263.33 148.40 262.11 135.98 262.92 123.62 Z" />
</g>
<g id="#afafafc3">
<path fill="#afafaf" opacity="0.76" d=" M 0.00 127.13 C 0.54 127.10 1.63 127.05 2.18 127.02 C 2.18 129.00 1.14 130.66 0.00 132.20 L 0.00 127.13 Z" />
</g>
<g id="#a5a3a3ff">
<path fill="#a5a3a3" opacity="1.00" d=" M 142.17 127.53 C 142.53 127.24 143.24 126.65 143.60 126.36 L 144.48 126.71 C 148.37 128.10 152.12 130.21 154.52 133.68 C 152.48 136.31 153.83 139.74 153.62 142.77 C 153.89 154.23 141.51 163.70 130.50 160.62 C 125.29 159.84 122.31 154.90 117.51 153.22 C 117.14 153.06 116.39 152.75 116.02 152.59 C 115.91 149.23 115.90 145.87 116.29 142.53 C 118.62 144.47 119.94 147.21 121.22 149.89 C 122.85 153.47 126.43 155.62 129.93 157.08 C 135.03 159.17 140.97 157.41 145.15 154.14 C 149.48 150.23 151.92 143.78 150.07 138.07 C 148.97 133.59 145.01 130.86 142.17 127.53 Z" />
</g>
<g id="#a61116ff">
<path fill="#a61116" opacity="1.00" d=" M 230.07 129.63 C 230.55 129.67 231.50 129.75 231.97 129.78 C 234.45 136.12 233.99 143.04 234.15 149.71 C 231.38 154.57 230.32 160.32 226.67 164.68 C 225.07 166.66 224.03 169.00 223.25 171.40 C 222.82 171.69 221.97 172.28 221.55 172.58 C 219.72 172.21 217.91 171.79 216.11 171.34 C 216.70 172.64 217.30 173.94 217.90 175.25 C 218.69 179.72 216.11 183.95 212.54 186.43 C 210.74 187.15 208.74 187.12 206.94 187.82 C 205.33 188.79 204.23 190.37 203.02 191.75 C 202.18 192.76 201.35 193.76 200.53 194.77 C 198.58 194.42 196.65 194.01 194.72 193.59 C 195.97 196.08 197.50 198.43 199.35 200.52 C 198.43 205.84 193.41 208.43 189.82 211.82 C 185.59 215.74 180.56 218.70 176.63 222.95 C 172.88 222.89 169.06 222.72 165.37 223.54 C 160.09 225.15 155.67 228.96 152.86 233.67 C 152.45 233.79 151.64 234.01 151.23 234.12 C 147.70 234.15 144.18 234.02 140.66 234.06 C 140.73 229.54 145.29 228.24 148.66 226.67 C 163.56 220.29 176.13 209.77 188.33 199.33 C 191.01 197.25 191.71 193.82 192.74 190.78 C 195.61 189.52 199.08 188.64 200.67 185.64 C 202.18 183.65 201.82 181.07 201.45 178.78 C 202.93 180.30 204.72 181.49 206.76 182.13 C 209.08 179.85 211.83 175.19 208.38 172.72 C 210.55 168.01 215.08 165.03 217.46 160.46 C 222.49 150.55 226.93 140.31 230.07 129.63 Z" />
</g>
<g id="#c9c8c8ff">
<path fill="#c9c8c8" opacity="1.00" d=" M 131.33 130.33 C 139.16 127.69 147.96 134.88 147.18 143.01 C 147.33 150.11 139.87 155.43 133.21 154.79 C 129.00 153.66 124.74 150.99 123.31 146.65 C 120.18 140.33 124.57 131.86 131.33 130.33 M 133.42 133.44 C 127.28 134.57 123.61 143.04 128.21 147.77 C 131.64 153.06 140.72 151.59 142.74 145.73 C 146.40 139.94 139.60 132.11 133.42 133.44 Z" />
</g>
<g id="#d3988bff">
<path fill="#d3988b" opacity="1.00" d=" M 43.41 132.32 L 43.72 131.51 L 44.09 132.46 C 44.19 137.93 42.15 143.12 41.89 148.56 C 41.59 154.19 41.18 159.94 42.63 165.46 C 43.50 168.68 43.76 172.01 43.89 175.33 C 43.03 172.93 42.07 170.56 41.47 168.08 C 41.23 165.00 41.25 161.91 41.25 158.83 C 41.31 155.14 41.33 151.45 41.27 147.76 C 41.22 142.55 41.60 137.25 43.41 132.32 Z" />
</g>
<g id="#f36c20ff">
<path fill="#f36c20" opacity="1.00" d=" M 44.09 132.46 C 52.20 142.26 61.31 152.69 74.28 155.65 C 79.29 156.69 83.68 160.06 88.93 159.90 C 92.97 159.96 97.02 160.01 101.06 159.75 C 104.90 159.61 108.01 157.09 111.19 155.24 C 112.80 154.35 114.38 153.42 116.02 152.59 C 116.39 152.75 117.14 153.06 117.51 153.22 C 118.19 155.60 118.98 157.95 120.18 160.13 C 119.46 161.66 118.82 163.48 117.00 164.00 C 108.07 167.42 98.65 170.19 88.99 170.06 C 81.78 170.03 74.77 168.10 67.87 166.19 C 62.04 164.65 57.00 161.22 51.98 158.02 C 47.96 155.60 45.48 151.48 41.89 148.56 C 42.15 143.12 44.19 137.93 44.09 132.46 Z" />
</g>
<g id="#d9d8d9ff">
<path fill="#d9d8d9" opacity="1.00" d=" M 133.42 133.44 C 139.60 132.11 146.40 139.94 142.74 145.73 C 140.72 151.59 131.64 153.06 128.21 147.77 C 123.61 143.04 127.28 134.57 133.42 133.44 Z" />
</g>
<g id="#827f80ff">
<path fill="#827f80" opacity="1.00" d=" M 93.86 134.21 C 98.87 136.07 104.28 135.81 109.36 134.39 C 106.26 139.74 97.02 139.20 93.86 134.21 Z" />
</g>
<g id="#8e8c8cff">
<path fill="#8e8c8c" opacity="1.00" d=" M 153.62 142.77 C 153.83 139.74 152.48 136.31 154.52 133.68 C 155.79 135.35 157.06 137.05 158.08 138.89 C 160.61 143.08 159.36 148.19 159.82 152.82 C 159.44 152.83 158.68 152.87 158.30 152.88 C 157.72 151.67 157.18 150.43 156.64 149.20 C 153.66 154.19 150.43 159.42 144.99 162.02 C 137.35 166.05 128.13 164.32 120.79 160.43 L 120.18 160.13 C 118.98 157.95 118.19 155.60 117.51 153.22 C 122.31 154.90 125.29 159.84 130.50 160.62 C 141.51 163.70 153.89 154.23 153.62 142.77 Z" />
</g>
<g id="#bdc8e2ff">
<path fill="#bdc8e2" opacity="1.00" d=" M 15.13 143.57 C 19.01 144.93 22.85 146.75 27.03 146.90 C 31.78 147.07 36.57 146.88 41.27 147.76 C 41.33 151.45 41.31 155.14 41.25 158.83 C 32.89 159.05 24.50 159.29 16.30 157.30 C 16.03 159.60 15.78 161.91 15.72 164.23 C 14.88 158.73 14.45 153.19 13.59 147.70 C 14.10 146.32 14.62 144.94 15.13 143.57 Z" />
</g>
<g id="#cecdceff">
<path fill="#cecdce" opacity="1.00" d=" M 12.44 150.39 C 12.73 149.72 13.31 148.37 13.59 147.70 C 14.45 153.19 14.88 158.73 15.72 164.23 C 16.30 169.09 17.58 173.82 19.19 178.44 C 19.86 180.68 20.55 182.92 21.36 185.13 C 22.42 187.90 23.44 190.70 24.27 193.56 C 26.52 205.67 35.27 215.09 39.97 226.19 C 36.11 226.91 32.40 225.09 28.56 224.92 C 25.84 221.77 22.75 218.73 21.57 214.60 C 21.96 212.99 21.33 212.09 19.70 211.90 C 12.56 201.40 8.25 189.28 4.74 177.16 C 4.94 175.34 5.21 173.53 5.40 171.72 C 8.36 174.98 10.02 180.06 14.81 181.02 C 14.32 170.79 12.46 160.66 12.44 150.39 Z" />
</g>
<g id="#acacacc3">
<path fill="#acacac" opacity="0.76" d=" M 0.00 147.95 C 1.52 149.98 2.47 152.33 2.21 154.92 C 1.66 154.91 0.55 154.90 0.00 154.89 L 0.00 147.95 Z" />
</g>
<g id="#f15c20ff">
<path fill="#f15c20" opacity="1.00" d=" M 41.89 148.56 C 45.48 151.48 47.96 155.60 51.98 158.02 C 57.00 161.22 62.04 164.65 67.87 166.19 C 74.77 168.10 81.78 170.03 88.99 170.06 C 98.65 170.19 108.07 167.42 117.00 164.00 C 118.82 163.48 119.46 161.66 120.18 160.13 L 120.79 160.43 C 121.99 162.53 122.97 164.75 123.78 167.02 C 123.60 168.87 124.50 171.45 122.59 172.63 C 120.21 174.21 117.36 174.86 114.68 175.74 C 108.56 177.52 102.46 180.03 95.97 179.68 C 95.79 178.20 95.61 176.73 95.42 175.25 C 93.24 175.98 91.34 177.27 89.68 178.83 C 88.50 178.91 87.32 178.99 86.14 179.08 C 84.50 177.13 83.03 175.05 81.61 172.94 C 81.56 174.09 81.51 175.24 81.53 176.39 C 80.63 177.70 79.74 179.03 78.86 180.36 C 78.18 179.11 77.52 177.86 76.82 176.64 C 75.64 173.86 72.76 176.15 70.74 176.53 C 69.61 175.29 68.48 174.04 67.36 172.80 C 66.52 171.98 65.45 171.46 64.40 170.95 C 64.35 172.61 64.32 174.28 64.31 175.95 C 62.56 175.34 60.81 174.74 59.07 174.12 C 59.69 173.07 60.28 172.00 60.86 170.93 C 58.43 171.50 55.98 172.98 53.45 172.52 C 51.14 170.87 49.98 168.08 48.21 165.91 C 48.34 168.23 48.47 170.55 48.79 172.85 C 47.51 174.09 46.22 175.32 45.03 176.65 L 44.55 177.37 C 44.38 176.86 44.05 175.84 43.89 175.33 C 43.76 172.01 43.50 168.68 42.63 165.46 C 41.18 159.94 41.59 154.19 41.89 148.56 Z" />
</g>
<g id="#747272ff">
<path fill="#747272" opacity="1.00" d=" M 144.99 162.02 C 150.43 159.42 153.66 154.19 156.64 149.20 C 157.18 150.43 157.72 151.67 158.30 152.88 C 157.29 154.93 156.34 157.00 155.30 159.04 C 150.36 162.09 145.65 165.97 139.74 166.89 C 134.68 168.31 129.58 165.86 124.50 166.94 L 123.78 167.02 C 122.97 164.75 121.99 162.53 120.79 160.43 C 128.13 164.32 137.35 166.05 144.99 162.02 Z" />
</g>
<g id="#d3171eff">
<path fill="#d3171e" opacity="1.00" d=" M 195.10 157.48 C 200.12 154.74 204.84 151.50 209.68 148.47 C 210.13 155.00 205.36 160.03 202.37 165.36 C 199.85 169.89 193.68 170.72 191.78 175.72 C 190.95 177.00 189.98 178.18 189.02 179.36 C 186.70 178.60 184.40 177.83 182.07 177.10 C 183.68 180.81 186.50 183.75 189.35 186.52 C 173.89 205.00 152.32 217.20 130.31 226.27 C 125.87 228.33 120.82 228.01 116.23 226.67 C 108.98 222.04 98.61 220.92 91.61 226.61 C 89.18 226.02 86.75 225.43 84.37 224.65 C 83.84 224.29 82.78 223.56 82.25 223.20 C 86.83 219.95 92.57 221.57 97.73 220.56 C 102.27 219.69 106.84 218.97 111.42 218.33 C 136.24 213.15 159.53 200.42 176.75 181.75 C 178.90 179.41 178.75 175.27 182.01 174.00 C 183.89 172.97 185.86 171.94 187.16 170.18 C 190.29 166.28 193.55 162.31 195.10 157.48 Z" />
</g>
<g id="#8d0e12ff">
<path fill="#8d0e12" opacity="1.00" d=" M 226.67 164.68 C 230.32 160.32 231.38 154.57 234.15 149.71 C 234.58 156.52 234.22 163.34 233.76 170.13 C 233.53 174.07 231.45 177.53 230.33 181.24 C 229.59 183.93 229.64 186.75 229.45 189.51 C 228.74 189.34 228.03 189.17 227.33 188.97 C 225.51 188.17 223.73 187.28 221.91 186.48 C 220.45 187.76 219.08 189.16 217.43 190.20 C 215.56 190.59 213.63 190.44 211.74 190.52 C 212.58 194.08 215.41 196.53 217.72 199.17 C 215.93 202.09 214.02 205.09 211.18 207.10 C 209.36 207.74 207.36 207.46 205.47 207.55 C 204.80 210.54 205.18 214.37 202.24 216.23 C 199.37 218.38 196.49 220.54 193.97 223.10 C 191.26 224.75 188.40 226.10 185.53 227.45 C 182.69 225.71 179.68 224.27 176.63 222.95 C 180.56 218.70 185.59 215.74 189.82 211.82 C 193.41 208.43 198.43 205.84 199.35 200.52 C 200.43 200.45 201.51 200.39 202.59 200.34 C 204.10 197.65 205.17 194.72 205.23 191.61 C 204.68 191.65 203.57 191.72 203.02 191.75 C 204.23 190.37 205.33 188.79 206.94 187.82 C 208.74 187.12 210.74 187.15 212.54 186.43 C 216.11 183.95 218.69 179.72 217.90 175.25 C 219.39 176.57 220.87 178.11 222.84 178.66 C 226.24 176.88 226.41 172.46 227.06 169.12 C 225.77 169.86 224.49 170.60 223.25 171.40 C 224.03 169.00 225.07 166.66 226.67 164.68 Z" />
</g>
<g id="#f9ba91ff">
<path fill="#f9ba91" opacity="1.00" d=" M 69.67 151.18 C 77.38 155.56 85.98 158.45 94.87 158.82 C 100.41 158.23 105.80 156.62 111.19 155.24 C 108.01 157.09 104.90 159.61 101.06 159.75 C 97.02 160.01 92.97 159.96 88.93 159.90 C 83.68 160.06 79.29 156.69 74.28 155.65 C 72.66 154.25 71.19 152.68 69.67 151.18 Z" />
</g>
<g id="#ee3021ff">
<path fill="#ee3021" opacity="1.00" d=" M 158.30 152.88 C 158.68 152.87 159.44 152.83 159.82 152.82 C 168.55 158.69 179.51 160.70 189.84 159.06 C 185.92 160.36 181.75 160.16 177.69 160.66 C 173.58 167.98 167.09 173.39 161.19 179.19 C 153.91 185.42 145.74 190.56 137.54 195.49 C 124.56 201.78 110.54 206.41 96.07 207.29 C 89.40 207.96 82.56 208.80 76.00 206.91 C 71.01 205.41 65.63 206.14 60.74 204.26 C 58.06 203.32 55.23 202.04 52.36 203.06 L 51.52 203.24 C 51.51 199.27 50.82 195.35 50.61 191.40 C 50.30 189.13 52.34 187.66 53.62 186.11 C 53.94 186.44 54.59 187.10 54.91 187.43 C 53.74 191.17 54.86 195.10 58.10 197.41 C 60.73 196.05 63.01 194.15 65.14 192.12 C 65.19 192.77 65.28 194.08 65.33 194.73 C 66.94 194.71 68.56 194.69 70.17 194.66 C 71.62 196.56 72.77 198.67 73.71 200.86 C 76.59 200.51 78.69 198.36 80.87 196.67 C 91.07 197.56 101.40 196.74 111.35 194.37 C 119.18 192.21 126.72 189.00 133.85 185.10 C 135.34 187.26 136.31 189.70 137.12 192.18 C 138.65 190.15 139.72 187.83 140.58 185.45 C 142.02 181.60 144.67 178.41 146.72 174.90 C 149.72 169.69 152.89 164.56 155.30 159.04 C 156.34 157.00 157.29 154.93 158.30 152.88 Z" />
</g>
<g id="#68686876">
<path fill="#686868" opacity="0.46" d=" M 0.00 154.89 C 0.55 154.90 1.66 154.91 2.21 154.92 C 2.21 155.64 2.20 157.09 2.20 157.82 C 2.18 158.29 2.13 159.24 2.11 159.71 C 1.58 159.80 0.53 159.99 0.00 160.08 L 0.00 154.89 Z" />
</g>
<g id="#abbadaff">
<path fill="#abbada" opacity="1.00" d=" M 16.30 157.30 C 24.50 159.29 32.89 159.05 41.25 158.83 C 41.25 161.91 41.23 165.00 41.47 168.08 C 40.20 169.07 38.96 170.31 37.26 170.48 C 31.35 171.47 25.36 170.36 19.41 170.55 C 19.21 173.17 19.07 175.80 19.19 178.44 C 17.58 173.82 16.30 169.09 15.72 164.23 C 15.78 161.91 16.03 159.60 16.30 157.30 Z" />
</g>
<g id="#bdbdbddc">
<path fill="#bdbdbd" opacity="0.86" d=" M 2.20 157.82 C 3.30 162.44 5.42 166.88 5.40 171.72 C 5.21 173.53 4.94 175.34 4.74 177.16 C 3.53 172.84 1.55 168.64 2.01 164.03 C 2.02 162.59 2.05 161.15 2.11 159.71 C 2.13 159.24 2.18 158.29 2.20 157.82 Z" />
</g>
<g id="#eb1c22ff">
<path fill="#eb1c22" opacity="1.00" d=" M 189.84 159.06 C 191.60 158.55 193.35 158.02 195.10 157.48 C 193.55 162.31 190.29 166.28 187.16 170.18 C 185.86 171.94 183.89 172.97 182.01 174.00 C 178.75 175.27 178.90 179.41 176.75 181.75 C 159.53 200.42 136.24 213.15 111.42 218.33 C 106.84 218.97 102.27 219.69 97.73 220.56 C 92.57 221.57 86.83 219.95 82.25 223.20 C 80.02 222.36 77.76 220.99 75.31 221.18 C 70.26 224.47 65.60 228.40 61.25 232.57 C 59.84 230.62 58.44 228.65 57.28 226.54 C 55.49 218.75 53.98 210.90 52.36 203.06 C 55.23 202.04 58.06 203.32 60.74 204.26 C 65.63 206.14 71.01 205.41 76.00 206.91 C 82.56 208.80 89.40 207.96 96.07 207.29 C 110.54 206.41 124.56 201.78 137.54 195.49 C 145.74 190.56 153.91 185.42 161.19 179.19 C 167.09 173.39 173.58 167.98 177.69 160.66 C 181.75 160.16 185.92 160.36 189.84 159.06 M 59.21 205.88 C 58.49 209.76 60.53 213.28 61.72 216.82 C 65.64 215.68 69.73 212.28 70.13 208.00 C 67.78 209.17 65.13 210.95 62.45 209.61 C 61.36 208.37 60.36 207.06 59.21 205.88 Z" />
</g>
<g id="#555152ff">
<path fill="#555152" opacity="1.00" d=" M 139.74 166.89 C 145.65 165.97 150.36 162.09 155.30 159.04 C 152.89 164.56 149.72 169.69 146.72 174.90 C 144.67 178.41 142.02 181.60 140.58 185.45 C 139.72 187.83 138.65 190.15 137.12 192.18 C 136.31 189.70 135.34 187.26 133.85 185.10 C 132.74 183.13 131.94 181.00 131.00 178.95 C 128.90 174.91 126.38 171.10 124.50 166.94 C 129.58 165.86 134.68 168.31 139.74 166.89 Z" />
</g>
<g id="#2d2d2d34">
<path fill="#2d2d2d" opacity="0.20" d=" M 0.00 160.08 C 0.53 159.99 1.58 159.80 2.11 159.71 C 2.05 161.15 2.02 162.59 2.01 164.03 C 1.51 164.06 0.50 164.12 0.00 164.16 L 0.00 160.08 Z" />
</g>
<g id="#7f7e7eb4">
<path fill="#7f7e7e" opacity="0.71" d=" M 277.85 164.00 C 277.95 162.11 279.05 160.56 280.00 159.01 L 280.00 164.18 C 279.46 164.13 278.39 164.04 277.85 164.00 Z" />
</g>
<g id="#2e2e2e42">
<path fill="#2e2e2e" opacity="0.26" d=" M 277.85 164.00 C 278.39 164.04 279.46 164.13 280.00 164.18 L 280.00 169.10 C 279.47 169.11 278.40 169.11 277.87 169.11 C 277.87 167.41 277.83 165.70 277.85 164.00 Z" />
</g>
<g id="#8b2c11ff">
<path fill="#8b2c11" opacity="1.00" d=" M 48.21 165.91 C 49.98 168.08 51.14 170.87 53.45 172.52 C 55.98 172.98 58.43 171.50 60.86 170.93 C 60.28 172.00 59.69 173.07 59.07 174.12 C 57.31 175.91 55.35 177.50 53.60 179.30 C 51.71 177.38 50.03 175.24 48.79 172.85 C 48.47 170.55 48.34 168.23 48.21 165.91 Z" />
</g>
<g id="#f04b20ff">
<path fill="#f04b20" opacity="1.00" d=" M 123.78 167.02 L 124.50 166.94 C 126.38 171.10 128.90 174.91 131.00 178.95 C 122.92 181.55 115.11 185.03 106.76 186.75 C 94.77 189.57 82.04 190.13 70.07 186.87 C 64.08 185.23 57.95 183.85 52.31 181.17 C 52.73 180.54 53.16 179.91 53.60 179.30 C 55.35 177.50 57.31 175.91 59.07 174.12 C 60.81 174.74 62.56 175.34 64.31 175.95 C 64.32 174.28 64.35 172.61 64.40 170.95 C 65.45 171.46 66.52 171.98 67.36 172.80 C 66.99 173.18 66.24 173.94 65.86 174.31 C 66.42 176.90 67.46 179.34 68.65 181.70 C 72.14 181.80 74.27 178.52 76.82 176.64 C 77.52 177.86 78.18 179.11 78.86 180.36 C 79.74 179.03 80.63 177.70 81.53 176.39 C 83.17 179.58 83.17 183.67 86.10 186.07 C 88.85 184.59 91.45 182.37 92.08 179.15 C 91.48 179.07 90.28 178.91 89.68 178.83 C 91.34 177.27 93.24 175.98 95.42 175.25 C 95.61 176.73 95.79 178.20 95.97 179.68 C 102.46 180.03 108.56 177.52 114.68 175.74 C 117.36 174.86 120.21 174.21 122.59 172.63 C 124.50 171.45 123.60 168.87 123.78 167.02 Z" />
</g>
<g id="#98abd1ff">
<path fill="#98abd1" opacity="1.00" d=" M 41.47 168.08 C 42.07 170.56 43.03 172.93 43.89 175.33 C 44.05 175.84 44.38 176.86 44.55 177.37 C 43.91 182.05 38.96 182.98 35.03 182.98 C 30.45 183.40 25.15 181.72 21.36 185.13 C 20.55 182.92 19.86 180.68 19.19 178.44 C 19.07 175.80 19.21 173.17 19.41 170.55 C 25.36 170.36 31.35 171.47 37.26 170.48 C 38.96 170.31 40.20 169.07 41.47 168.08 Z" />
</g>
<g id="#5f090bff">
<path fill="#5f090b" opacity="1.00" d=" M 223.25 171.40 C 224.49 170.60 225.77 169.86 227.06 169.12 C 226.41 172.46 226.24 176.88 222.84 178.66 C 220.87 178.11 219.39 176.57 217.90 175.25 C 217.30 173.94 216.70 172.64 216.11 171.34 C 217.91 171.79 219.72 172.21 221.55 172.58 C 221.97 172.28 222.82 171.69 223.25 171.40 Z" />
</g>
<g id="#ef3f20ff">
<path fill="#ef3f20" opacity="1.00" d=" M 45.03 176.65 C 46.22 175.32 47.51 174.09 48.79 172.85 C 50.03 175.24 51.71 177.38 53.60 179.30 C 53.16 179.91 52.73 180.54 52.31 181.17 C 57.95 183.85 64.08 185.23 70.07 186.87 C 82.04 190.13 94.77 189.57 106.76 186.75 C 115.11 185.03 122.92 181.55 131.00 178.95 C 131.94 181.00 132.74 183.13 133.85 185.10 C 126.72 189.00 119.18 192.21 111.35 194.37 C 101.40 196.74 91.07 197.56 80.87 196.67 C 81.11 195.47 81.34 194.27 81.57 193.08 C 79.50 193.70 77.42 194.28 75.31 194.77 C 73.61 193.15 71.94 191.49 70.28 189.82 C 70.23 191.43 70.19 193.05 70.17 194.66 C 68.56 194.69 66.94 194.71 65.33 194.73 C 65.28 194.08 65.19 192.77 65.14 192.12 C 65.16 190.86 65.26 189.60 65.36 188.35 C 63.59 189.43 61.80 190.50 60.01 191.55 C 58.20 190.32 56.47 188.97 54.91 187.43 C 54.59 187.10 53.94 186.44 53.62 186.11 C 52.34 187.66 50.30 189.13 50.61 191.40 C 50.82 195.35 51.51 199.27 51.52 203.24 C 50.68 199.99 49.96 196.69 48.75 193.55 C 47.04 188.03 45.91 182.35 45.03 176.65 Z" />
</g>
<g id="#882c10ff">
<path fill="#882c10" opacity="1.00" d=" M 65.86 174.31 C 66.24 173.94 66.99 173.18 67.36 172.80 C 68.48 174.04 69.61 175.29 70.74 176.53 C 72.76 176.15 75.64 173.86 76.82 176.64 C 74.27 178.52 72.14 181.80 68.65 181.70 C 67.46 179.34 66.42 176.90 65.86 174.31 Z" />
</g>
<g id="#892c11ff">
<path fill="#892c11" opacity="1.00" d=" M 81.53 176.39 C 81.51 175.24 81.56 174.09 81.61 172.94 C 83.03 175.05 84.50 177.13 86.14 179.08 C 87.32 178.99 88.50 178.91 89.68 178.83 C 90.28 178.91 91.48 179.07 92.08 179.15 C 91.45 182.37 88.85 184.59 86.10 186.07 C 83.17 183.67 83.17 179.58 81.53 176.39 Z" />
</g>
<g id="#6e0c0eff">
<path fill="#6e0c0e" opacity="1.00" d=" M 208.38 172.72 C 211.83 175.19 209.08 179.85 206.76 182.13 C 204.72 181.49 202.93 180.30 201.45 178.78 C 200.68 177.52 199.92 176.27 199.15 175.02 C 201.28 175.44 203.40 175.85 205.54 176.22 C 206.51 175.08 207.49 173.93 208.38 172.72 Z" />
</g>
<g id="#790d10ff">
<path fill="#790d10" opacity="1.00" d=" M 191.78 175.72 C 192.78 175.58 193.78 175.43 194.78 175.28 C 193.69 179.33 192.12 183.31 189.35 186.52 C 186.50 183.75 183.68 180.81 182.07 177.10 C 184.40 177.83 186.70 178.60 189.02 179.36 C 189.98 178.18 190.95 177.00 191.78 175.72 Z" />
</g>
<g id="#859cc8ff">
<path fill="#859cc8" opacity="1.00" d=" M 44.55 177.37 L 45.03 176.65 C 45.91 182.35 47.04 188.03 48.75 193.55 C 42.88 195.35 36.61 195.13 30.73 196.81 C 27.99 198.39 30.15 202.00 30.58 204.32 C 28.48 200.73 26.43 197.11 24.27 193.56 C 23.44 190.70 22.42 187.90 21.36 185.13 C 25.15 181.72 30.45 183.40 35.03 182.98 C 38.96 182.98 43.91 182.05 44.55 177.37 Z" />
</g>
<g id="#6e0a0dff">
<path fill="#6e0a0d" opacity="1.00" d=" M 217.43 190.20 C 219.08 189.16 220.45 187.76 221.91 186.48 C 223.73 187.28 225.51 188.17 227.33 188.97 C 227.28 194.63 225.31 200.01 223.70 205.37 C 221.78 211.04 221.33 217.06 219.82 222.84 C 218.97 226.03 218.91 229.36 219.26 232.63 C 218.51 233.26 217.76 233.89 217.02 234.53 C 211.72 231.07 208.03 225.75 202.87 222.14 C 200.15 219.90 196.76 222.22 193.97 223.10 C 196.49 220.54 199.37 218.38 202.24 216.23 C 205.18 214.37 204.80 210.54 205.47 207.55 C 207.36 207.46 209.36 207.74 211.18 207.10 C 214.02 205.09 215.93 202.09 217.72 199.17 C 215.41 196.53 212.58 194.08 211.74 190.52 C 213.63 190.44 215.56 190.59 217.43 190.20 M 207.94 210.47 C 209.34 213.07 211.18 215.48 213.83 216.89 C 215.63 214.27 217.01 211.29 216.88 208.04 C 213.98 209.15 211.10 210.41 207.94 210.47 Z" />
</g>
<g id="#8f2013ff">
<path fill="#8f2013" opacity="1.00" d=" M 58.10 197.41 C 54.86 195.10 53.74 191.17 54.91 187.43 C 56.47 188.97 58.20 190.32 60.01 191.55 C 61.80 190.50 63.59 189.43 65.36 188.35 C 65.26 189.60 65.16 190.86 65.14 192.12 C 63.01 194.15 60.73 196.05 58.10 197.41 Z" />
</g>
<g id="#8b1f12ff">
<path fill="#8b1f12" opacity="1.00" d=" M 70.28 189.82 C 71.94 191.49 73.61 193.15 75.31 194.77 C 77.42 194.28 79.50 193.70 81.57 193.08 C 81.34 194.27 81.11 195.47 80.87 196.67 C 78.69 198.36 76.59 200.51 73.71 200.86 C 72.77 198.67 71.62 196.56 70.17 194.66 C 70.19 193.05 70.23 191.43 70.28 189.82 Z" />
</g>
<g id="#64090cff">
<path fill="#64090c" opacity="1.00" d=" M 203.02 191.75 C 203.57 191.72 204.68 191.65 205.23 191.61 C 205.17 194.72 204.10 197.65 202.59 200.34 C 201.51 200.39 200.43 200.45 199.35 200.52 C 197.50 198.43 195.97 196.08 194.72 193.59 C 196.65 194.01 198.58 194.42 200.53 194.77 C 201.35 193.76 202.18 192.76 203.02 191.75 Z" />
</g>
<g id="#bab9b9ff">
<path fill="#bab9b9" opacity="1.00" d=" M 24.27 193.56 C 26.43 197.11 28.48 200.73 30.58 204.32 C 33.95 209.86 36.96 215.79 41.92 220.12 C 44.28 222.36 46.48 224.79 48.06 227.66 C 51.77 236.77 62.18 240.47 67.11 248.67 C 61.20 249.69 55.30 248.38 49.48 247.45 C 41.84 240.63 34.18 233.55 28.56 224.92 C 32.40 225.09 36.11 226.91 39.97 226.19 C 35.27 215.09 26.52 205.67 24.27 193.56 Z" />
</g>
<g id="#6f8cbeff">
<path fill="#6f8cbe" opacity="1.00" d=" M 30.73 196.81 C 36.61 195.13 42.88 195.35 48.75 193.55 C 49.96 196.69 50.68 199.99 51.52 203.24 C 51.81 205.27 51.90 207.31 51.96 209.36 C 47.39 210.04 42.68 210.18 38.32 211.84 C 39.45 214.63 40.56 217.43 41.92 220.12 C 36.96 215.79 33.95 209.86 30.58 204.32 C 30.15 202.00 27.99 198.39 30.73 196.81 Z" />
</g>
<g id="#557ab1ff">
<path fill="#557ab1" opacity="1.00" d=" M 51.52 203.24 L 52.36 203.06 C 53.98 210.90 55.49 218.75 57.28 226.54 C 57.11 229.13 56.84 231.72 56.59 234.31 C 53.72 232.13 50.80 229.99 48.06 227.66 C 46.48 224.79 44.28 222.36 41.92 220.12 C 40.56 217.43 39.45 214.63 38.32 211.84 C 42.68 210.18 47.39 210.04 51.96 209.36 C 51.90 207.31 51.81 205.27 51.52 203.24 Z" />
</g>
<g id="#8c1013ff">
<path fill="#8c1013" opacity="1.00" d=" M 59.21 205.88 C 60.36 207.06 61.36 208.37 62.45 209.61 C 65.13 210.95 67.78 209.17 70.13 208.00 C 69.73 212.28 65.64 215.68 61.72 216.82 C 60.53 213.28 58.49 209.76 59.21 205.88 Z" />
</g>
<g id="#4d0708ff">
<path fill="#4d0708" opacity="1.00" d=" M 207.94 210.47 C 211.10 210.41 213.98 209.15 216.88 208.04 C 217.01 211.29 215.63 214.27 213.83 216.89 C 211.18 215.48 209.34 213.07 207.94 210.47 Z" />
</g>
<g id="#9b9b9bc5">
<path fill="#9b9b9b" opacity="0.77" d=" M 19.70 211.90 C 21.33 212.09 21.96 212.99 21.57 214.60 C 20.01 214.37 19.38 213.47 19.70 211.90 Z" />
</g>
<g id="#3c67a2ff">
<path fill="#3c67a2" opacity="1.00" d=" M 61.25 232.57 C 65.60 228.40 70.26 224.47 75.31 221.18 C 77.76 220.99 80.02 222.36 82.25 223.20 C 82.78 223.56 83.84 224.29 84.37 224.65 C 85.63 225.70 86.83 226.83 88.03 227.95 C 87.14 229.03 86.23 230.12 85.38 231.25 C 79.50 233.06 73.61 235.06 68.26 238.15 C 68.67 239.86 69.09 241.56 69.53 243.26 C 65.76 241.09 62.14 238.64 58.72 235.94 C 59.54 234.80 60.36 233.66 61.25 232.57 Z" />
</g>
<g id="#767273ff">
<path fill="#767273" opacity="1.00" d=" M 152.86 233.67 C 155.67 228.96 160.09 225.15 165.37 223.54 C 169.06 222.72 172.88 222.89 176.63 222.95 C 179.68 224.27 182.69 225.71 185.53 227.45 C 187.00 229.56 188.42 231.73 190.13 233.67 C 190.15 237.77 190.49 241.89 190.08 245.98 C 189.76 249.11 187.76 251.67 186.10 254.21 C 185.67 254.21 184.81 254.21 184.38 254.21 C 182.18 254.00 179.99 253.72 177.78 253.60 C 180.09 252.53 182.34 251.32 184.40 249.83 C 188.60 246.96 188.48 241.26 187.00 236.94 C 184.34 230.35 177.38 225.42 170.15 226.18 C 159.54 226.41 151.85 238.99 156.20 248.61 C 157.50 248.16 158.81 247.71 160.09 247.22 C 158.91 248.49 157.75 249.79 156.64 251.13 C 155.54 250.99 154.45 250.85 153.36 250.72 C 152.23 245.10 152.77 239.36 152.86 233.67 Z" />
</g>
<g id="#5a5759ff">
<path fill="#5a5759" opacity="1.00" d=" M 84.37 224.65 C 86.75 225.43 89.18 226.02 91.61 226.61 C 88.62 230.26 85.21 234.08 84.70 238.98 C 83.42 246.31 88.03 253.06 87.04 260.42 C 82.76 257.50 81.94 251.95 79.26 247.80 C 81.43 242.32 81.82 236.17 85.38 231.25 C 86.23 230.12 87.14 229.03 88.03 227.95 C 86.83 226.83 85.63 225.70 84.37 224.65 Z" />
</g>
<g id="#949292ff">
<path fill="#949292" opacity="1.00" d=" M 96.93 226.92 C 102.46 224.50 109.11 225.38 113.77 229.22 C 119.70 233.47 121.21 241.59 119.46 248.34 C 118.46 248.52 117.45 248.70 116.45 248.89 C 116.26 248.56 115.88 247.91 115.69 247.59 C 116.51 245.35 118.34 243.09 117.39 240.59 C 116.12 236.20 113.48 231.71 109.00 230.02 C 103.98 228.08 97.50 228.52 93.71 232.70 C 89.94 236.60 87.14 243.79 92.12 247.92 C 91.34 248.87 90.59 249.85 89.84 250.83 C 86.65 249.71 86.71 245.83 86.47 243.01 C 86.08 236.12 90.45 229.33 96.93 226.92 Z" />
</g>
<g id="#9e9c9dff">
<path fill="#9e9c9d" opacity="1.00" d=" M 156.20 248.61 C 151.85 238.99 159.54 226.41 170.15 226.18 C 177.38 225.42 184.34 230.35 187.00 236.94 C 188.48 241.26 188.60 246.96 184.40 249.83 C 182.80 248.36 181.23 246.85 179.60 245.42 C 180.78 245.42 181.96 245.41 183.15 245.39 C 183.00 241.52 183.14 236.88 179.91 234.12 C 176.28 231.21 170.96 229.03 166.56 231.57 C 161.54 233.69 159.09 239.21 159.29 244.42 C 160.02 244.65 161.50 245.11 162.24 245.33 C 161.51 245.95 160.80 246.57 160.09 247.22 C 158.81 247.71 157.50 248.16 156.20 248.61 Z" />
</g>
<g id="#a0394bff">
<path fill="#a0394b" opacity="1.00" d=" M 57.28 226.54 C 58.44 228.65 59.84 230.62 61.25 232.57 C 60.36 233.66 59.54 234.80 58.72 235.94 C 58.01 235.39 57.30 234.85 56.59 234.31 C 56.84 231.72 57.11 229.13 57.28 226.54 Z" />
</g>
<g id="#b1b0b0ff">
<path fill="#b1b0b0" opacity="1.00" d=" M 93.71 232.70 C 97.50 228.52 103.98 228.08 109.00 230.02 C 113.48 231.71 116.12 236.20 117.39 240.59 C 118.34 243.09 116.51 245.35 115.69 247.59 C 114.77 246.72 113.83 245.87 112.86 245.08 C 112.71 242.67 113.09 240.09 112.12 237.83 C 110.40 235.23 107.62 233.30 104.61 232.54 C 101.40 232.08 98.03 233.50 95.81 235.80 C 93.42 238.39 94.31 242.18 94.33 245.36 C 93.57 246.19 92.84 247.04 92.12 247.92 C 87.14 243.79 89.94 236.60 93.71 232.70 Z" />
</g>
<g id="#c9c9c9ff">
<path fill="#c9c9c9" opacity="1.00" d=" M 166.56 231.57 C 170.96 229.03 176.28 231.21 179.91 234.12 C 183.14 236.88 183.00 241.52 183.15 245.39 C 181.96 245.41 180.78 245.42 179.60 245.42 C 174.19 242.53 167.58 241.94 162.24 245.33 C 161.50 245.11 160.02 244.65 159.29 244.42 C 159.09 239.21 161.54 233.69 166.56 231.57 Z" />
</g>
<g id="#325d92ff">
<path fill="#325d92" opacity="1.00" d=" M 68.26 238.15 C 73.61 235.06 79.50 233.06 85.38 231.25 C 81.82 236.17 81.43 242.32 79.26 247.80 C 75.95 246.43 72.67 244.99 69.53 243.26 C 69.09 241.56 68.67 239.86 68.26 238.15 Z" />
</g>
<g id="#d1d0d0ff">
<path fill="#d1d0d0" opacity="1.00" d=" M 95.81 235.80 C 98.03 233.50 101.40 232.08 104.61 232.54 C 107.62 233.30 110.40 235.23 112.12 237.83 C 113.09 240.09 112.71 242.67 112.86 245.08 C 106.96 242.26 100.14 242.37 94.33 245.36 C 94.31 242.18 93.42 238.39 95.81 235.80 Z" />
</g>
<g id="#535356ff">
<path fill="#535356" opacity="1.00" d=" M 122.27 233.80 L 123.15 233.93 C 126.90 241.32 125.87 250.50 122.21 257.74 C 131.93 258.75 141.71 257.57 151.44 258.29 C 147.18 260.08 142.53 259.88 138.01 259.82 C 131.71 259.69 125.30 260.40 119.13 258.76 C 120.03 256.59 119.53 254.33 118.48 252.33 C 124.77 248.28 122.25 239.99 122.27 233.80 Z" />
</g>
<g id="#082b49ff">
<path fill="#082b49" opacity="1.00" d=" M 123.15 233.93 C 128.98 234.23 134.82 234.11 140.66 234.06 C 144.18 234.02 147.70 234.15 151.23 234.12 C 150.26 237.69 149.13 241.27 148.89 244.99 C 148.73 249.72 151.03 254.04 153.11 258.14 C 152.69 258.18 151.86 258.25 151.44 258.29 C 141.71 257.57 131.93 258.75 122.21 257.74 C 125.87 250.50 126.90 241.32 123.15 233.93 Z" />
</g>
<g id="#5b5857ff">
<path fill="#5b5857" opacity="1.00" d=" M 151.23 234.12 C 151.64 234.01 152.45 233.79 152.86 233.67 C 152.77 239.36 152.23 245.10 153.36 250.72 C 154.45 250.85 155.54 250.99 156.64 251.13 C 155.45 253.23 155.09 255.65 154.76 258.01 C 154.35 258.04 153.52 258.11 153.11 258.14 C 151.03 254.04 148.73 249.72 148.89 244.99 C 149.13 241.27 150.26 237.69 151.23 234.12 Z" />
</g>
<g id="#5b595aff">
<path fill="#5b595a" opacity="1.00" d=" M 190.13 233.67 C 193.70 237.28 192.69 242.88 194.65 247.28 C 194.21 248.60 193.75 249.92 193.26 251.24 C 192.15 254.93 189.95 258.26 186.42 260.03 C 186.29 258.09 186.18 256.15 186.10 254.21 C 187.76 251.67 189.76 249.11 190.08 245.98 C 190.49 241.89 190.15 237.77 190.13 233.67 Z" />
</g>
<g id="#153c60ff">
<path fill="#153c60" opacity="1.00" d=" M 94.33 245.36 C 100.14 242.37 106.96 242.26 112.86 245.08 C 113.83 245.87 114.77 246.72 115.69 247.59 C 115.88 247.91 116.26 248.56 116.45 248.89 C 117.13 250.03 117.82 251.16 118.48 252.33 C 119.53 254.33 120.03 256.59 119.13 258.76 C 110.22 256.86 101.11 255.85 92.39 253.15 C 91.55 252.37 90.74 251.55 89.84 250.83 C 90.59 249.85 91.34 248.87 92.12 247.92 C 92.84 247.04 93.57 246.19 94.33 245.36 Z" />
</g>
<g id="#082b48ff">
<path fill="#082b48" opacity="1.00" d=" M 162.24 245.33 C 167.58 241.94 174.19 242.53 179.60 245.42 C 181.23 246.85 182.80 248.36 184.40 249.83 C 182.34 251.32 180.09 252.53 177.78 253.60 C 174.99 254.70 172.11 255.66 169.08 255.79 C 164.23 256.01 159.61 257.71 154.76 258.01 C 155.09 255.65 155.45 253.23 156.64 251.13 C 157.75 249.79 158.91 248.49 160.09 247.22 C 160.80 246.57 161.51 245.95 162.24 245.33 Z" />
</g>
<g id="#7d7d80ff">
<path fill="#7d7d80" opacity="1.00" d=" M 88.43 254.14 C 89.74 253.76 91.06 253.44 92.39 253.15 C 101.11 255.85 110.22 256.86 119.13 258.76 C 125.30 260.40 131.71 259.69 138.01 259.82 C 142.53 259.88 147.18 260.08 151.44 258.29 C 151.86 258.25 152.69 258.18 153.11 258.14 C 153.52 258.11 154.35 258.04 154.76 258.01 C 159.61 257.71 164.23 256.01 169.08 255.79 C 172.11 255.66 174.99 254.70 177.78 253.60 C 179.99 253.72 182.18 254.00 184.38 254.21 C 181.61 255.20 178.85 256.25 175.97 256.88 C 164.49 259.49 152.83 262.01 140.99 261.66 C 133.57 261.44 126.11 262.15 118.73 261.06 C 112.28 260.09 105.80 259.10 99.55 257.19 C 95.84 256.00 91.94 255.18 88.04 255.77 C 88.14 255.36 88.33 254.54 88.43 254.14 Z" />
</g>
<g id="#5e5d5d85">
<path fill="#5e5d5d" opacity="0.52" d=" M 84.45 269.33 C 93.99 272.26 103.34 276.02 113.19 277.89 C 112.70 277.92 111.71 277.99 111.22 278.03 C 109.31 278.08 107.38 277.97 105.55 277.39 C 99.67 275.55 93.67 274.05 87.93 271.82 C 86.52 271.38 85.51 270.28 84.45 269.33 Z" />
</g>
<g id="#24242433">
<path fill="#242424" opacity="0.20" d=" M 111.22 278.03 C 111.71 277.99 112.70 277.92 113.19 277.89 C 113.91 277.88 115.35 277.86 116.07 277.85 C 116.10 278.39 116.16 279.46 116.19 280.00 L 110.87 280.00 C 110.95 279.51 111.13 278.52 111.22 278.03 Z" />
</g>
<g id="#6d6d6d99">
<path fill="#6d6d6d" opacity="0.60" d=" M 116.07 277.85 C 118.00 277.89 119.62 278.93 121.15 280.00 L 116.19 280.00 C 116.16 279.46 116.10 278.39 116.07 277.85 Z" />
</g>
<g id="#7e7d7db3">
<path fill="#7e7d7d" opacity="0.70" d=" M 159.00 280.00 C 160.54 279.08 162.07 277.99 163.93 277.85 C 163.92 278.39 163.91 279.46 163.90 280.00 L 159.00 280.00 Z" />
</g>
<g id="#2f2f2f42">
<path fill="#2f2f2f" opacity="0.26" d=" M 163.93 277.85 C 165.66 277.83 167.39 277.87 169.13 277.86 C 169.11 278.40 169.06 279.47 169.03 280.00 L 163.90 280.00 C 163.91 279.46 163.92 278.39 163.93 277.85 Z" />
</g>
</svg>
