<?xml version="1.0" encoding="UTF-8" ?>
<!DOCTYPE svg PUBLIC "-//W3C//DTD SVG 1.1//EN" "http://www.w3.org/Graphics/SVG/1.1/DTD/svg11.dtd">
<svg width="60pt" height="60pt" viewBox="0 0 60 60" version="1.1" xmlns="http://www.w3.org/2000/svg">
<g id="#00c8ffff">
<path fill="#00c8ff" opacity="1.00" d=" M 0.00 0.00 L 60.00 0.00 L 60.00 60.00 L 0.00 60.00 L 0.00 0.00 M 2.50 57.44 C 20.83 57.44 39.17 57.44 57.50 57.44 C 57.51 39.15 57.51 20.85 57.50 2.56 C 39.17 2.56 20.83 2.56 2.50 2.56 C 2.49 20.85 2.49 39.15 2.50 57.44 Z" />
<path fill="#00c8ff" opacity="1.00" d=" M 14.51 13.78 C 18.49 13.77 22.68 13.02 26.48 14.52 C 31.68 16.70 32.44 24.14 29.36 28.34 C 26.95 31.54 22.63 31.94 18.93 31.85 C 18.93 35.20 18.92 38.56 18.92 41.92 C 17.45 41.91 15.98 41.91 14.51 41.92 C 14.49 32.54 14.49 23.16 14.51 13.78 M 18.96 17.70 C 18.94 21.05 18.94 24.40 18.96 27.75 C 21.13 27.63 23.68 27.98 25.37 26.30 C 27.03 24.48 27.10 21.42 25.73 19.42 C 24.13 17.34 21.26 17.75 18.96 17.70 Z" />
<path fill="#00c8ff" opacity="1.00" d=" M 35.44 22.47 C 38.05 20.11 41.82 20.76 44.98 21.26 C 45.11 22.76 45.17 24.27 45.21 25.77 C 42.97 24.87 37.96 23.14 37.80 26.98 C 39.31 29.26 42.36 29.78 44.27 31.68 C 47.06 34.20 46.55 39.40 43.25 41.26 C 40.27 42.96 36.60 42.43 33.54 41.25 C 33.55 39.79 33.55 38.32 33.53 36.86 C 35.89 37.90 38.63 39.07 41.16 37.86 C 43.16 34.80 38.61 33.61 36.73 32.20 C 33.13 30.48 32.41 25.07 35.44 22.47 Z" />
</g>
<g id="#001d26ff">
<path fill="#001d26" opacity="1.00" d=" M 2.50 57.44 C 2.49 39.15 2.49 20.85 2.50 2.56 C 20.83 2.56 39.17 2.56 57.50 2.56 C 57.51 20.85 57.51 39.15 57.50 57.44 C 39.17 57.44 20.83 57.44 2.50 57.44 M 14.51 13.78 C 14.49 23.16 14.49 32.54 14.51 41.92 C 15.98 41.91 17.45 41.91 18.92 41.92 C 18.92 38.56 18.93 35.20 18.93 31.85 C 22.63 31.94 26.95 31.54 29.36 28.34 C 32.44 24.14 31.68 16.70 26.48 14.52 C 22.68 13.02 18.49 13.77 14.51 13.78 M 35.44 22.47 C 32.41 25.07 33.13 30.48 36.73 32.20 C 38.61 33.61 43.16 34.80 41.16 37.86 C 38.63 39.07 35.89 37.90 33.53 36.86 C 33.55 38.32 33.55 39.79 33.54 41.25 C 36.60 42.43 40.27 42.96 43.25 41.26 C 46.55 39.40 47.06 34.20 44.27 31.68 C 42.36 29.78 39.31 29.26 37.80 26.98 C 37.96 23.14 42.97 24.87 45.21 25.77 C 45.17 24.27 45.11 22.76 44.98 21.26 C 41.82 20.76 38.05 20.11 35.44 22.47 Z" />
<path fill="#001d26" opacity="1.00" d=" M 18.96 17.70 C 21.26 17.75 24.13 17.34 25.73 19.42 C 27.10 21.42 27.03 24.48 25.37 26.30 C 23.68 27.98 21.13 27.63 18.96 27.75 C 18.94 24.40 18.94 21.05 18.96 17.70 Z" />
</g>
</svg>
