<?xml version="1.0" encoding="UTF-8" ?>
<!DOCTYPE svg PUBLIC "-//W3C//DTD SVG 1.1//EN" "http://www.w3.org/Graphics/SVG/1.1/DTD/svg11.dtd">
<svg width="301pt" height="298pt" viewBox="0 0 301 298" version="1.1" xmlns="http://www.w3.org/2000/svg">
<g id="#f6f6f6ff">
<path fill="#f6f6f6" opacity="1.00" d=" M 107.31 23.28 C 113.16 21.91 119.98 25.12 122.09 30.90 C 125.19 37.51 121.64 46.27 114.64 48.58 C 106.56 51.73 96.53 44.78 97.14 36.00 C 96.79 29.96 101.48 24.44 107.31 23.28 Z" />
<path fill="#f6f6f6" opacity="1.00" d=" M 190.20 250.92 C 197.28 248.49 205.37 254.70 205.61 262.01 C 205.57 269.10 199.79 276.21 192.30 275.79 C 185.09 276.29 178.06 268.88 180.38 261.69 C 181.29 256.53 185.39 252.61 190.20 250.92 Z" />
</g>
<g id="#3672a4ff">
<path fill="#3672a4" opacity="1.00" d=" M 141.63 0.00 L 160.39 0.00 C 177.44 1.14 195.27 3.50 209.81 13.21 C 218.35 18.80 224.45 28.58 224.24 38.97 C 224.41 56.32 224.02 73.66 224.29 91.00 C 224.05 101.92 225.30 113.41 220.72 123.67 C 216.88 133.07 208.10 139.54 198.67 142.65 C 188.52 146.38 177.56 144.97 166.99 145.32 C 147.00 145.28 127.01 145.26 107.02 145.34 C 96.80 145.72 86.50 149.90 79.70 157.70 C 72.92 165.10 69.92 175.17 69.18 185.00 C 68.62 197.86 69.80 210.76 68.81 223.61 C 60.18 223.58 51.56 223.65 42.93 223.63 C 30.18 223.59 19.05 214.82 12.77 204.23 C 3.04 187.98 1.34 168.52 0.86 150.00 C 1.20 138.58 1.76 127.01 4.89 115.96 C 7.56 106.17 12.15 96.65 19.44 89.45 C 26.46 82.47 36.05 78.10 45.97 77.76 C 81.21 77.69 116.45 77.83 151.69 77.70 C 151.75 74.25 151.74 70.81 151.67 67.37 C 127.40 67.25 103.13 67.48 78.86 67.25 C 78.79 56.16 78.84 45.07 78.68 33.98 C 78.54 28.77 79.96 23.44 83.40 19.43 C 91.27 9.47 103.99 5.31 115.99 2.93 C 124.38 0.79 133.07 0.81 141.63 0.00 M 107.31 23.28 C 101.48 24.44 96.79 29.96 97.14 36.00 C 96.53 44.78 106.56 51.73 114.64 48.58 C 121.64 46.27 125.19 37.51 122.09 30.90 C 119.98 25.12 113.16 21.91 107.31 23.28 Z" />
</g>
<g id="#fed242ff">
<path fill="#fed242" opacity="1.00" d=" M 234.18 76.12 C 240.76 75.35 247.39 75.87 253.99 75.72 C 261.85 75.58 270.18 76.61 276.76 81.25 C 280.77 84.18 284.43 87.60 287.74 91.30 C 292.42 96.54 294.82 103.31 296.85 109.92 C 298.88 117.10 300.65 124.49 300.39 132.01 C 300.20 144.01 300.11 156.01 300.37 168.01 C 300.58 174.15 299.16 180.18 297.17 185.95 C 293.73 196.83 288.34 208.01 278.51 214.48 C 274.27 217.32 269.87 220.34 264.74 221.24 C 260.85 221.80 256.91 221.68 252.99 221.71 C 223.99 221.64 194.99 221.66 166.00 221.65 C 161.15 221.55 156.28 221.45 151.49 222.37 C 151.40 225.46 151.36 228.55 151.37 231.65 C 160.25 231.74 169.13 231.72 178.00 232.23 C 193.43 231.98 208.94 230.92 224.33 232.56 C 224.60 243.38 224.42 254.20 224.51 265.03 C 225.45 275.64 217.67 285.26 208.28 289.26 C 199.54 293.71 189.91 295.71 180.46 298.00 L 121.83 298.00 C 115.13 294.91 107.62 294.21 100.98 290.97 C 92.40 287.49 86.12 280.04 81.74 272.12 C 79.07 267.18 79.36 261.42 79.39 256.00 C 79.44 238.33 79.45 220.66 79.43 202.99 C 79.45 197.32 79.16 191.63 79.69 185.98 C 80.46 178.28 84.47 171.25 89.69 165.68 C 95.00 160.07 102.55 157.46 109.84 155.58 C 116.09 153.90 122.60 154.53 128.99 154.47 C 149.67 154.50 170.35 154.44 191.02 154.49 C 199.51 154.60 208.38 153.33 215.55 148.49 C 225.33 142.78 231.81 132.20 232.96 120.99 C 234.79 106.11 232.87 91.04 234.18 76.12 M 190.20 250.92 C 185.39 252.61 181.29 256.53 180.38 261.69 C 178.06 268.88 185.09 276.29 192.30 275.79 C 199.79 276.21 205.57 269.10 205.61 262.01 C 205.37 254.70 197.28 248.49 190.20 250.92 Z" />
</g>
</svg>
