<?xml version="1.0" encoding="UTF-8" ?>
<!DOCTYPE svg PUBLIC "-//W3C//DTD SVG 1.1//EN" "http://www.w3.org/Graphics/SVG/1.1/DTD/svg11.dtd">
<svg width="60pt" height="60pt" viewBox="0 0 60 60" version="1.1" xmlns="http://www.w3.org/2000/svg">
<g id="#b2b3b7ff">
<path fill="#b2b3b7" opacity="1.00" d=" M 10.49 6.52 C 21.51 -1.66 37.76 -1.76 48.91 6.20 C 55.28 10.67 59.84 18.08 59.75 26.00 C 59.95 33.23 56.15 40.01 50.76 44.62 C 50.34 43.81 49.90 43.02 49.43 42.25 C 57.40 36.81 58.68 24.52 52.81 17.13 C 48.48 11.99 41.38 10.45 34.95 10.42 C 27.10 10.29 18.67 13.43 14.21 20.18 C 11.07 24.78 11.03 31.20 14.11 35.84 C 16.51 39.78 20.53 42.27 24.62 44.13 C 24.58 46.60 24.59 49.08 24.64 51.55 C 17.67 50.39 10.94 47.15 6.22 41.81 C 1.68 36.81 -0.71 29.82 0.26 23.09 C 1.15 16.44 5.12 10.44 10.49 6.52 Z" />
<path fill="#b2b3b7" opacity="1.00" d=" M 35.10 45.79 C 36.76 45.68 38.41 45.57 40.07 45.46 C 40.71 46.88 41.32 48.32 41.94 49.75 C 39.69 50.56 37.37 51.13 35.04 51.59 C 35.14 49.66 35.18 47.73 35.10 45.79 Z" />
</g>
<g id="#2065b8ff">
<path fill="#2065b8" opacity="1.00" d=" M 24.71 16.33 C 31.17 16.38 37.63 16.31 44.09 16.35 C 47.37 16.24 50.71 17.74 52.53 20.53 C 56.71 27.30 54.42 38.41 45.93 40.48 C 47.11 41.03 48.28 41.62 49.43 42.25 C 49.90 43.02 50.34 43.81 50.76 44.62 C 52.99 49.69 55.33 54.73 57.67 59.76 C 53.83 59.76 49.99 59.77 46.15 59.76 C 44.77 56.41 43.45 53.04 41.94 49.75 C 41.32 48.32 40.71 46.88 40.07 45.46 C 39.42 43.01 37.06 42.44 34.79 42.65 C 34.87 43.44 35.03 45.01 35.10 45.79 C 35.18 47.73 35.14 49.66 35.04 51.59 C 34.84 54.31 34.82 57.05 34.88 59.78 C 31.49 59.79 28.09 59.77 24.69 59.77 C 24.73 57.03 24.70 54.29 24.64 51.55 C 24.59 49.08 24.58 46.60 24.62 44.13 C 24.80 34.86 24.63 25.60 24.71 16.33 M 34.99 25.79 C 34.98 28.24 34.98 30.69 34.98 33.15 C 37.34 33.16 39.72 33.28 42.07 33.01 C 44.72 31.75 44.83 26.89 41.96 25.89 C 39.64 25.66 37.31 25.79 34.99 25.79 Z" />
</g>
</svg>
