<?xml version="1.0" encoding="UTF-8" ?>
<!DOCTYPE svg PUBLIC "-//W3C//DTD SVG 1.1//EN" "http://www.w3.org/Graphics/SVG/1.1/DTD/svg11.dtd">
<svg width="600pt" height="600pt" viewBox="0 0 600 600" version="1.1" xmlns="http://www.w3.org/2000/svg">
<g id="#41b883ff">
<path fill="#41b883" opacity="1.00" d=" M 99.96 127.00 C 126.62 127.00 153.27 127.00 179.92 127.01 C 219.95 196.01 259.88 265.09 300.00 334.05 C 340.12 265.09 380.05 196.02 420.08 127.01 C 446.73 127.00 473.39 127.00 500.04 127.01 C 433.37 242.03 366.69 357.05 300.00 472.07 C 233.31 357.05 166.63 242.03 99.96 127.00 Z" />
</g>
<g id="#35495eff">
<path fill="#35495e" opacity="1.00" d=" M 179.92 127.01 C 204.60 126.99 229.28 127.01 253.95 126.99 C 269.51 153.21 284.48 179.79 300.00 206.03 C 315.52 179.80 330.51 153.24 346.02 127.00 C 370.71 127.00 395.39 126.99 420.08 127.01 C 380.05 196.02 340.12 265.09 300.00 334.05 C 259.88 265.09 219.95 196.01 179.92 127.01 Z" />
</g>
</svg>
