<?xml version="1.0" encoding="UTF-8" ?>
<!DOCTYPE svg PUBLIC "-//W3C//DTD SVG 1.1//EN" "http://www.w3.org/Graphics/SVG/1.1/DTD/svg11.dtd">
<svg width="583pt" height="240pt" viewBox="0 0 583 240" version="1.1" xmlns="http://www.w3.org/2000/svg">
<g id="#ffffffff">
<path fill="#ffffff" opacity="1.00" d=" M 66.69 12.77 C 99.78 -4.01 140.83 -3.93 173.86 12.97 C 200.25 26.09 221.35 49.37 231.91 76.88 C 245.02 110.30 242.00 149.67 223.62 180.55 C 207.96 207.81 180.95 228.35 150.48 236.08 C 158.93 233.23 167.31 230.11 175.09 225.70 C 168.86 219.26 161.01 214.69 152.81 211.23 C 165.71 207.61 176.86 198.83 183.80 187.42 C 190.90 182.46 197.63 176.70 202.20 169.23 C 207.31 161.94 209.72 153.27 212.12 144.82 C 216.77 126.33 216.00 106.43 209.52 88.47 C 202.00 66.73 186.38 47.96 166.39 36.57 C 145.62 24.45 120.41 21.02 96.95 25.78 C 98.83 22.40 101.56 19.65 104.88 17.69 C 107.18 16.84 105.21 12.73 103.10 14.24 C 97.30 16.44 94.21 22.29 91.91 27.67 C 89.39 24.37 86.51 20.73 82.19 19.89 C 81.28 20.72 80.84 21.73 80.87 22.94 C 83.15 24.75 85.58 26.39 87.56 28.56 C 67.83 35.25 50.14 48.14 38.32 65.37 C 24.43 85.11 18.29 110.16 21.58 134.09 C 23.78 149.18 28.62 164.48 38.70 176.23 C 44.29 183.10 51.77 188.07 59.50 192.22 C 66.37 200.86 75.59 207.65 86.21 210.87 C 77.67 214.38 69.51 219.06 63.07 225.77 C 37.92 211.94 17.69 189.20 7.76 162.19 C 2.58 148.95 0.48 134.72 0.00 120.57 L 0.00 120.51 C 0.34 103.42 3.55 86.25 10.82 70.70 C 22.07 45.76 42.16 24.90 66.69 12.77 Z" />
<path fill="#ffffff" opacity="1.00" d=" M 383.48 30.53 C 406.76 9.50 438.63 -1.55 469.93 0.45 C 508.36 2.22 545.02 24.21 564.99 57.03 C 576.52 75.31 582.61 96.81 583.00 118.38 L 583.00 121.76 C 582.63 143.34 576.56 164.85 565.05 183.16 C 544.70 216.88 506.67 238.83 467.34 240.00 L 458.72 240.00 C 423.19 238.87 388.69 220.93 367.43 192.44 C 348.17 167.35 339.75 134.36 344.39 103.10 C 348.16 75.26 362.44 49.09 383.48 30.53 M 387.07 57.00 C 386.88 90.98 387.08 124.98 386.97 158.97 C 387.00 160.44 386.65 163.24 388.97 162.97 C 408.97 163.05 428.98 162.97 448.99 163.00 C 448.96 171.18 449.10 179.36 448.91 187.54 C 436.75 187.23 424.62 188.21 412.48 188.83 L 412.48 190.78 C 424.33 190.37 436.17 189.15 448.04 189.59 C 456.02 190.36 464.05 189.84 472.06 190.03 C 486.00 188.57 500.03 190.24 513.99 190.84 C 515.18 191.02 515.95 190.50 516.30 189.29 C 503.59 187.79 490.77 187.74 478.01 187.20 C 477.99 179.13 478.00 171.07 478.00 163.01 C 498.61 162.90 519.22 163.19 539.83 162.86 C 540.26 127.14 539.82 91.41 540.05 55.69 C 538.74 55.36 537.41 54.99 536.07 54.99 C 487.70 55.00 439.33 55.01 390.97 54.99 C 389.52 54.99 386.91 54.87 387.07 57.00 Z" />
<path fill="#ffffff" opacity="1.00" d=" M 390.01 58.01 C 439.00 58.00 488.00 58.00 536.99 58.01 C 537.00 92.00 537.00 126.00 536.99 159.99 C 488.00 160.00 439.00 160.00 390.01 159.99 C 389.99 126.00 390.00 92.00 390.01 58.01 M 391.19 59.17 C 390.80 65.45 391.07 71.75 391.00 78.04 C 391.06 104.67 390.88 131.29 391.09 157.92 C 438.70 158.08 486.33 158.01 533.94 157.95 C 534.00 125.03 534.12 92.10 533.88 59.18 C 514.27 58.77 494.64 59.11 475.02 59.00 C 447.08 59.11 419.13 58.78 391.19 59.17 Z" />
<path fill="#ffffff" opacity="1.00" d=" M 393.27 61.05 C 398.86 60.96 404.45 61.00 410.04 61.01 C 409.65 85.00 410.54 108.98 410.35 132.97 C 410.08 140.97 409.84 148.98 410.05 156.99 C 404.46 157.00 398.87 157.03 393.28 156.96 C 393.31 124.99 393.33 93.02 393.27 61.05 Z" />
<path fill="#ffffff" opacity="1.00" d=" M 509.85 78.92 C 511.41 75.63 514.87 72.70 518.71 73.32 C 522.49 74.05 524.84 77.57 526.21 80.90 C 529.03 87.62 528.26 95.25 525.91 101.99 C 488.86 102.01 451.82 102.00 414.77 101.99 C 415.31 97.94 416.62 93.56 420.13 91.10 C 423.91 88.18 429.72 88.67 433.12 91.95 C 434.70 93.67 435.78 95.77 436.99 97.75 C 439.02 97.08 441.06 96.44 443.11 95.80 C 443.01 91.41 443.16 86.64 446.12 83.09 C 449.52 78.01 457.00 76.73 462.04 80.11 C 465.70 82.42 467.10 86.73 468.30 90.65 C 476.31 84.89 487.87 84.59 496.08 90.10 C 498.08 91.38 499.26 93.53 500.58 95.44 C 502.79 95.49 505.00 95.58 507.21 95.76 C 506.98 90.06 506.96 84.04 509.85 78.92 Z" />
<path fill="#ffffff" opacity="1.00" d=" M 105.95 213.19 C 106.69 213.22 107.44 213.25 108.18 213.28 C 111.34 220.40 120.71 223.25 127.38 219.34 C 129.93 218.10 131.49 215.65 132.94 213.33 C 134.03 213.30 135.10 213.21 136.19 213.16 C 132.17 226.45 110.06 226.38 105.95 213.19 Z" />
</g>
<g id="#482400ff">
<path fill="#482400" opacity="1.00" d=" M 91.91 27.67 C 94.21 22.29 97.30 16.44 103.10 14.24 C 105.21 12.73 107.18 16.84 104.88 17.69 C 101.56 19.65 98.83 22.40 96.95 25.78 C 120.41 21.02 145.62 24.45 166.39 36.57 C 186.38 47.96 202.00 66.73 209.52 88.47 C 216.00 106.43 216.77 126.33 212.12 144.82 C 209.72 153.27 207.31 161.94 202.20 169.23 C 197.63 176.70 190.90 182.46 183.80 187.42 C 187.62 180.56 190.20 172.94 190.86 165.09 C 191.23 157.75 190.97 150.39 190.26 143.09 C 170.60 148.33 149.51 144.82 131.06 136.89 C 119.81 131.80 108.80 124.93 101.64 114.62 C 96.02 125.25 86.49 133.61 75.62 138.58 C 67.59 142.21 58.31 143.98 49.73 141.24 C 49.15 147.82 49.01 154.43 49.12 161.04 C 48.93 172.22 53.10 183.16 59.50 192.22 C 51.77 188.07 44.29 183.10 38.70 176.23 C 28.62 164.48 23.78 149.18 21.58 134.09 C 18.29 110.16 24.43 85.11 38.32 65.37 C 50.14 48.14 67.83 35.25 87.56 28.56 C 85.58 26.39 83.15 24.75 80.87 22.94 C 80.84 21.73 81.28 20.72 82.19 19.89 C 86.51 20.73 89.39 24.37 91.91 27.67 Z" />
<path fill="#482400" opacity="1.00" d=" M 179.13 169.28 C 179.27 168.89 179.56 168.12 179.70 167.73 C 180.65 169.84 179.01 171.67 178.16 173.44 C 177.32 171.90 176.11 170.67 174.54 169.90 C 175.95 169.92 178.29 171.07 179.13 169.28 Z" />
</g>
<g id="#86d1ccff">
<path fill="#86d1cc" opacity="1.00" d=" M 387.07 57.00 C 386.91 54.87 389.52 54.99 390.97 54.99 C 439.33 55.01 487.70 55.00 536.07 54.99 C 537.41 54.99 538.74 55.36 540.05 55.69 C 539.82 91.41 540.26 127.14 539.83 162.86 C 519.22 163.19 498.61 162.90 478.00 163.01 C 478.00 171.07 477.99 179.13 478.01 187.20 C 490.77 187.74 503.59 187.79 516.30 189.29 C 515.95 190.50 515.18 191.02 513.99 190.84 C 500.03 190.24 486.00 188.57 472.06 190.03 C 464.05 189.84 456.02 190.36 448.04 189.59 C 436.17 189.15 424.33 190.37 412.48 190.78 L 412.48 188.83 C 424.62 188.21 436.75 187.23 448.91 187.54 C 449.10 179.36 448.96 171.18 448.99 163.00 C 428.98 162.97 408.97 163.05 388.97 162.97 C 386.65 163.24 387.00 160.44 386.97 158.97 C 387.08 124.98 386.88 90.98 387.07 57.00 M 390.01 58.01 C 390.00 92.00 389.99 126.00 390.01 159.99 C 439.00 160.00 488.00 160.00 536.99 159.99 C 537.00 126.00 537.00 92.00 536.99 58.01 C 488.00 58.00 439.00 58.00 390.01 58.01 Z" />
<path fill="#86d1cc" opacity="1.00" d=" M 391.19 59.17 C 419.13 58.78 447.08 59.11 475.02 59.00 C 494.64 59.11 514.27 58.77 533.88 59.18 C 534.12 92.10 534.00 125.03 533.94 157.95 C 486.33 158.01 438.70 158.08 391.09 157.92 C 390.88 131.29 391.06 104.67 391.00 78.04 C 391.07 71.75 390.80 65.45 391.19 59.17 M 393.27 61.05 C 393.33 93.02 393.31 124.99 393.28 156.96 C 398.87 157.03 404.46 157.00 410.05 156.99 C 451.03 157.02 492.00 157.00 532.98 156.99 C 533.02 125.00 533.01 93.00 532.99 61.01 C 492.01 61.00 451.02 60.99 410.04 61.01 C 404.45 61.00 398.86 60.96 393.27 61.05 Z" />
</g>
<g id="#e0ebe8ff">
<path fill="#e0ebe8" opacity="1.00" d=" M 410.04 61.01 C 451.02 60.99 492.01 61.00 532.99 61.01 C 533.01 93.00 533.02 125.00 532.98 156.99 C 492.00 157.00 451.03 157.02 410.05 156.99 C 409.84 148.98 410.08 140.97 410.35 132.97 C 410.54 108.98 409.65 85.00 410.04 61.01 M 509.85 78.92 C 506.96 84.04 506.98 90.06 507.21 95.76 C 505.00 95.58 502.79 95.49 500.58 95.44 C 499.26 93.53 498.08 91.38 496.08 90.10 C 487.87 84.59 476.31 84.89 468.30 90.65 C 467.10 86.73 465.70 82.42 462.04 80.11 C 457.00 76.73 449.52 78.01 446.12 83.09 C 443.16 86.64 443.01 91.41 443.11 95.80 C 441.06 96.44 439.02 97.08 436.99 97.75 C 435.78 95.77 434.70 93.67 433.12 91.95 C 429.72 88.67 423.91 88.18 420.13 91.10 C 416.62 93.56 415.31 97.94 414.77 101.99 C 413.50 101.99 412.23 102.00 410.97 102.00 C 410.89 114.33 410.90 126.66 410.97 138.99 C 451.31 139.01 491.65 139.00 532.00 139.00 C 532.00 126.67 532.00 114.34 532.00 102.01 C 529.96 102.00 527.93 101.99 525.91 101.99 C 528.26 95.25 529.03 87.62 526.21 80.90 C 524.84 77.57 522.49 74.05 518.71 73.32 C 514.87 72.70 511.41 75.63 509.85 78.92 Z" />
</g>
<g id="#3e9c87ff">
<path fill="#3e9c87" opacity="1.00" d=" M 410.97 102.00 C 412.23 102.00 413.50 101.99 414.77 101.99 C 451.82 102.00 488.86 102.01 525.91 101.99 C 527.93 101.99 529.96 102.00 532.00 102.01 C 532.00 114.34 532.00 126.67 532.00 139.00 C 491.65 139.00 451.31 139.01 410.97 138.99 C 410.90 126.66 410.89 114.33 410.97 102.00 M 434.01 111.00 C 433.99 116.67 433.99 122.33 434.01 127.99 C 459.00 128.00 484.00 128.00 508.99 127.99 C 509.00 122.33 509.01 116.67 508.99 111.01 C 484.00 110.99 459.00 111.00 434.01 111.00 Z" />
<path fill="#3e9c87" opacity="1.00" d=" M 255.13 117.25 C 263.46 117.26 271.79 117.25 280.12 117.25 C 280.12 119.25 280.12 121.25 280.12 123.24 C 271.79 123.26 263.46 123.22 255.12 123.27 C 255.12 121.26 255.13 119.25 255.13 117.25 Z" />
<path fill="#3e9c87" opacity="1.00" d=" M 302.13 117.25 C 310.46 117.26 318.79 117.25 327.12 117.25 C 327.12 119.25 327.12 121.25 327.12 123.25 C 318.79 123.26 310.46 123.22 302.12 123.27 C 302.12 121.26 302.13 119.25 302.13 117.25 Z" />
<path fill="#3e9c87" opacity="1.00" d=" M 86.21 210.87 C 92.59 212.93 99.32 213.04 105.95 213.19 C 110.06 226.38 132.17 226.45 136.19 213.16 C 141.77 213.00 147.41 212.79 152.81 211.23 C 161.01 214.69 168.86 219.26 175.09 225.70 C 167.31 230.11 158.93 233.23 150.48 236.08 L 150.29 236.13 C 148.93 235.45 147.82 235.72 146.95 236.96 L 146.28 237.12 C 144.76 236.35 142.93 236.65 141.94 238.09 C 139.09 238.77 136.16 239.04 133.27 239.54 C 132.14 237.97 129.94 238.79 128.90 240.00 L 110.28 240.00 C 93.82 238.51 77.42 234.12 63.07 225.77 C 69.51 219.06 77.67 214.38 86.21 210.87 Z" />
</g>
<g id="#a8d6ccff">
<path fill="#a8d6cc" opacity="1.00" d=" M 434.01 111.00 C 459.00 111.00 484.00 110.99 508.99 111.01 C 509.01 116.67 509.00 122.33 508.99 127.99 C 484.00 128.00 459.00 128.00 434.01 127.99 C 433.99 122.33 433.99 116.67 434.01 111.00 Z" />
</g>
<g id="#fadfaeff">
<path fill="#fadfae" opacity="1.00" d=" M 75.62 138.58 C 86.49 133.61 96.02 125.25 101.64 114.62 C 108.80 124.93 119.81 131.80 131.06 136.89 C 149.51 144.82 170.60 148.33 190.26 143.09 C 190.97 150.39 191.23 157.75 190.86 165.09 C 190.20 172.94 187.62 180.56 183.80 187.42 C 176.86 198.83 165.71 207.61 152.81 211.23 C 147.41 212.79 141.77 213.00 136.19 213.16 C 135.10 213.21 134.03 213.30 132.94 213.33 C 124.70 212.78 116.43 212.89 108.18 213.28 C 107.44 213.25 106.69 213.22 105.95 213.19 C 99.32 213.04 92.59 212.93 86.21 210.87 C 75.59 207.65 66.37 200.86 59.50 192.22 C 53.10 183.16 48.93 172.22 49.12 161.04 C 49.01 154.43 49.15 147.82 49.73 141.24 C 58.31 143.98 67.59 142.21 75.62 138.58 M 68.48 150.70 C 65.43 152.10 65.34 156.96 68.34 158.46 C 71.00 160.13 74.82 158.15 75.00 155.02 C 75.43 151.64 71.43 148.99 68.48 150.70 M 168.52 150.68 C 165.65 151.97 165.27 156.43 167.89 158.17 C 170.48 160.28 174.81 158.39 174.99 155.05 C 175.45 151.68 171.49 149.01 168.52 150.68 M 179.13 169.28 C 178.29 171.07 175.95 169.92 174.54 169.90 C 176.11 170.67 177.32 171.90 178.16 173.44 C 179.01 171.67 180.65 169.84 179.70 167.73 C 179.56 168.12 179.27 168.89 179.13 169.28 M 60.18 169.17 C 59.66 170.80 60.22 171.35 61.85 170.82 C 62.36 169.19 61.80 168.64 60.18 169.17 M 58.22 170.31 C 58.78 170.81 58.78 170.81 58.22 170.31 M 63.28 170.10 C 63.48 173.36 66.32 168.56 63.28 170.10 M 181.21 170.23 C 181.72 170.77 181.72 170.77 181.21 170.23 M 59.09 172.37 C 57.58 175.42 62.36 172.54 59.09 172.37 M 61.29 172.09 C 61.42 175.35 64.37 170.62 61.29 172.09 M 174.21 172.28 C 173.66 173.89 174.21 174.44 175.86 173.92 C 176.39 172.30 175.85 171.75 174.21 172.28 M 180.30 172.08 C 180.38 175.34 183.39 170.64 180.30 172.08 M 64.27 173.12 C 64.54 176.37 67.28 171.52 64.27 173.12 M 93.23 181.97 C 92.99 189.73 98.46 196.49 105.04 200.00 C 115.08 205.45 127.91 205.38 138.01 200.11 C 144.63 196.62 150.12 189.84 149.95 182.07 C 149.98 180.07 146.22 179.95 146.23 182.02 C 145.81 187.67 142.44 192.79 137.62 195.69 C 127.22 202.13 112.65 201.65 103.10 193.82 C 99.14 190.67 97.21 185.72 96.82 180.78 C 95.66 180.62 93.32 180.23 93.23 181.97 Z" />
</g>
<g id="#000000ff">
<path fill="#000000" opacity="1.00" d=" M 68.48 150.70 C 71.43 148.99 75.43 151.64 75.00 155.02 C 74.82 158.15 71.00 160.13 68.34 158.46 C 65.34 156.96 65.43 152.10 68.48 150.70 Z" />
<path fill="#000000" opacity="1.00" d=" M 168.52 150.68 C 171.49 149.01 175.45 151.68 174.99 155.05 C 174.81 158.39 170.48 160.28 167.89 158.17 C 165.27 156.43 165.65 151.97 168.52 150.68 Z" />
<path fill="#000000" opacity="1.00" d=" M 93.23 181.97 C 93.32 180.23 95.66 180.62 96.82 180.78 C 97.21 185.72 99.14 190.67 103.10 193.82 C 112.65 201.65 127.22 202.13 137.62 195.69 C 142.44 192.79 145.81 187.67 146.23 182.02 C 146.22 179.95 149.98 180.07 149.95 182.07 C 150.12 189.84 144.63 196.62 138.01 200.11 C 127.91 205.38 115.08 205.45 105.04 200.00 C 98.46 196.49 92.99 189.73 93.23 181.97 Z" />
</g>
<g id="#88683fff">
<path fill="#88683f" opacity="1.00" d=" M 60.18 169.17 C 61.80 168.64 62.36 169.19 61.85 170.82 C 60.22 171.35 59.66 170.80 60.18 169.17 Z" />
<path fill="#88683f" opacity="1.00" d=" M 63.28 170.10 C 66.32 168.56 63.48 173.36 63.28 170.10 Z" />
<path fill="#88683f" opacity="1.00" d=" M 61.29 172.09 C 64.37 170.62 61.42 175.35 61.29 172.09 Z" />
<path fill="#88683f" opacity="1.00" d=" M 180.30 172.08 C 183.39 170.64 180.38 175.34 180.30 172.08 Z" />
<path fill="#88683f" opacity="1.00" d=" M 64.27 173.12 C 67.28 171.52 64.54 176.37 64.27 173.12 Z" />
</g>
<g id="#a18157ff">
<path fill="#a18157" opacity="1.00" d=" M 58.22 170.31 C 58.78 170.81 58.78 170.81 58.22 170.31 Z" />
<path fill="#a18157" opacity="1.00" d=" M 181.21 170.23 C 181.72 170.77 181.72 170.77 181.21 170.23 Z" />
</g>
<g id="#815f37ff">
<path fill="#815f37" opacity="1.00" d=" M 59.09 172.37 C 62.36 172.54 57.58 175.42 59.09 172.37 Z" />
</g>
<g id="#7d5c34ff">
<path fill="#7d5c34" opacity="1.00" d=" M 174.21 172.28 C 175.85 171.75 176.39 172.30 175.86 173.92 C 174.21 174.44 173.66 173.89 174.21 172.28 Z" />
</g>
<g id="#f8d596ff">
<path fill="#f8d596" opacity="1.00" d=" M 108.18 213.28 C 116.43 212.89 124.70 212.78 132.94 213.33 C 131.49 215.65 129.93 218.10 127.38 219.34 C 120.71 223.25 111.34 220.40 108.18 213.28 Z" />
</g>
<g id="#668c85b6">
<path fill="#668c85" opacity="0.71" d=" M 146.95 236.96 C 147.82 235.72 148.93 235.45 150.29 236.13 C 149.35 237.13 148.24 237.40 146.95 236.96 Z" />
</g>
<g id="#6b978dc6">
<path fill="#6b978d" opacity="0.78" d=" M 141.94 238.09 C 142.93 236.65 144.76 236.35 146.28 237.12 C 145.08 238.19 143.46 238.38 141.94 238.09 Z" />
</g>
<g id="#679288c1">
<path fill="#679288" opacity="0.76" d=" M 128.90 240.00 C 129.94 238.79 132.14 237.97 133.27 239.54 L 132.78 240.00 L 128.90 240.00 Z" />
</g>
</svg>
