<?xml version="1.0" encoding="UTF-8" ?>
<!DOCTYPE svg PUBLIC "-//W3C//DTD SVG 1.1//EN" "http://www.w3.org/Graphics/SVG/1.1/DTD/svg11.dtd">
<svg width="812pt" height="434pt" viewBox="0 0 812 434" version="1.1" xmlns="http://www.w3.org/2000/svg">
<g id="#61616180">
<path fill="#616161" opacity="0.50" d=" M 240.79 0.00 L 247.43 0.00 C 250.74 1.30 253.63 3.45 255.85 6.21 C 258.00 5.02 260.11 3.77 262.26 2.57 C 260.69 5.41 258.87 8.10 256.98 10.72 C 259.65 10.29 263.30 6.96 265.35 9.76 C 264.63 12.09 263.19 14.21 262.92 16.66 C 263.03 22.68 263.96 28.87 266.94 34.18 C 268.55 37.01 271.64 38.54 273.41 41.22 C 274.14 46.01 268.72 47.15 265.43 48.72 C 265.43 49.13 265.44 49.96 265.44 50.37 C 268.99 52.05 273.08 53.19 275.72 56.28 C 275.24 61.29 270.56 64.50 266.35 66.42 C 262.03 68.72 257.20 66.68 252.64 66.89 C 248.77 68.38 246.70 72.55 242.88 74.16 C 238.57 75.05 233.85 73.66 229.80 75.78 C 226.25 77.77 223.64 81.01 221.04 84.07 C 217.81 87.82 215.87 92.84 211.44 95.43 C 207.14 98.08 200.61 96.39 198.47 91.73 C 195.18 85.92 193.81 79.35 191.85 73.05 C 190.75 69.38 189.62 65.41 190.69 61.61 C 194.64 57.51 200.90 56.16 204.15 51.30 C 204.85 48.48 204.56 45.54 204.64 42.66 C 202.56 42.54 200.49 42.41 198.42 42.26 C 199.48 39.09 200.67 35.97 201.91 32.87 C 199.81 31.76 197.73 30.64 195.64 29.53 C 197.10 26.52 198.64 23.56 200.10 20.55 C 196.82 18.73 193.21 17.67 189.86 16.02 C 187.54 12.95 188.16 7.65 191.57 5.55 C 195.70 4.94 199.78 6.43 203.91 6.34 C 209.91 5.74 214.84 1.11 221.00 1.27 C 225.44 1.19 229.55 3.36 233.97 3.34 C 236.44 2.70 238.60 1.27 240.79 0.00 Z" />
<path fill="#616161" opacity="0.50" d=" M 89.39 20.45 C 89.02 17.40 90.11 13.49 93.29 12.44 C 95.91 11.61 98.02 13.67 100.04 14.96 C 103.02 17.12 106.37 18.67 109.68 20.26 C 109.68 20.89 109.70 22.16 109.71 22.79 C 106.65 24.16 103.61 25.56 100.63 27.10 C 102.98 27.97 105.39 29.12 107.96 28.65 C 113.78 27.87 119.64 27.13 125.53 27.55 C 125.58 25.29 124.51 22.33 126.87 20.87 C 131.44 17.43 137.42 16.33 143.04 16.35 C 152.34 16.11 159.52 23.85 168.84 23.68 C 169.03 24.34 169.39 25.67 169.57 26.33 C 166.11 26.60 162.64 26.79 159.20 27.28 C 159.76 28.59 160.34 29.90 160.91 31.21 C 156.87 34.21 152.32 36.46 148.43 39.67 C 148.80 41.76 149.32 43.84 149.40 45.97 C 143.61 49.49 137.05 51.89 130.17 51.43 C 130.25 51.95 130.41 53.00 130.49 53.53 C 131.91 55.11 133.34 56.70 134.72 58.33 C 129.53 58.75 124.55 57.10 119.51 56.16 C 115.15 55.26 110.67 56.01 106.27 55.44 C 104.88 55.51 104.44 54.06 103.73 53.16 C 108.04 52.38 112.40 51.91 116.74 51.34 C 116.69 50.97 116.59 50.24 116.55 49.87 C 114.83 49.20 113.05 48.61 111.45 47.68 C 111.34 46.68 111.26 45.67 111.21 44.67 C 114.07 44.44 116.93 44.25 119.79 43.93 C 117.41 42.36 114.95 40.92 112.38 39.70 C 112.38 39.03 112.37 37.70 112.37 37.04 C 115.29 37.52 118.15 38.32 120.97 39.22 C 124.41 37.43 128.06 36.02 131.40 34.05 C 127.46 31.84 122.42 34.39 118.05 34.30 C 116.14 33.61 114.57 32.27 112.90 31.14 C 109.97 31.61 107.03 32.81 104.03 32.29 C 100.85 30.88 99.03 27.72 96.52 25.46 C 94.49 23.33 91.76 22.13 89.39 20.45 Z" />
<path fill="#616161" opacity="0.50" d=" M 470.66 24.30 C 475.34 23.06 480.09 24.97 484.83 24.37 C 488.86 23.91 492.89 23.28 496.97 23.62 C 496.33 25.30 495.53 27.11 493.70 27.74 C 487.08 31.25 479.43 28.28 472.48 30.18 C 467.69 31.40 463.02 33.24 458.04 33.52 C 459.42 27.77 465.43 25.32 470.66 24.30 Z" />
<path fill="#616161" opacity="0.50" d=" M 330.97 28.00 C 332.02 25.89 334.53 26.36 336.47 26.15 C 336.91 28.52 337.28 30.91 337.81 33.27 C 338.69 37.83 342.45 41.22 342.99 45.89 C 337.12 46.68 331.12 45.30 325.35 44.22 C 327.98 39.07 327.98 32.96 330.97 28.00 Z" />
<path fill="#616161" opacity="0.50" d=" M 74.69 32.04 C 79.06 28.22 84.85 26.99 90.52 27.22 C 90.16 28.57 89.98 30.00 89.29 31.24 C 87.71 32.07 85.79 31.22 84.08 31.20 C 81.69 33.43 78.53 34.32 75.32 33.53 C 75.16 33.16 74.85 32.41 74.69 32.04 Z" />
<path fill="#616161" opacity="0.50" d=" M 562.26 41.58 C 566.75 40.53 570.33 37.55 574.31 35.43 C 578.30 35.03 580.02 40.68 584.06 40.55 C 587.03 40.66 590.02 40.25 592.99 40.66 C 595.61 41.05 597.28 43.26 599.01 45.04 C 592.92 49.61 585.45 51.63 578.95 55.51 C 582.51 55.45 586.22 55.88 589.61 54.51 C 593.59 52.67 597.86 54.65 602.01 54.39 C 607.58 54.13 612.38 57.98 617.96 57.63 C 621.29 57.52 624.54 56.74 627.85 56.36 C 634.74 55.32 641.74 55.73 648.64 54.72 C 650.45 51.80 653.27 49.89 656.82 50.18 C 656.61 52.32 655.74 54.49 656.11 56.64 C 657.50 57.55 659.03 58.21 660.53 58.94 C 660.12 60.52 659.72 62.09 659.32 63.66 C 659.88 63.64 660.99 63.60 661.54 63.57 C 665.75 57.95 673.10 57.64 679.08 55.04 C 682.43 54.03 685.98 51.70 689.54 53.19 C 691.83 53.96 694.16 55.28 695.30 57.52 C 696.08 61.38 695.26 65.35 694.78 69.21 C 700.27 68.93 706.11 67.46 711.38 69.63 C 713.59 70.59 713.48 73.33 714.17 75.27 C 719.80 75.96 725.43 75.44 731.01 74.72 C 734.02 75.58 736.62 77.55 739.71 78.24 C 739.97 76.47 740.23 74.71 740.48 72.94 C 745.63 73.85 750.77 74.82 756.02 74.95 C 758.80 75.35 762.43 75.09 764.18 77.76 C 765.33 82.93 764.44 88.47 762.29 93.28 C 760.76 96.54 761.21 100.21 761.23 103.69 C 758.53 103.73 755.74 103.08 753.10 103.77 C 745.45 106.99 737.59 109.66 730.08 113.20 C 726.33 115.14 721.91 114.58 718.09 116.22 C 719.35 119.81 724.40 120.42 725.14 124.46 C 723.74 125.61 722.35 126.75 720.99 127.92 C 721.22 130.44 721.14 132.98 720.69 135.47 C 719.81 140.54 719.78 145.95 717.04 150.50 C 711.78 146.89 708.18 141.54 704.41 136.52 C 701.24 132.40 699.75 126.79 700.74 121.70 C 705.88 114.65 714.47 111.54 720.84 105.87 C 721.76 105.22 723.80 102.37 721.28 102.64 C 719.04 103.86 717.31 105.95 714.88 106.80 C 711.81 106.64 709.04 103.01 705.95 104.85 C 701.03 108.68 698.53 114.75 693.87 118.84 C 692.81 119.77 691.49 120.41 690.08 120.45 C 687.59 118.45 687.40 114.91 685.44 112.52 C 682.61 110.70 679.11 112.51 676.01 112.30 C 673.14 112.65 669.72 111.20 667.41 113.47 C 662.28 117.93 655.73 120.15 650.30 124.16 C 650.29 124.90 650.28 126.37 650.28 127.11 C 653.30 127.99 656.39 127.55 659.34 126.59 C 662.62 125.35 665.70 128.86 665.43 131.99 C 665.07 136.89 663.10 141.52 661.13 145.97 C 658.38 152.11 652.11 155.32 646.64 158.63 C 643.91 160.48 639.87 158.87 637.69 161.69 C 635.43 164.14 632.92 166.36 629.90 167.82 C 630.46 172.02 636.38 175.16 633.67 179.54 C 632.42 182.29 628.93 181.78 626.49 181.41 C 624.92 180.69 625.51 178.73 625.24 177.38 C 625.18 173.66 622.63 170.71 620.92 167.60 C 618.75 168.05 616.55 168.80 614.33 168.42 C 613.70 167.11 613.13 165.79 612.61 164.44 C 609.71 165.91 605.89 166.78 604.42 169.97 C 606.56 174.69 612.34 173.05 616.43 173.42 C 614.28 175.42 611.60 176.67 609.25 178.39 C 608.77 182.38 613.72 184.86 613.49 188.93 C 613.84 192.36 611.85 196.04 613.79 199.21 C 614.65 201.04 615.49 202.88 616.24 204.76 C 612.06 205.95 607.70 206.16 603.44 206.86 C 598.94 208.09 594.92 210.67 590.37 211.78 C 586.46 213.13 582.31 212.20 578.29 212.55 C 576.45 213.24 574.84 214.41 573.18 215.43 C 572.76 222.09 580.89 225.35 580.48 231.97 C 579.02 237.09 573.70 239.35 569.27 241.34 C 566.39 236.51 561.99 232.82 557.41 229.67 C 556.47 232.55 554.93 235.50 555.38 238.61 C 558.72 244.66 565.79 248.75 566.22 256.20 C 566.71 257.67 564.62 258.27 563.71 257.35 C 559.63 255.26 554.92 255.38 550.61 254.01 C 550.55 247.92 548.92 241.99 548.47 235.95 C 548.08 232.64 550.51 230.05 551.24 227.00 C 551.12 225.40 550.76 223.83 550.47 222.26 C 548.02 222.85 545.57 223.45 543.10 223.98 C 543.10 221.31 543.78 218.29 541.92 216.04 C 539.78 213.09 537.59 210.13 534.95 207.62 C 527.88 208.03 522.18 212.67 516.89 216.90 C 514.01 219.32 510.59 221.09 507.96 223.81 C 506.77 229.66 507.00 238.28 500.05 240.43 C 496.94 236.96 496.13 232.14 493.93 228.13 C 491.26 223.09 491.42 217.25 489.96 211.87 C 488.23 209.34 484.49 211.35 482.20 209.72 C 478.64 206.94 477.43 201.97 473.49 199.62 C 468.51 198.58 463.44 201.23 458.47 199.74 C 454.89 199.27 452.34 196.59 449.83 194.27 C 447.40 194.43 444.87 195.20 442.49 194.49 C 438.58 192.62 435.67 189.27 432.09 186.92 C 430.89 185.98 429.19 186.22 428.10 187.19 C 429.74 190.63 432.77 193.15 434.61 196.48 C 436.13 198.62 437.70 201.99 440.82 201.63 C 443.60 200.54 446.04 198.76 448.58 197.21 C 449.82 200.32 452.38 202.28 455.23 203.80 C 456.97 204.44 457.43 206.77 455.98 207.96 C 451.61 212.47 446.70 216.67 440.76 218.93 C 433.83 222.46 426.69 225.83 419.01 227.34 C 416.87 228.02 415.51 225.91 415.06 224.14 C 414.02 220.62 413.63 216.74 411.13 213.87 C 407.09 209.18 406.20 202.62 401.84 198.17 C 398.03 194.18 394.73 189.45 389.70 186.89 C 391.46 192.73 395.59 197.41 397.97 202.96 C 399.33 206.07 399.04 209.90 401.54 212.47 C 403.95 215.02 405.70 218.08 406.50 221.51 C 410.48 223.28 413.76 226.16 416.26 229.71 C 417.29 230.76 418.28 232.54 420.01 232.31 C 423.89 231.78 427.10 229.09 430.97 228.54 C 434.00 228.22 436.98 231.89 434.79 234.58 C 427.78 246.88 427.26 261.38 422.52 274.46 C 416.49 275.25 410.38 275.47 404.42 276.80 C 405.25 284.43 407.26 292.13 405.70 299.80 C 401.18 300.48 396.66 299.68 392.16 299.21 C 389.95 303.96 390.04 309.29 389.34 314.38 C 388.05 314.39 386.76 314.42 385.48 314.45 C 384.90 317.41 384.79 320.60 383.23 323.26 C 381.10 326.10 378.18 328.29 376.37 331.39 C 373.56 335.66 371.37 341.08 366.33 343.17 C 362.53 344.24 358.49 343.67 354.63 343.27 C 349.34 342.36 343.51 342.29 339.04 338.93 C 335.05 336.20 332.69 331.87 330.25 327.84 C 334.57 322.72 341.57 321.41 346.24 316.87 C 346.31 316.42 346.46 315.53 346.53 315.09 C 344.01 313.65 341.25 312.74 338.54 311.77 C 338.36 309.02 338.53 306.15 337.40 303.57 C 335.82 299.73 333.04 296.27 332.75 292.00 C 332.76 287.31 336.73 283.73 336.84 279.07 C 337.06 273.42 336.95 266.75 331.98 263.00 C 326.59 258.53 328.86 250.96 329.73 245.05 C 327.33 244.30 324.87 243.83 322.44 243.24 C 319.11 242.50 317.01 239.33 313.80 238.37 C 309.57 238.44 305.81 240.76 301.79 241.81 C 299.29 242.62 296.66 241.97 294.11 242.11 C 291.71 242.61 289.53 243.81 287.12 244.26 C 278.43 238.72 271.91 230.55 264.51 223.52 C 264.05 219.65 265.39 215.86 265.61 212.01 C 266.04 208.17 264.94 204.30 265.64 200.49 C 267.09 196.92 269.54 193.87 271.77 190.77 C 274.00 187.63 277.52 185.85 280.25 183.23 C 282.74 180.88 282.89 176.91 285.70 174.83 C 288.45 172.73 291.09 170.46 294.01 168.60 C 296.71 168.58 299.33 169.47 302.03 169.46 C 305.12 168.69 307.94 167.04 311.10 166.50 C 317.34 165.31 323.74 165.50 330.06 165.35 C 333.14 165.10 335.83 166.70 338.32 168.27 C 336.95 169.92 335.62 171.60 334.39 173.36 C 338.37 174.80 342.45 175.99 346.32 177.70 C 350.05 179.50 353.51 181.78 357.15 183.76 C 357.97 181.64 358.43 179.24 360.09 177.57 C 369.63 176.33 377.52 183.90 386.98 183.60 C 389.76 183.58 393.56 184.00 395.00 180.97 C 396.71 177.00 397.87 172.77 400.49 169.24 C 394.19 168.47 387.84 171.88 381.57 169.42 C 376.06 168.11 378.23 160.94 374.88 157.65 C 373.45 157.20 372.03 158.02 370.73 158.49 C 365.87 159.54 369.75 168.78 364.14 168.40 C 360.81 163.93 358.76 158.70 356.12 153.85 C 352.66 150.22 348.18 147.76 344.29 144.63 C 342.85 142.96 340.81 144.48 339.13 144.83 C 341.86 146.75 344.65 148.62 347.01 151.00 C 349.85 153.90 353.45 155.96 356.07 159.08 C 353.31 160.55 351.13 162.77 349.02 165.03 C 347.37 166.91 344.67 166.96 342.43 167.62 C 342.20 164.30 344.80 162.09 346.85 159.89 C 341.96 156.23 337.77 151.57 332.64 148.32 C 327.93 148.59 323.24 149.67 318.47 149.46 C 315.08 152.77 311.33 155.95 309.25 160.30 C 308.20 162.15 307.28 164.21 305.51 165.50 C 302.15 166.60 298.55 167.04 295.03 167.15 C 291.76 166.15 288.59 164.79 285.19 164.25 C 284.17 160.50 282.76 156.82 282.21 152.95 C 281.97 151.16 283.81 150.05 284.92 148.94 C 289.21 144.84 295.71 146.84 300.81 144.72 C 302.98 143.60 304.18 140.88 303.51 138.53 C 302.07 136.71 300.07 135.44 298.37 133.89 C 301.99 130.73 308.01 133.06 311.52 129.47 C 317.40 124.39 324.52 121.09 331.64 118.15 C 330.22 116.05 328.77 113.99 327.32 111.92 C 329.72 109.70 331.96 107.05 335.14 105.93 C 336.41 104.95 338.95 106.15 338.08 107.81 C 337.60 110.53 334.66 114.47 338.06 116.35 C 343.57 117.06 349.16 116.35 354.69 116.83 C 358.03 117.20 361.31 116.39 364.52 115.57 C 364.85 113.05 365.22 110.53 365.59 108.02 C 367.43 108.62 369.29 109.22 371.17 109.73 C 371.76 107.38 371.73 104.47 373.80 102.83 C 377.50 101.75 381.71 102.38 384.99 99.93 C 380.85 97.63 376.30 99.67 371.98 100.07 C 367.46 101.37 365.02 95.65 364.61 92.08 C 367.52 88.80 372.20 88.29 375.62 85.74 C 376.50 83.78 373.97 83.82 372.72 83.42 C 369.60 82.69 366.94 84.85 364.34 86.19 C 361.60 87.90 358.25 89.12 356.56 92.05 C 356.63 94.81 358.13 97.28 358.54 99.98 C 356.94 103.21 354.89 106.21 353.63 109.61 C 352.73 111.38 351.62 114.32 349.11 113.39 C 344.56 110.35 343.06 104.07 338.08 101.68 C 334.55 103.48 331.13 105.53 327.34 106.73 C 327.82 105.29 328.32 103.85 328.79 102.41 C 326.46 100.42 320.95 98.31 323.42 94.50 C 328.34 87.53 337.64 85.56 342.49 78.48 C 345.72 74.72 349.98 71.84 352.35 67.36 C 354.64 63.07 358.35 59.50 363.14 58.21 C 373.42 55.30 383.74 59.40 393.86 60.99 C 401.19 62.10 408.37 65.03 413.84 70.12 C 415.10 71.45 416.60 73.01 416.47 74.98 C 415.51 77.58 412.74 79.29 410.04 79.47 C 404.80 79.91 399.95 77.49 395.01 76.16 C 397.26 78.92 399.47 81.71 401.88 84.34 C 403.24 83.69 404.48 82.64 406.01 82.43 C 407.92 82.69 409.74 83.46 411.68 83.61 C 414.84 83.42 416.95 80.75 419.04 78.71 C 420.57 78.69 422.11 78.67 423.65 78.66 C 423.29 76.04 421.83 73.09 423.63 70.69 C 425.40 70.36 427.21 70.32 429.01 70.21 C 428.49 72.44 427.89 74.65 427.34 76.87 C 431.01 76.98 433.99 74.91 436.81 72.83 C 439.44 70.79 442.91 71.48 445.99 71.43 C 449.79 71.67 453.42 70.29 457.16 69.89 C 459.35 69.78 461.53 70.40 463.73 70.17 C 464.64 68.94 465.40 67.61 466.22 66.32 C 470.30 66.93 474.27 68.19 477.90 70.17 C 479.97 71.39 482.34 71.82 484.72 71.71 C 483.47 68.48 481.99 65.35 480.62 62.17 C 483.36 59.74 485.52 56.69 488.48 54.52 C 491.05 52.82 494.00 54.35 496.46 55.43 C 494.04 61.59 495.89 68.18 496.52 74.46 C 495.09 78.18 490.74 78.86 487.35 79.73 C 487.46 80.13 487.67 80.95 487.78 81.36 C 490.25 81.24 493.16 82.02 495.18 80.17 C 497.03 78.60 498.31 76.48 499.35 74.31 C 500.63 71.95 499.48 69.30 499.11 66.87 C 498.02 62.78 499.11 58.61 499.81 54.56 C 500.79 56.90 501.72 59.28 503.12 61.41 C 506.56 61.54 509.67 59.94 511.31 56.88 C 514.86 58.77 517.81 61.53 520.30 64.65 C 521.02 64.64 522.45 64.62 523.16 64.61 C 521.69 59.95 517.86 56.70 515.62 52.46 C 521.36 52.40 527.07 51.74 532.70 50.60 C 532.53 49.14 532.36 47.68 532.21 46.22 C 537.72 45.21 542.97 43.21 548.33 41.63 C 552.98 40.10 557.71 43.51 562.26 41.58 Z" />
<path fill="#616161" opacity="0.50" d=" M 66.69 40.38 C 65.21 38.38 68.56 37.23 70.08 36.92 C 74.64 36.35 79.07 38.35 83.34 39.70 C 86.80 40.64 88.12 44.27 90.33 46.70 C 91.95 46.36 93.47 45.72 95.02 45.18 C 95.82 46.76 96.90 48.26 97.23 50.03 C 97.17 52.89 96.12 55.70 96.39 58.57 C 97.36 60.54 98.99 62.06 100.45 63.66 C 98.81 63.57 97.19 63.47 95.56 63.38 C 95.01 64.44 94.46 65.51 93.91 66.58 C 90.90 64.02 88.21 60.39 84.00 59.94 C 79.73 59.50 75.50 58.60 71.68 56.59 C 71.44 55.54 71.20 54.49 70.95 53.44 C 68.18 52.00 65.53 50.08 64.72 46.88 C 68.93 48.02 72.85 49.99 77.08 51.05 C 73.06 48.10 69.39 44.60 66.69 40.38 Z" />
<path fill="#616161" opacity="0.50" d=" M 455.49 45.95 C 454.70 42.66 456.50 36.52 460.77 37.78 C 462.98 40.75 463.12 44.93 464.64 48.33 C 461.50 48.31 457.23 49.46 455.49 45.95 Z" />
<path fill="#616161" opacity="0.50" d=" M 45.77 53.67 C 49.25 53.62 52.78 53.27 56.23 53.97 C 60.25 54.81 64.56 54.73 68.19 56.89 C 64.27 59.76 59.10 61.14 56.40 65.46 C 54.94 67.85 51.81 68.92 49.17 68.12 C 46.75 66.95 44.58 64.70 44.19 61.96 C 44.92 59.20 46.85 56.65 45.77 53.67 Z" />
<path fill="#616161" opacity="0.50" d=" M 102.37 65.01 C 101.96 62.43 105.12 61.29 107.08 60.61 C 111.04 59.57 111.57 64.52 113.08 67.02 C 114.35 71.29 119.05 72.18 122.83 72.90 C 123.63 75.28 122.84 79.67 126.66 78.81 C 129.54 76.58 131.28 73.28 133.34 70.35 C 135.12 70.36 136.91 70.38 138.69 70.40 C 137.84 73.97 138.74 77.60 138.38 81.20 C 135.96 81.59 133.50 81.52 131.09 81.87 C 128.82 82.34 127.07 84.10 124.85 84.68 C 122.87 84.92 120.88 84.58 118.91 84.43 C 120.93 85.77 122.96 87.18 124.49 89.10 C 121.29 92.52 116.35 92.13 112.19 91.23 C 113.38 92.32 114.81 93.27 115.46 94.81 C 112.88 98.89 107.05 101.44 106.83 106.64 C 109.09 109.19 111.63 111.50 113.70 114.23 C 117.30 114.36 120.97 114.90 123.94 117.10 C 127.91 120.01 133.03 119.83 137.43 121.63 C 138.54 124.47 138.50 127.93 140.78 130.20 C 142.31 131.81 144.63 132.11 146.66 132.71 C 146.62 129.23 146.44 125.76 146.23 122.29 C 148.37 120.32 151.31 118.77 152.40 115.98 C 152.03 113.07 148.68 111.08 149.21 107.92 C 149.55 104.11 149.36 100.28 148.69 96.52 C 152.62 97.11 156.63 97.11 160.54 97.80 C 163.66 99.12 166.34 101.26 169.21 103.04 C 169.20 105.45 168.63 108.01 169.62 110.31 C 171.05 110.60 172.51 110.74 173.97 110.74 C 177.76 111.22 179.57 107.19 181.87 104.96 C 183.15 106.05 184.48 107.11 185.60 108.38 C 187.75 110.95 187.69 114.69 189.74 117.29 C 193.60 120.26 198.64 121.42 202.16 124.89 C 203.27 126.06 204.56 127.82 203.52 129.43 C 201.18 131.74 197.93 132.81 194.98 134.09 C 190.04 136.24 184.54 134.76 179.40 135.79 C 174.75 137.01 171.17 140.45 167.48 143.35 C 171.59 140.90 176.12 139.28 180.86 138.68 C 180.65 140.52 179.52 142.60 180.63 144.36 C 182.68 147.92 187.21 148.36 190.65 149.88 C 186.83 151.83 182.94 153.64 178.97 155.24 C 179.60 153.04 180.29 150.85 180.90 148.64 C 176.90 150.88 172.34 151.98 168.44 154.37 C 167.51 156.22 167.08 158.27 166.46 160.24 C 161.09 160.96 156.84 164.56 153.55 168.64 C 152.39 171.09 153.87 174.14 152.69 176.60 C 149.35 180.44 143.57 181.35 140.69 185.67 C 139.26 191.11 143.98 195.91 143.41 201.40 C 137.34 201.96 137.82 194.39 135.02 190.95 C 132.35 189.35 129.13 189.08 126.11 188.73 C 122.34 188.32 119.56 192.06 115.74 191.57 C 110.16 191.36 103.74 192.39 100.10 197.04 C 97.51 201.69 98.35 207.66 100.80 212.21 C 103.28 216.62 108.75 217.41 113.15 218.77 C 114.25 216.54 115.34 214.31 116.48 212.11 C 118.51 213.38 121.76 214.20 121.94 217.05 C 121.79 219.33 121.08 221.53 120.58 223.75 C 124.64 224.00 128.73 223.83 132.79 224.13 C 136.70 227.64 131.92 234.65 136.40 237.79 C 141.13 237.10 146.60 233.08 150.90 237.12 C 154.61 240.08 151.99 244.91 150.91 248.51 C 151.53 248.55 152.77 248.64 153.39 248.68 C 153.56 247.08 153.73 245.48 153.91 243.89 C 157.45 243.18 160.99 242.05 164.65 242.17 C 165.98 243.22 167.06 244.55 168.21 245.79 C 170.63 245.54 173.07 245.08 175.52 245.30 C 179.66 249.08 183.29 253.78 188.62 256.01 C 193.01 257.47 198.40 256.53 202.00 259.96 C 204.72 262.35 205.66 265.99 205.81 269.48 C 208.40 268.03 211.01 266.62 213.65 265.26 C 213.60 267.18 213.55 269.10 213.49 271.02 C 215.77 272.45 217.90 274.24 220.49 275.10 C 224.77 275.93 229.45 275.27 233.41 277.46 C 236.36 279.17 239.20 281.09 241.99 283.05 C 244.45 284.76 243.58 288.29 243.47 290.83 C 241.70 299.15 237.46 306.67 232.98 313.80 C 231.01 316.81 229.58 320.88 225.86 322.10 C 222.24 321.92 219.00 319.79 215.37 319.67 C 211.87 320.03 208.86 323.39 209.37 326.98 C 209.75 333.38 211.49 341.23 206.20 346.16 C 200.88 349.42 194.69 351.38 188.45 351.71 C 188.29 354.86 189.22 359.33 185.68 360.98 C 182.49 362.08 179.01 361.62 175.69 361.70 C 175.50 363.59 175.32 365.48 175.13 367.38 C 172.89 367.47 170.66 367.53 168.43 367.57 C 168.25 370.50 168.83 373.69 167.43 376.39 C 165.76 378.26 163.55 379.54 161.56 381.04 C 164.54 384.40 168.31 388.06 168.32 392.86 C 167.09 395.84 165.09 398.55 162.66 400.69 C 157.30 404.44 150.49 404.90 144.16 405.36 C 144.63 401.59 145.34 397.84 145.35 394.04 C 145.46 390.49 144.99 386.73 146.59 383.43 C 147.81 380.39 149.94 377.48 149.71 374.06 C 149.14 370.24 146.17 367.03 146.58 363.00 C 146.49 356.87 150.81 351.90 151.53 345.93 C 152.55 338.32 154.91 330.55 152.87 322.89 C 151.85 317.20 146.79 313.68 144.33 308.70 C 141.15 302.36 137.11 296.53 133.50 290.45 C 131.50 286.97 127.90 284.61 126.30 280.92 C 126.58 279.30 127.62 277.96 128.40 276.56 C 128.37 274.83 128.22 273.08 128.48 271.36 C 130.42 267.83 134.42 265.99 136.36 262.46 C 137.77 259.07 136.68 255.36 136.51 251.85 C 139.36 249.55 142.42 247.49 145.08 244.96 C 146.75 243.79 145.66 241.65 145.66 240.02 C 143.54 241.54 141.50 243.19 139.46 244.83 C 135.29 239.52 128.70 237.44 123.38 233.61 C 119.09 230.22 113.31 231.46 108.26 230.83 C 108.45 228.64 108.65 226.45 108.84 224.26 C 104.38 224.20 99.70 224.41 95.58 222.39 C 91.45 220.40 87.06 219.03 82.94 217.04 C 80.16 215.94 79.70 212.71 78.64 210.29 C 76.73 204.74 71.75 201.23 67.69 197.31 C 63.87 193.84 61.10 189.45 58.42 185.08 C 57.71 185.68 56.29 186.88 55.57 187.47 C 58.80 193.02 64.22 197.38 65.43 203.96 C 63.23 201.01 60.72 198.22 57.19 196.88 C 56.64 194.60 56.03 192.28 54.63 190.36 C 51.92 186.48 49.34 182.14 44.90 180.03 C 40.03 177.76 37.09 172.99 34.78 168.36 C 32.82 164.48 32.77 159.94 30.87 156.07 C 28.39 153.51 24.61 152.01 23.54 148.30 C 21.90 143.46 18.22 139.85 14.69 136.34 C 12.83 136.43 10.96 136.52 9.10 136.59 C 10.96 132.04 14.14 128.27 17.34 124.61 C 15.04 125.32 12.79 126.16 10.58 127.09 C 10.17 122.66 11.21 117.90 9.39 113.70 C 7.62 110.22 3.29 110.58 0.00 110.22 L 0.00 68.27 C 5.97 66.55 12.21 66.25 18.38 66.73 C 20.67 67.15 22.56 65.63 24.44 64.60 C 25.99 66.55 27.37 68.66 29.25 70.31 C 33.62 70.40 38.04 68.30 42.34 69.91 C 47.08 71.72 52.05 72.75 57.12 73.00 C 56.61 74.56 56.10 76.12 55.58 77.68 C 60.21 77.32 64.81 76.17 69.47 76.56 C 71.38 77.43 72.80 79.04 74.36 80.39 C 74.73 78.72 75.11 77.04 75.50 75.37 C 84.41 75.27 93.25 78.97 102.09 76.18 C 102.74 77.16 103.38 78.14 104.03 79.12 C 106.08 76.42 108.30 73.87 110.65 71.45 C 107.63 69.92 102.27 69.38 102.37 65.01 Z" />
<path fill="#616161" opacity="0.50" d=" M 130.56 93.45 C 128.76 91.59 127.13 87.53 130.17 86.14 C 134.44 86.28 138.81 88.40 141.63 91.69 C 137.79 91.10 133.87 91.17 130.56 93.45 Z" />
<path fill="#616161" opacity="0.50" d=" M 241.61 87.43 C 248.69 86.49 255.80 84.76 262.98 85.45 C 265.84 85.19 267.92 89.56 265.39 91.29 C 261.93 93.94 257.04 96.72 252.76 94.33 C 248.81 92.48 244.38 91.00 241.61 87.43 Z" />
<path fill="#616161" opacity="0.50" d=" M 195.85 143.10 C 197.99 139.19 200.35 135.38 203.08 131.85 C 203.55 133.73 204.05 135.62 204.67 137.46 C 206.54 138.49 208.77 139.19 210.12 140.93 C 210.73 142.58 211.00 144.33 211.38 146.04 C 206.60 143.41 201.18 143.10 195.85 143.10 Z" />
<path fill="#616161" opacity="0.50" d=" M 676.63 159.46 C 681.14 158.95 684.71 162.33 687.91 164.99 C 686.03 166.97 684.33 169.42 681.73 170.48 C 680.12 170.34 678.58 169.84 677.03 169.45 C 677.68 171.57 678.33 173.70 678.90 175.85 C 676.48 179.51 676.20 183.95 674.87 188.00 C 672.74 191.20 668.30 189.82 665.15 190.95 C 660.96 192.01 661.56 197.71 657.97 199.55 C 653.39 197.68 651.57 192.63 649.16 188.71 C 651.20 187.50 653.30 186.37 655.43 185.32 C 655.84 184.43 656.26 183.54 656.68 182.66 C 658.63 181.97 660.64 181.40 662.47 180.42 C 664.03 177.70 663.21 174.36 663.47 171.37 C 665.76 170.70 668.13 170.22 670.35 169.27 C 673.19 166.56 674.38 162.62 676.63 159.46 Z" />
<path fill="#616161" opacity="0.50" d=" M 644.20 228.70 C 647.33 227.71 649.09 231.77 649.90 234.19 C 651.22 237.22 648.85 239.92 647.56 242.48 C 646.19 244.56 645.31 247.27 642.95 248.45 C 639.81 248.46 636.90 246.98 633.89 246.26 C 629.32 245.52 625.59 240.25 626.62 235.74 C 631.13 234.82 635.94 235.88 640.33 234.30 C 641.83 232.58 642.80 230.49 644.20 228.70 Z" />
<path fill="#616161" opacity="0.50" d=" M 653.68 239.69 C 656.28 237.07 660.25 237.02 663.67 236.43 C 661.07 239.94 659.91 244.16 658.07 248.05 C 656.87 250.55 654.18 251.63 651.55 251.66 C 652.17 247.68 652.01 243.42 653.68 239.69 Z" />
<path fill="#616161" opacity="0.50" d=" M 610.39 242.43 C 613.92 240.74 617.87 240.14 621.61 239.02 C 621.62 240.62 621.63 242.21 621.65 243.81 C 617.53 246.93 612.19 246.99 607.27 247.39 C 608.06 245.63 608.45 243.33 610.39 242.43 Z" />
<path fill="#616161" opacity="0.50" d=" M 587.40 252.36 C 591.39 250.78 595.60 252.48 599.49 253.57 C 607.57 256.30 616.73 256.87 623.47 262.62 C 623.74 263.59 623.83 264.57 623.72 265.59 C 621.48 267.84 618.05 268.50 614.99 268.23 C 611.12 267.70 607.96 265.21 604.62 263.40 C 599.71 260.61 594.21 259.18 588.95 257.26 C 587.17 256.55 585.08 255.91 584.29 253.97 C 585.26 253.31 586.30 252.77 587.40 252.36 Z" />
<path fill="#616161" opacity="0.50" d=" M 648.07 257.18 C 655.86 257.58 662.50 262.31 670.09 263.61 C 674.69 264.62 679.65 263.96 683.99 266.06 C 690.22 269.04 695.79 274.62 696.44 281.81 C 691.22 280.28 687.43 275.80 682.04 274.71 C 678.59 275.72 675.77 280.09 671.84 278.22 C 668.54 276.25 666.38 272.86 663.04 270.94 C 658.25 268.24 653.35 265.53 649.46 261.58 C 648.27 260.44 648.43 258.65 648.07 257.18 Z" />
<path fill="#616161" opacity="0.50" d=" M 666.70 285.65 C 669.42 284.67 671.37 282.21 674.14 281.38 C 679.54 282.03 684.15 285.54 688.08 289.11 C 686.51 291.11 684.89 293.06 683.33 295.06 C 685.08 297.81 686.31 302.18 690.02 302.68 C 697.27 300.76 702.61 293.48 710.67 294.16 C 713.45 297.90 716.27 302.11 715.76 307.02 C 716.23 312.68 709.39 316.23 710.78 321.93 C 712.00 327.52 710.24 333.19 708.24 338.38 C 706.67 342.55 702.41 344.56 699.02 347.01 C 694.47 349.98 690.72 354.29 685.51 356.17 C 678.30 357.90 669.72 356.09 665.07 349.96 C 660.34 343.32 658.23 335.18 653.34 328.66 C 651.25 325.67 647.48 324.71 644.03 324.59 C 635.37 324.23 626.70 325.19 618.04 324.65 C 615.50 324.55 612.92 323.22 611.75 320.90 C 611.81 319.21 612.44 317.62 612.89 316.01 C 614.05 312.59 613.08 308.83 614.44 305.46 C 615.85 301.70 616.73 297.76 618.12 294.00 C 619.22 290.70 622.72 289.03 625.97 288.71 C 631.33 288.17 636.71 288.91 642.08 288.77 C 647.37 288.86 651.07 284.11 656.14 283.35 C 659.86 283.01 662.94 286.50 666.70 285.65 Z" />
<path fill="#616161" opacity="0.50" d=" M 734.10 336.92 C 739.79 339.53 742.89 345.57 748.76 347.96 C 746.18 351.39 744.05 356.23 739.12 356.49 C 738.23 352.01 739.00 347.18 736.97 342.97 C 736.05 340.93 735.02 338.95 734.10 336.92 Z" />
<path fill="#616161" opacity="0.50" d=" M 724.93 361.92 C 728.53 359.75 731.19 356.28 735.01 354.44 C 736.78 354.94 738.27 356.60 737.48 358.51 C 735.33 361.02 732.43 362.84 730.62 365.65 C 729.34 367.27 728.41 369.38 726.53 370.39 C 724.09 370.76 721.61 370.59 719.16 370.59 C 717.49 366.26 721.97 363.95 724.93 361.92 Z" />
</g>
</svg>
