<?xml version="1.0" encoding="UTF-8" ?>
<!DOCTYPE svg PUBLIC "-//W3C//DTD SVG 1.1//EN" "http://www.w3.org/Graphics/SVG/1.1/DTD/svg11.dtd">
<svg width="1317pt" height="312pt" viewBox="0 0 1317 312" version="1.1" xmlns="http://www.w3.org/2000/svg">
<g id="#ffffffff">
<path fill="#ffffff" opacity="1.00" d=" M 1129.04 26.01 C 1145.69 10.99 1167.29 0.45 1190.01 0.23 C 1210.12 -0.41 1229.79 7.22 1245.79 19.07 C 1263.09 31.98 1276.53 49.45 1286.97 68.20 C 1307.45 105.42 1316.24 148.14 1317.00 190.36 L 1317.00 197.54 C 1316.38 234.16 1309.57 270.99 1294.48 304.49 C 1293.11 307.00 1292.41 310.01 1290.25 312.00 L 0.34 312.00 C -0.67 291.97 3.24 271.73 11.55 253.49 C 23.56 227.09 44.89 205.10 70.85 192.21 C 89.43 182.86 110.35 178.60 131.07 178.91 C 153.49 179.85 175.88 186.13 194.87 198.26 C 221.38 214.64 241.33 241.16 249.95 271.10 C 264.11 251.81 289.76 242.26 313.14 246.85 C 317.55 247.93 321.89 249.25 326.11 250.90 C 326.47 251.17 327.19 251.70 327.55 251.96 C 322.56 233.14 319.44 213.51 321.37 194.02 C 323.24 169.32 330.75 144.97 343.69 123.82 C 356.00 103.43 373.15 85.96 393.55 73.62 C 416.12 59.93 442.61 52.40 469.07 53.23 C 493.48 53.45 517.66 60.89 538.55 73.38 C 570.80 92.75 594.52 124.91 605.19 160.83 C 608.60 172.91 610.44 185.33 611.59 197.81 C 619.45 190.95 628.33 185.31 637.47 180.30 C 650.39 172.78 664.22 166.93 678.28 161.91 C 709.72 151.29 742.84 145.62 776.02 145.24 C 814.73 144.25 853.72 149.72 890.32 162.52 C 920.62 173.40 949.95 189.26 972.02 213.12 C 981.86 224.04 990.31 236.55 995.04 250.56 C 1011.11 241.70 1030.61 239.08 1048.18 244.83 C 1057.35 247.77 1065.51 252.93 1073.47 258.22 C 1066.82 229.73 1065.05 200.19 1067.15 171.04 C 1069.37 143.24 1075.24 115.60 1085.96 89.79 C 1095.88 65.98 1109.80 43.42 1129.04 26.01 Z" />
</g>
</svg>
