<?xml version="1.0" encoding="UTF-8" ?>
<!DOCTYPE svg PUBLIC "-//W3C//DTD SVG 1.1//EN" "http://www.w3.org/Graphics/SVG/1.1/DTD/svg11.dtd">
<svg width="995pt" height="325pt" viewBox="0 0 995 325" version="1.1" xmlns="http://www.w3.org/2000/svg">
<g id="#3a8b79f3">
<path fill="#3a8b79" opacity="0.95" d=" M 819.00 0.48 C 819.75 0.48 821.25 0.48 822.00 0.48 C 822.00 10.30 822.00 20.11 822.00 29.92 C 823.32 30.00 824.66 30.08 826.00 30.16 C 826.68 35.77 827.26 41.39 827.92 47.00 C 831.33 47.00 834.74 47.00 838.16 46.99 C 838.66 47.93 839.17 48.87 839.69 49.81 C 837.10 53.83 834.50 57.85 831.86 61.83 C 830.60 63.86 828.90 65.94 829.21 68.49 C 829.81 79.99 830.40 91.50 831.01 103.00 C 839.05 103.30 847.20 102.26 855.17 103.70 C 849.18 115.41 842.72 126.87 836.50 138.45 C 835.53 140.13 835.04 142.04 835.30 143.98 C 839.57 203.32 843.72 262.66 847.99 322.00 C 896.83 322.00 945.67 322.00 994.51 322.00 C 994.51 322.75 994.52 324.25 994.52 325.00 L 0.47 325.00 C 0.48 324.25 0.49 322.75 0.49 322.00 C 35.33 322.00 70.16 322.00 105.00 322.00 C 104.80 282.99 104.34 243.99 104.10 204.98 C 104.13 199.86 101.63 195.17 101.41 190.07 C 100.84 181.72 100.74 173.34 100.13 164.99 C 99.94 161.77 97.80 159.17 96.34 156.45 C 96.75 156.21 97.58 155.71 98.00 155.46 C 97.52 155.48 96.55 155.51 96.07 155.52 C 96.00 154.27 95.93 153.03 95.85 151.78 C 94.85 150.68 93.29 149.82 93.10 148.19 C 94.12 147.06 95.29 146.09 96.45 145.12 C 95.44 143.69 95.18 141.32 93.23 140.85 C 91.14 139.93 88.64 139.76 86.88 138.24 C 85.27 136.96 86.56 134.77 88.13 134.19 C 92.04 132.45 96.41 132.30 100.59 131.66 C 103.18 124.68 103.99 117.27 104.68 109.91 C 104.22 108.81 103.65 107.74 103.36 106.57 C 104.25 105.75 105.17 104.96 106.13 104.22 C 105.92 101.84 105.61 99.46 105.20 97.11 C 109.71 94.60 115.00 95.87 119.90 95.75 C 124.48 95.95 122.10 101.43 122.90 104.32 C 124.85 105.89 125.34 108.09 123.45 109.94 C 124.39 117.09 124.74 124.40 126.85 131.34 C 131.49 132.47 136.47 132.20 140.91 134.15 C 142.32 134.74 143.48 136.07 143.03 137.70 C 140.78 139.98 137.44 140.32 134.53 141.20 C 133.98 142.57 133.43 143.93 132.89 145.30 C 133.97 146.20 135.08 147.08 136.06 148.10 C 136.19 150.33 133.70 150.96 132.29 152.13 C 132.26 155.76 130.62 158.98 128.82 162.03 C 129.06 168.02 128.48 173.99 128.27 179.97 C 127.94 185.85 128.14 191.87 126.36 197.56 C 124.40 203.51 125.25 209.86 125.21 216.01 C 125.44 251.34 125.89 286.67 126.00 322.00 C 148.33 322.00 170.67 322.00 193.00 322.00 C 192.78 295.00 192.30 268.01 192.08 241.01 C 206.54 228.44 221.10 215.99 235.62 203.49 C 235.35 159.61 235.18 115.73 235.09 71.85 C 235.77 71.76 237.12 71.58 237.80 71.49 C 251.65 80.93 265.83 89.88 279.71 99.28 C 281.72 100.41 282.12 102.83 282.03 104.94 C 281.97 177.29 282.02 249.65 282.00 322.00 C 298.67 322.00 315.33 322.00 332.00 322.00 C 332.00 273.16 332.00 224.32 332.00 175.48 C 332.75 175.48 334.25 175.48 335.00 175.49 C 335.00 224.32 335.00 273.16 335.00 322.00 C 350.00 322.00 365.00 322.00 380.00 322.00 C 380.00 273.16 380.00 224.32 380.00 175.48 C 380.75 175.48 382.25 175.48 383.00 175.48 C 383.00 183.66 383.00 191.83 383.00 200.00 C 402.00 200.00 421.00 200.00 440.00 200.00 C 440.00 192.16 440.00 184.32 440.00 176.48 C 440.75 176.48 442.25 176.48 443.00 176.48 C 443.00 224.99 443.00 273.49 443.00 322.00 C 458.33 322.00 473.67 322.00 489.00 322.00 C 489.00 273.49 489.00 224.99 489.00 176.48 C 489.75 176.48 491.25 176.48 492.00 176.48 C 492.00 224.99 492.00 273.49 492.00 322.00 C 514.21 321.98 536.42 322.04 558.62 321.97 C 563.21 309.25 567.90 296.57 572.53 283.86 C 562.78 280.70 553.04 275.00 548.49 265.40 C 544.86 258.62 545.50 250.05 549.67 243.66 C 554.82 235.57 563.54 229.68 572.98 227.99 C 573.01 194.87 573.02 161.74 572.97 128.62 C 565.43 126.30 557.92 122.05 554.20 114.81 C 550.76 108.43 552.04 100.18 556.71 94.75 C 563.11 87.05 573.29 83.74 583.01 83.20 C 582.70 72.39 582.35 61.58 582.04 50.77 C 583.05 50.77 584.07 50.77 585.09 50.77 C 585.37 61.61 585.73 72.45 586.06 83.30 C 596.88 83.67 608.64 87.94 614.49 97.59 C 618.88 104.45 617.25 113.92 611.67 119.62 C 607.66 124.38 601.73 126.57 596.16 128.85 C 595.81 161.74 596.07 194.65 596.02 227.54 C 606.30 230.07 616.86 235.10 622.50 244.47 C 626.53 250.80 627.37 259.20 623.97 265.98 C 619.76 275.65 610.12 281.49 600.50 284.73 C 603.75 297.15 607.20 309.52 610.41 321.96 C 626.34 322.05 642.27 321.98 658.20 322.00 C 659.74 302.98 661.08 283.95 662.66 264.94 C 663.88 255.34 659.50 246.28 658.09 236.94 C 659.43 236.13 661.03 236.37 662.53 236.19 C 661.07 229.78 659.37 223.41 658.10 216.95 C 659.41 216.10 661.04 216.38 662.53 216.19 C 660.91 209.57 659.44 202.91 657.91 196.26 C 659.67 196.11 661.45 195.99 663.24 195.87 C 661.50 189.52 659.75 183.16 658.04 176.80 C 659.84 176.38 661.66 176.01 663.50 175.66 C 661.62 169.20 659.94 162.68 658.12 156.20 C 658.67 155.92 659.78 155.35 660.33 155.07 C 661.12 155.24 662.69 155.59 663.48 155.76 C 661.74 149.04 659.68 142.41 657.98 135.68 C 659.65 135.09 661.42 134.95 663.18 134.68 C 661.46 129.01 659.99 123.27 658.14 117.64 C 658.33 117.02 658.72 115.78 658.91 115.16 C 660.33 115.38 661.76 115.60 663.19 115.83 C 661.62 109.28 658.75 102.99 658.29 96.22 C 660.30 96.42 662.31 96.67 664.33 96.91 C 667.75 94.94 671.38 93.36 674.99 91.75 C 675.05 84.26 674.90 76.77 675.08 69.28 C 677.71 69.08 680.35 68.98 683.00 68.92 C 683.00 59.77 683.00 50.63 683.00 41.48 C 683.75 41.48 685.25 41.48 686.00 41.48 C 686.00 50.64 686.00 59.80 686.00 68.95 C 688.24 68.98 690.49 69.02 692.75 69.10 C 693.25 76.29 692.89 83.50 693.02 90.70 C 696.67 92.63 700.34 94.56 703.77 96.90 C 705.80 96.66 707.83 96.43 709.88 96.22 C 709.35 102.94 706.68 109.22 704.97 115.68 C 706.68 115.96 708.43 116.13 710.09 116.70 C 708.55 123.15 706.41 129.45 704.70 135.86 C 706.36 135.60 708.03 135.34 709.71 135.10 C 709.57 142.05 706.48 148.50 704.83 155.18 C 706.10 155.22 707.37 155.33 708.65 155.51 C 709.23 156.66 708.59 157.98 708.45 159.17 C 707.02 164.87 705.81 170.63 704.38 176.34 C 705.90 176.50 707.70 175.89 709.03 176.95 C 707.83 183.61 705.94 190.13 704.59 196.77 C 705.41 196.59 707.05 196.25 707.86 196.07 C 708.41 196.34 709.51 196.89 710.05 197.16 C 708.55 203.63 707.11 210.12 705.61 216.59 C 706.85 216.46 708.10 216.34 709.35 216.23 C 709.51 216.85 709.82 218.08 709.97 218.70 C 708.43 224.65 707.10 230.65 705.61 236.62 C 707.03 236.49 708.45 236.38 709.89 236.27 C 709.52 244.73 705.48 252.59 705.29 261.04 C 706.78 281.36 708.34 301.68 709.90 322.00 C 737.34 322.00 764.77 322.00 792.20 322.00 C 796.46 262.60 800.56 203.20 804.84 143.81 C 805.42 140.54 803.27 137.83 801.81 135.14 C 795.85 124.80 789.94 114.42 784.14 103.99 C 792.26 101.91 800.78 103.47 809.07 103.00 C 809.53 90.34 809.49 77.66 810.28 65.02 C 807.07 59.91 803.75 54.87 800.47 49.80 C 800.91 48.87 801.36 47.93 801.81 47.00 C 805.29 47.00 808.78 47.00 812.27 47.00 C 812.90 41.47 813.46 35.92 814.18 30.40 C 815.78 30.21 817.38 30.03 819.00 29.86 C 819.00 20.07 819.00 10.28 819.00 0.48 M 814.50 50.03 C 811.10 50.00 807.71 50.00 804.32 50.01 C 807.44 54.83 810.51 59.69 813.73 64.44 C 813.55 64.76 813.19 65.41 813.00 65.73 C 812.98 73.81 812.62 81.89 812.45 89.97 C 812.22 95.33 812.51 100.73 811.55 106.03 C 803.91 105.98 796.28 106.00 788.65 106.01 C 795.11 117.34 801.44 128.76 808.04 140.02 C 803.81 200.68 799.46 261.33 795.21 321.99 C 811.81 322.01 828.41 321.99 845.01 322.00 C 840.64 261.56 836.45 201.10 832.08 140.66 L 833.86 140.79 C 833.48 140.49 832.71 139.90 832.32 139.60 C 838.54 128.48 844.47 117.20 850.57 106.01 C 843.15 105.94 835.73 106.11 828.32 105.92 C 827.27 92.57 826.93 79.17 826.08 65.81 C 826.50 65.73 827.34 65.57 827.76 65.48 C 827.40 65.27 826.69 64.83 826.33 64.61 C 829.64 59.82 832.68 54.85 835.90 50.00 C 832.41 49.91 828.87 50.33 825.42 49.71 C 824.30 44.20 824.11 38.56 823.32 33.00 C 821.15 33.00 818.99 33.00 816.84 33.00 C 816.09 38.68 815.91 44.46 814.50 50.03 M 678.00 72.00 C 677.96 78.00 678.06 84.00 678.00 90.00 C 678.06 91.56 677.23 92.93 676.71 94.34 C 671.63 95.91 667.26 99.76 661.83 100.01 C 663.64 106.15 665.36 112.33 667.15 118.49 C 665.37 118.71 663.59 118.85 661.82 118.96 C 663.63 125.10 665.33 131.27 667.14 137.41 C 665.38 137.72 663.61 137.99 661.86 138.23 C 663.39 143.81 664.97 149.37 666.46 154.97 C 666.86 156.33 666.65 157.76 666.58 159.16 C 665.03 158.94 663.48 158.73 661.95 158.51 C 663.63 164.46 665.14 170.46 666.91 176.38 C 666.82 177.02 666.63 178.30 666.54 178.93 C 664.97 178.98 663.39 179.00 661.84 179.04 C 663.60 185.51 665.35 191.98 667.14 198.44 C 665.34 198.75 663.53 198.99 661.73 199.23 C 662.86 206.21 665.96 213.02 665.55 220.15 C 664.62 220.03 662.77 219.79 661.84 219.67 C 662.95 226.51 665.97 233.16 665.55 240.15 C 664.62 240.03 662.77 239.79 661.84 239.68 C 663.25 245.81 664.63 251.96 666.04 258.10 C 665.54 258.20 664.54 258.41 664.04 258.52 C 664.55 258.56 665.56 258.64 666.07 258.68 C 664.47 279.79 662.82 300.89 661.22 322.00 C 676.44 322.00 691.67 322.00 706.90 322.00 C 705.29 300.91 703.72 279.82 702.10 258.74 L 704.09 258.64 C 703.60 258.53 702.63 258.30 702.14 258.19 C 703.60 251.98 705.07 245.78 706.58 239.59 C 705.67 239.72 703.83 239.97 702.92 240.10 C 702.72 239.55 702.32 238.43 702.11 237.87 C 703.75 231.80 705.06 225.65 706.60 219.56 C 704.82 219.75 703.05 219.94 701.29 220.11 C 703.43 213.35 704.78 206.38 706.40 199.48 C 704.76 199.71 703.13 199.93 701.50 200.15 C 701.38 193.16 704.17 186.49 705.37 179.66 C 704.42 179.77 702.54 180.00 701.59 180.12 C 701.05 172.78 704.15 165.80 705.37 158.65 C 704.51 158.76 702.80 158.98 701.94 159.09 C 701.73 158.54 701.32 157.44 701.12 156.89 C 703.04 150.84 704.64 144.70 706.44 138.62 C 705.65 138.73 704.07 138.95 703.28 139.06 C 702.76 138.55 701.72 137.51 701.20 137.00 C 702.86 131.06 704.55 125.13 706.28 119.22 C 704.53 119.00 702.80 118.77 701.08 118.48 C 702.80 112.18 704.63 105.91 706.44 99.63 C 705.51 99.75 703.65 99.99 702.72 100.11 C 702.73 99.64 702.73 98.71 702.74 98.24 C 702.42 98.41 701.79 98.73 701.48 98.89 C 697.79 96.75 694.11 94.50 690.02 93.23 C 689.96 86.15 690.01 79.08 690.00 72.00 C 686.00 72.00 682.00 72.00 678.00 72.00 M 238.13 75.49 C 238.06 95.66 238.34 115.82 238.27 135.99 C 251.60 124.69 264.77 113.21 278.04 101.84 C 264.76 93.03 251.40 84.33 238.13 75.49 M 572.09 88.25 C 566.40 90.16 560.87 93.47 557.66 98.69 C 555.16 102.56 554.43 107.61 556.20 111.92 C 558.56 117.81 564.00 121.97 569.79 124.20 C 571.43 124.97 573.78 125.23 573.92 127.53 C 574.44 127.52 575.49 127.50 576.01 127.50 C 576.00 131.00 576.00 134.50 576.00 138.00 C 581.66 138.00 587.33 138.00 593.00 138.00 C 592.99 134.19 593.00 130.39 592.98 126.59 C 597.84 124.87 602.93 123.31 606.94 119.91 C 611.34 116.34 614.71 110.77 613.90 104.92 C 613.13 98.67 608.34 93.75 603.05 90.81 C 593.67 85.75 582.18 84.93 572.09 88.25 M 108.98 98.57 C 109.00 100.52 109.02 102.47 109.04 104.43 C 112.62 104.17 116.23 104.16 119.81 104.41 C 119.51 102.27 119.12 100.07 120.60 98.30 C 116.72 98.26 112.84 98.18 108.98 98.57 M 240.06 138.52 C 253.05 147.26 266.02 156.02 279.00 164.78 C 279.00 144.87 279.00 124.95 279.00 105.04 C 266.01 116.19 253.07 127.40 240.06 138.52 M 108.43 109.48 C 108.08 110.23 107.40 111.73 107.05 112.48 C 111.63 112.26 116.22 112.10 120.81 112.36 C 120.64 111.58 120.30 110.03 120.13 109.26 C 116.23 109.33 112.30 109.00 108.43 109.48 M 107.09 115.68 C 106.85 117.62 106.60 119.57 106.35 121.51 C 111.55 121.10 116.78 121.08 121.97 121.55 C 121.60 119.52 121.42 117.44 120.72 115.49 C 116.19 114.98 111.61 115.22 107.09 115.68 M 105.87 124.57 C 105.17 126.87 104.47 129.17 103.78 131.47 C 110.38 131.07 117.00 131.19 123.61 131.34 C 123.14 129.12 122.68 126.90 122.22 124.68 C 116.79 124.06 111.31 124.13 105.87 124.57 M 89.82 136.63 C 92.52 137.42 95.29 137.96 98.08 138.35 C 98.08 140.63 98.52 142.87 99.30 145.01 C 109.42 144.07 119.61 143.82 129.72 145.03 C 130.10 144.00 130.49 142.97 130.88 141.95 C 130.60 140.80 130.34 139.65 130.08 138.50 C 133.21 138.06 136.36 137.62 139.37 136.60 C 130.77 134.40 121.83 134.20 113.00 134.24 C 105.22 134.17 97.36 134.63 89.82 136.63 M 238.35 140.97 C 238.46 161.23 238.45 181.49 238.64 201.75 C 251.79 190.44 264.93 179.11 278.09 167.81 C 264.88 158.80 251.58 149.94 238.35 140.97 M 576.00 141.00 C 576.00 145.67 576.00 150.33 576.00 155.00 C 581.66 155.00 587.33 155.00 593.00 155.00 C 593.00 150.33 593.00 145.67 593.00 141.00 C 587.33 141.00 581.66 141.00 576.00 141.00 M 98.20 148.15 C 100.88 149.89 98.10 153.29 99.38 155.67 C 100.65 158.38 102.74 160.80 103.02 163.89 C 103.54 168.09 103.50 172.32 103.73 176.54 C 110.90 176.15 118.09 176.00 125.25 176.62 C 125.25 177.35 125.25 178.83 125.25 179.57 C 119.84 179.21 114.41 179.20 108.98 179.26 C 107.00 179.29 104.93 179.40 103.20 180.46 C 110.52 180.27 117.85 179.97 125.15 180.68 C 125.67 174.21 125.98 167.66 125.74 161.17 C 128.21 157.71 129.82 153.74 128.82 149.43 C 129.67 149.07 130.53 148.71 131.38 148.35 C 120.39 146.72 109.23 147.07 98.20 148.15 M 576.00 158.00 C 576.00 162.67 576.00 167.33 576.00 172.00 C 581.66 172.00 587.33 172.00 593.00 172.00 C 593.00 167.33 593.00 162.67 593.00 158.00 C 587.33 158.00 581.66 158.00 576.00 158.00 M 240.06 204.51 C 253.05 213.26 266.02 222.02 279.00 230.78 C 279.00 210.87 279.00 190.96 279.00 171.04 C 266.01 182.19 253.07 193.40 240.06 204.51 M 576.00 175.00 C 576.00 179.33 576.00 183.67 576.00 188.00 C 581.66 188.00 587.33 188.00 593.00 188.00 C 593.00 183.67 593.00 179.33 593.00 175.00 C 587.33 175.00 581.66 175.00 576.00 175.00 M 103.45 185.56 C 110.82 185.16 118.19 185.04 125.55 185.61 C 125.26 185.17 124.68 184.31 124.39 183.87 C 119.31 182.89 114.09 183.30 108.96 183.29 C 106.93 183.52 104.15 182.94 103.45 185.56 M 104.20 188.70 C 104.33 193.65 106.83 198.13 107.13 203.02 C 107.33 242.68 107.87 282.34 108.00 322.00 C 113.00 322.00 118.00 322.00 123.00 322.00 C 122.82 281.99 122.28 241.98 122.10 201.97 C 122.78 197.52 124.88 193.33 125.01 188.74 C 118.10 188.03 111.12 188.04 104.20 188.70 M 576.00 191.00 C 576.00 195.33 576.00 199.67 576.00 204.00 C 581.66 204.00 587.33 204.00 593.00 204.00 C 593.00 199.67 593.00 195.33 593.00 191.00 C 587.33 191.00 581.66 191.00 576.00 191.00 M 383.00 203.00 C 383.00 205.67 383.00 208.33 383.00 211.00 C 402.00 211.00 421.00 211.00 440.00 211.00 C 440.00 208.33 440.00 205.66 440.00 203.00 C 421.00 203.00 402.00 203.00 383.00 203.00 M 576.00 207.00 C 576.00 211.33 576.00 215.67 576.00 220.00 C 581.66 220.00 587.33 220.00 593.00 220.00 C 593.00 215.67 593.00 211.33 593.00 207.00 C 587.33 207.00 581.66 207.00 576.00 207.00 M 196.06 241.51 C 209.35 250.45 222.60 259.44 235.89 268.37 C 235.68 248.11 235.68 227.85 235.60 207.60 C 222.34 218.80 209.29 230.26 196.06 241.51 M 238.62 207.12 C 238.74 227.23 238.68 247.34 238.94 267.44 C 252.01 256.25 265.09 245.07 278.05 233.74 C 264.91 224.85 251.72 216.05 238.62 207.12 M 383.00 214.00 C 383.00 222.96 382.99 231.92 383.01 240.89 C 391.44 231.95 399.82 222.98 408.22 214.02 C 399.81 213.98 391.41 214.01 383.00 214.00 M 414.07 214.00 C 422.67 222.98 431.37 231.87 440.00 240.82 C 440.00 231.88 440.00 222.94 440.00 214.00 C 431.35 214.00 422.71 214.00 414.07 214.00 M 383.04 245.27 C 382.95 270.85 383.02 296.42 383.00 322.00 C 402.00 322.00 421.00 322.00 440.00 322.00 C 440.00 296.39 440.00 270.78 440.00 245.17 C 430.35 235.26 420.78 225.29 411.12 215.39 C 401.73 225.33 392.46 235.37 383.04 245.27 M 576.03 223.00 C 576.01 225.19 575.99 227.37 575.94 229.56 C 575.40 229.58 574.31 229.62 573.77 229.64 C 570.31 232.16 565.93 232.89 562.42 235.36 C 554.78 240.09 547.87 248.55 549.30 258.07 C 551.02 268.73 560.42 276.40 570.19 279.70 C 572.49 280.31 574.31 281.82 575.97 283.46 C 571.16 296.27 566.55 309.16 561.82 322.00 C 576.97 322.00 592.13 322.00 607.29 322.00 C 603.89 309.51 600.65 296.98 597.16 284.51 C 599.90 280.62 604.95 280.28 608.69 277.80 C 616.01 273.70 622.25 266.53 623.07 257.93 C 623.67 248.74 617.32 240.60 609.69 236.19 C 604.59 232.80 598.49 231.79 592.96 229.37 C 592.98 227.25 592.99 225.12 593.00 223.00 C 587.34 223.00 581.69 223.00 576.03 223.00 M 240.03 270.55 C 253.04 279.56 266.00 288.66 278.99 297.71 C 279.01 277.49 278.99 257.27 279.00 237.05 C 265.99 248.20 253.04 259.42 240.03 270.55 M 195.11 244.45 C 195.35 264.18 195.64 283.92 195.82 303.66 C 208.63 292.77 221.37 281.79 234.05 270.76 C 221.09 261.96 208.05 253.28 195.11 244.45 M 197.97 305.85 C 197.17 306.75 195.67 307.48 195.93 308.92 C 195.86 313.28 196.09 317.64 196.00 322.00 C 209.34 322.00 222.67 322.00 236.00 322.00 C 236.09 305.74 235.84 289.49 235.87 273.24 C 223.28 284.16 210.64 295.03 197.97 305.85 M 238.91 273.41 C 238.88 289.60 239.08 305.80 239.00 322.00 C 252.33 322.00 265.67 322.00 279.00 322.00 C 278.99 315.11 279.02 308.21 278.98 301.32 C 265.59 292.06 252.27 282.70 238.91 273.41 Z" />
<path fill="#3a8b79" opacity="0.95" d=" M 356.11 65.17 C 356.85 65.19 358.33 65.22 359.07 65.23 C 362.10 70.79 364.96 76.45 368.00 82.02 C 369.61 84.55 368.84 87.69 369.03 90.51 C 368.29 90.52 366.79 90.52 366.05 90.53 C 365.89 87.99 366.41 85.22 364.98 82.95 C 362.52 78.27 360.02 73.62 357.56 68.93 C 355.07 73.90 352.35 78.75 349.85 83.71 C 348.54 86.10 349.14 88.92 348.98 91.52 C 348.22 91.52 346.71 91.52 345.95 91.52 C 346.06 88.44 345.57 85.14 347.10 82.32 C 350.03 76.57 353.15 70.91 356.11 65.17 Z" />
<path fill="#3a8b79" opacity="0.95" d=" M 465.10 66.19 C 465.82 66.19 467.28 66.20 468.01 66.21 C 470.86 71.24 473.66 76.31 476.48 81.36 C 478.45 84.39 477.96 88.10 478.04 91.52 C 477.28 91.52 475.77 91.52 475.01 91.52 C 474.82 88.72 475.56 85.61 473.99 83.09 C 471.52 78.65 469.05 74.21 466.51 69.81 C 464.01 74.48 461.32 79.05 458.81 83.71 C 457.47 86.09 458.18 88.93 457.98 91.52 C 457.23 91.52 455.71 91.52 454.96 91.51 C 455.06 88.43 454.55 85.11 456.15 82.30 C 459.06 76.89 462.13 71.57 465.10 66.19 Z" />
<path fill="#3a8b79" opacity="0.95" d=" M 113.00 75.48 C 113.75 75.48 115.25 75.48 116.00 75.48 C 116.15 82.05 115.64 88.66 116.37 95.20 C 115.12 95.18 113.88 95.17 112.63 95.19 C 113.35 88.65 112.85 82.05 113.00 75.48 Z" />
<path fill="#3a8b79" opacity="0.95" d=" M 344.00 92.48 C 344.75 92.48 346.25 92.48 347.00 92.48 C 347.00 98.49 347.00 104.51 347.00 110.52 C 346.25 110.52 344.75 110.52 344.00 110.52 C 344.00 104.50 344.00 98.49 344.00 92.48 Z" />
<path fill="#3a8b79" opacity="0.95" d=" M 368.00 92.48 C 368.75 92.48 370.25 92.48 371.00 92.48 C 371.00 98.49 371.00 104.51 371.00 110.52 C 370.25 110.52 368.75 110.52 368.00 110.52 C 368.00 104.51 368.00 98.49 368.00 92.48 Z" />
<path fill="#3a8b79" opacity="0.95" d=" M 452.00 93.48 C 452.75 93.48 454.25 93.48 455.00 93.48 C 455.00 99.16 455.00 104.84 455.00 110.52 C 454.25 110.52 452.75 110.52 452.00 110.52 C 452.00 104.84 452.00 99.16 452.00 93.48 Z" />
<path fill="#3a8b79" opacity="0.95" d=" M 477.00 93.48 C 477.75 93.48 479.25 93.48 480.00 93.48 C 480.00 99.16 480.00 104.84 480.00 110.52 C 479.25 110.52 477.75 110.52 477.00 110.52 C 477.00 104.84 477.00 99.16 477.00 93.48 Z" />
<path fill="#3a8b79" opacity="0.95" d=" M 340.00 110.49 C 340.75 110.49 342.25 110.48 343.00 110.48 C 343.00 119.49 343.00 128.50 343.00 137.52 C 342.25 137.52 340.75 137.52 340.00 137.52 C 340.00 128.51 340.00 119.50 340.00 110.49 Z" />
<path fill="#3a8b79" opacity="0.95" d=" M 372.00 110.49 C 372.75 110.49 374.25 110.48 375.00 110.48 C 375.00 119.49 375.00 128.50 375.00 137.51 C 374.25 137.51 372.75 137.52 372.00 137.52 C 372.00 128.51 372.00 119.50 372.00 110.49 Z" />
<path fill="#3a8b79" opacity="0.95" d=" M 449.00 111.48 C 449.75 111.48 451.25 111.48 452.00 111.48 C 452.00 120.49 452.00 129.50 452.00 138.51 C 451.25 138.52 449.75 138.52 449.00 138.52 C 449.00 129.51 449.00 120.50 449.00 111.48 Z" />
<path fill="#3a8b79" opacity="0.95" d=" M 481.00 111.48 C 481.75 111.48 483.25 111.49 484.00 111.49 C 484.00 120.17 484.00 128.84 484.00 137.52 C 483.25 137.52 481.75 137.52 481.00 137.52 C 481.00 128.84 481.00 120.16 481.00 111.48 Z" />
<path fill="#3a8b79" opacity="0.95" d=" M 376.00 137.48 C 376.75 137.48 378.25 137.48 379.00 137.48 C 379.00 150.16 379.00 162.84 379.00 175.51 C 378.25 175.52 376.75 175.52 376.00 175.52 C 376.00 162.84 376.00 150.16 376.00 137.48 Z" />
<path fill="#3a8b79" opacity="0.95" d=" M 336.00 138.48 C 336.75 138.48 338.25 138.48 339.00 138.48 C 339.00 150.83 339.00 163.17 339.00 175.52 C 338.25 175.52 336.75 175.52 336.00 175.52 C 336.00 163.17 336.00 150.83 336.00 138.48 Z" />
<path fill="#3a8b79" opacity="0.95" d=" M 445.00 138.48 C 445.75 138.48 447.25 138.48 448.00 138.48 C 448.00 151.16 448.00 163.84 448.00 176.52 C 447.25 176.52 445.75 176.51 445.00 176.51 C 445.00 163.84 445.00 151.16 445.00 138.48 Z" />
<path fill="#3a8b79" opacity="0.95" d=" M 485.00 138.48 C 485.75 138.48 487.25 138.48 488.00 138.49 C 488.00 151.16 488.00 163.84 488.00 176.52 C 487.25 176.52 485.75 176.52 485.00 176.52 C 485.00 163.84 485.00 151.16 485.00 138.48 Z" />
<path fill="#3a8b79" opacity="0.95" d=" M 103.70 167.54 C 110.76 167.28 117.92 166.73 124.94 167.78 C 125.04 168.47 125.25 169.86 125.36 170.55 C 118.19 170.17 111.00 170.08 103.83 170.55 C 103.80 169.80 103.73 168.30 103.70 167.54 Z" />
</g>
</svg>
