<?xml version="1.0" encoding="UTF-8" ?>
<!DOCTYPE svg PUBLIC "-//W3C//DTD SVG 1.1//EN" "http://www.w3.org/Graphics/SVG/1.1/DTD/svg11.dtd">
<svg width="491pt" height="200pt" viewBox="0 0 491 200" version="1.1" xmlns="http://www.w3.org/2000/svg">
<g id="#92d050ff">
<path fill="#92d050" opacity="1.00" d=" M 130.77 1.62 C 133.79 0.09 137.19 1.80 140.02 3.01 C 145.26 5.22 148.70 9.91 152.87 13.56 C 150.99 18.28 148.37 22.78 147.45 27.84 C 139.62 28.34 131.52 28.07 123.97 25.67 C 121.03 24.72 118.16 22.28 118.06 18.98 C 118.71 15.85 122.28 14.75 125.07 14.56 C 131.31 13.63 137.24 16.14 142.99 18.16 C 143.50 18.33 144.51 18.68 145.01 18.86 C 139.54 15.65 133.56 12.43 130.43 6.63 C 129.61 5.12 129.00 2.73 130.77 1.62 Z" />
<path fill="#92d050" opacity="1.00" d=" M 157.89 12.76 C 165.78 12.61 174.98 12.17 181.14 18.01 C 182.81 20.69 178.98 22.12 176.96 22.29 C 170.95 23.39 164.98 21.69 159.00 21.24 C 164.75 23.59 170.48 26.73 174.15 31.91 C 175.44 33.86 176.64 36.39 175.69 38.73 C 174.33 41.24 170.91 41.35 168.48 40.66 C 161.63 38.14 156.61 32.68 151.51 27.71 C 153.79 22.80 155.99 17.83 157.89 12.76 Z" />
</g>
<g id="#e2eceaff">
<path fill="#e2ecea" opacity="1.00" d=" M 243.99 4.04 C 252.02 3.97 260.07 4.01 268.11 4.02 C 267.22 5.35 266.34 6.68 265.46 8.01 C 270.03 8.00 274.60 8.00 279.18 8.01 L 278.88 8.75 C 276.53 14.48 274.30 20.25 272.13 26.04 C 269.57 20.34 267.71 14.34 265.13 8.65 C 261.96 13.01 259.15 17.61 256.05 22.02 C 252.83 17.50 249.95 12.76 246.70 8.26 C 245.80 6.85 244.91 5.43 243.99 4.04 Z" />
<path fill="#e2ecea" opacity="1.00" d=" M 206.84 8.01 C 220.00 7.85 233.19 8.32 246.33 7.77 C 242.77 13.75 239.64 19.98 236.06 25.95 C 232.54 20.20 229.65 14.09 226.02 8.41 C 222.74 14.22 219.71 20.17 216.63 26.09 C 213.33 20.32 210.50 14.29 207.15 8.55 L 206.84 8.01 Z" />
<path fill="#e2ecea" opacity="1.00" d=" M 239.76 68.83 C 240.48 65.09 248.03 65.01 248.04 68.88 C 245.65 70.72 242.21 70.33 239.76 68.83 Z" />
<path fill="#e2ecea" opacity="1.00" d=" M 226.35 67.38 C 228.64 66.81 231.50 66.97 233.03 69.03 C 233.01 72.82 227.31 72.72 225.00 71.16 C 222.89 69.99 224.63 67.74 226.35 67.38 Z" />
<path fill="#e2ecea" opacity="1.00" d=" M 257.28 68.34 C 259.39 67.78 263.21 68.10 263.08 71.04 C 261.81 73.79 257.29 73.78 255.43 71.72 C 254.07 70.33 255.95 68.70 257.28 68.34 Z" />
<path fill="#e2ecea" opacity="1.00" d=" M 210.11 70.93 C 212.24 69.52 216.99 69.72 217.12 72.98 C 215.92 77.11 206.14 74.85 210.11 70.93 Z" />
<path fill="#e2ecea" opacity="1.00" d=" M 271.28 71.33 C 273.50 70.52 278.21 71.58 276.75 74.78 C 274.89 76.62 271.13 76.69 269.38 74.68 C 268.15 73.15 269.95 71.79 271.28 71.33 Z" />
</g>
<g id="#02aaa5ff">
<path fill="#02aaa5" opacity="1.00" d=" M 246.33 7.77 L 246.70 8.26 C 249.95 12.76 252.83 17.50 256.05 22.02 C 259.15 17.61 261.96 13.01 265.13 8.65 C 267.71 14.34 269.57 20.34 272.13 26.04 C 274.30 20.25 276.53 14.48 278.88 8.75 C 279.17 19.50 278.90 30.25 279.02 41.00 C 279.41 51.75 274.52 62.95 265.61 69.16 C 262.20 65.12 255.67 64.54 251.93 68.46 C 249.50 64.55 244.18 63.08 240.07 65.08 C 238.08 65.99 236.25 68.89 233.96 67.05 C 230.14 64.44 224.14 65.09 221.71 69.28 C 220.78 68.51 219.73 68.18 218.55 68.28 L 218.32 67.98 C 216.76 65.79 214.74 63.97 213.20 61.77 C 208.99 55.72 206.89 48.33 207.00 40.98 C 207.08 30.17 206.81 19.35 207.15 8.55 C 210.50 14.29 213.33 20.32 216.63 26.09 C 219.71 20.17 222.74 14.22 226.02 8.41 C 229.65 14.09 232.54 20.20 236.06 25.95 C 239.64 19.98 242.77 13.75 246.33 7.77 Z" />
<path fill="#02aaa5" opacity="1.00" d=" M 57.10 42.18 C 61.85 36.31 71.79 35.48 77.23 40.84 C 80.05 43.74 79.29 48.14 79.97 51.79 C 71.92 51.49 63.91 53.05 56.28 55.52 L 55.98 53.64 C 53.31 55.36 50.74 57.24 48.05 58.92 C 38.23 63.47 29.10 70.71 24.98 81.00 C 22.81 86.94 22.04 93.98 25.14 99.74 C 26.89 103.13 29.52 105.96 32.20 108.63 C 28.22 110.86 24.70 113.90 20.50 115.72 C 16.79 117.12 11.92 116.96 9.10 113.85 C 6.70 111.39 7.01 107.38 8.52 104.54 C 10.62 100.72 14.49 98.39 18.11 96.21 C 12.58 95.64 6.09 95.33 2.36 90.55 C -0.58 87.15 0.77 81.58 4.57 79.45 C 10.49 75.96 17.55 77.99 23.94 78.59 C 20.46 76.29 16.85 74.08 13.99 71.01 C 11.64 68.50 10.47 64.78 11.44 61.42 C 12.70 58.03 16.45 56.08 19.97 56.43 C 25.80 56.80 30.14 61.13 34.85 64.07 C 32.84 61.06 29.76 58.06 30.41 54.11 C 31.73 46.35 40.93 40.27 48.46 43.58 C 51.81 45.57 53.52 49.27 55.85 52.25 C 55.73 48.89 54.71 45.03 57.10 42.18 Z" />
<path fill="#02aaa5" opacity="1.00" d=" M 83.88 41.87 C 89.83 34.95 102.61 37.83 105.74 46.14 C 106.69 50.27 104.56 54.31 103.82 58.32 L 102.97 58.30 C 96.03 54.81 88.63 52.12 80.77 51.86 C 81.69 48.51 82.13 44.93 83.88 41.87 Z" />
<path fill="#02aaa5" opacity="1.00" d=" M 103.86 58.58 C 109.60 55.17 114.92 49.59 122.06 49.82 C 126.32 49.84 130.62 53.59 129.94 58.09 C 129.39 63.81 124.08 67.04 119.77 69.94 C 125.28 69.49 131.34 67.66 136.47 70.64 C 140.31 72.56 142.00 77.82 139.46 81.43 C 136.12 86.43 129.64 87.24 124.13 87.67 C 127.63 89.23 131.36 90.34 134.63 92.38 C 137.85 94.46 140.63 98.05 139.96 102.11 C 139.50 105.99 135.48 108.18 131.92 108.52 C 127.35 109.19 123.16 106.81 119.05 105.22 C 121.50 107.97 124.79 110.99 124.03 115.09 C 122.93 122.67 114.17 129.67 106.58 126.39 C 103.65 124.09 100.68 121.39 98.89 118.12 C 100.14 116.56 101.65 115.24 103.16 113.95 C 109.32 110.50 115.48 106.27 118.76 99.79 C 123.04 91.97 124.00 81.75 119.08 73.98 C 115.47 67.54 109.18 63.45 103.86 58.58 Z" />
<path fill="#02aaa5" opacity="1.00" d=" M 241.01 88.00 C 242.67 88.00 244.33 87.99 245.99 87.99 C 246.10 97.67 245.77 107.35 246.20 117.03 C 248.20 110.27 252.95 104.76 257.96 100.00 C 262.53 95.67 268.97 94.70 274.86 93.33 C 273.66 99.99 271.95 107.11 266.70 111.82 C 261.01 117.05 254.27 122.90 246.03 122.45 C 245.96 145.97 246.01 169.49 246.00 193.00 C 273.00 193.01 300.00 193.01 327.00 193.00 C 327.01 184.07 327.00 175.14 327.01 166.21 C 318.59 166.91 310.80 162.60 304.22 157.82 C 298.91 154.12 296.83 147.74 294.30 142.10 C 298.99 142.25 303.82 142.12 308.29 143.83 C 316.09 147.05 322.34 153.36 326.96 160.31 C 327.09 151.79 326.93 143.26 327.02 134.74 C 327.45 133.76 327.89 132.77 328.33 131.79 C 329.55 133.50 330.71 135.24 331.99 136.91 C 332.15 144.94 331.64 152.99 332.36 161.00 C 333.84 154.32 338.55 149.02 343.24 144.30 C 347.92 139.55 354.70 138.17 360.99 137.01 C 359.70 143.97 357.70 151.35 352.09 156.13 C 346.49 161.03 339.95 166.63 331.99 165.95 C 332.00 174.97 331.99 183.98 332.00 193.00 C 356.67 193.01 381.33 193.01 406.00 193.00 C 406.03 189.50 406.02 186.01 405.90 182.52 C 396.52 182.44 387.90 177.85 380.57 172.34 C 374.74 167.77 371.94 160.58 369.80 153.73 C 376.77 153.96 384.27 153.82 390.43 157.61 C 396.42 161.42 401.96 166.13 405.90 172.10 C 406.10 167.42 405.94 162.73 406.00 158.04 C 406.16 157.75 406.48 157.17 406.64 156.89 C 407.12 156.93 408.08 157.03 408.57 157.08 L 409.92 157.10 C 409.94 157.55 409.97 158.47 409.99 158.92 C 410.05 165.49 409.91 172.06 410.06 178.62 C 413.70 172.33 418.17 166.42 423.89 161.88 C 429.24 157.93 435.95 156.91 442.34 155.84 C 441.11 162.82 439.78 170.29 434.82 175.72 C 428.24 182.77 419.94 189.27 410.00 190.19 C 410.00 190.89 410.00 192.30 409.99 193.00 C 434.64 193.02 459.29 192.99 483.93 193.00 C 486.48 192.94 489.08 193.52 491.00 195.31 L 491.00 198.27 C 489.70 197.67 488.72 199.11 488.08 200.00 L 9.17 200.00 C 7.65 199.16 5.79 198.09 6.09 196.04 C 7.42 193.01 11.17 193.14 13.94 193.01 C 33.63 192.98 53.31 193.02 73.00 193.00 C 73.01 184.65 73.00 176.31 73.01 167.97 C 64.76 168.15 57.06 164.17 50.63 159.33 C 45.51 155.56 42.96 149.46 41.06 143.61 C 47.05 143.83 53.46 143.90 58.68 147.27 C 64.27 150.87 69.30 155.49 72.91 161.11 C 72.87 148.10 73.49 135.05 72.51 122.07 C 73.99 121.83 75.48 121.58 76.97 121.35 C 83.60 120.58 89.97 118.55 96.31 116.58 C 96.78 116.66 97.73 116.81 98.20 116.89 C 98.72 119.95 99.71 122.93 100.06 126.02 C 100.23 128.73 98.33 130.89 96.96 133.02 C 99.45 132.39 101.97 131.85 104.49 131.33 C 103.17 137.37 102.02 143.93 97.47 148.50 C 92.38 153.75 86.34 158.57 79.10 160.34 C 78.91 165.77 78.98 171.21 79.06 176.64 C 82.55 172.22 85.92 167.44 90.89 164.54 C 95.00 162.04 99.85 161.35 104.48 160.40 C 103.20 166.43 101.98 172.93 97.51 177.54 C 92.41 182.81 86.34 187.62 79.08 189.41 C 79.04 190.61 79.00 191.80 78.96 193.00 C 110.31 193.01 141.66 193.00 173.01 193.00 C 173.00 190.45 172.99 187.91 172.97 185.36 C 163.27 184.85 154.32 180.14 146.96 174.04 C 141.70 169.48 139.62 162.62 137.15 156.37 C 143.20 156.82 149.50 156.42 155.19 158.91 C 162.21 162.31 168.09 167.74 172.97 173.76 C 173.02 169.52 173.00 165.29 173.01 161.05 C 173.01 160.54 173.01 159.51 173.01 159.00 C 174.67 159.00 176.33 159.01 178.00 159.01 C 178.00 159.53 178.00 160.56 178.00 161.08 C 178.02 167.61 177.93 174.14 178.06 180.67 C 181.52 174.53 186.10 169.01 191.56 164.55 C 196.89 160.58 203.64 159.71 209.96 158.40 C 208.64 165.62 207.29 173.48 201.91 178.94 C 195.50 185.58 187.58 192.10 177.95 192.58 C 184.61 193.23 191.31 192.96 198.00 193.00 C 212.33 193.00 226.66 193.01 241.00 193.00 C 241.01 169.54 240.99 146.08 241.01 122.61 C 232.68 123.45 224.99 119.09 218.42 114.48 C 213.00 110.71 210.55 104.33 208.28 98.41 C 214.29 98.73 220.73 98.70 226.00 102.05 C 232.01 105.90 237.43 110.92 240.93 117.20 C 241.09 107.46 240.96 97.73 241.01 88.00 M 78.99 133.92 C 79.03 138.43 78.92 142.94 79.07 147.45 C 82.20 143.63 85.20 139.69 89.06 136.56 C 85.53 136.62 81.86 136.14 78.99 133.92 Z" />
<path fill="#02aaa5" opacity="1.00" d=" M 321.41 88.63 C 329.76 87.37 338.94 89.92 344.74 96.24 C 348.02 99.71 349.60 104.82 348.38 109.50 C 347.11 114.26 343.02 117.72 338.60 119.50 C 328.73 123.30 316.38 120.71 309.53 112.46 C 306.00 108.24 305.00 101.78 307.91 96.97 C 310.71 92.18 316.13 89.60 321.41 88.63 M 319.35 93.47 C 316.23 94.67 313.06 96.59 311.69 99.79 C 309.94 103.56 310.97 108.18 313.66 111.24 C 319.97 118.38 332.23 119.78 339.60 113.54 C 343.40 110.46 344.10 104.59 341.46 100.55 C 337.00 93.31 327.14 90.91 319.35 93.47 Z" />
<path fill="#02aaa5" opacity="1.00" d=" M 25.21 122.21 C 26.46 117.22 30.16 113.41 33.15 109.40 C 37.91 113.18 43.18 116.31 48.68 118.88 C 45.67 122.77 43.02 127.03 39.27 130.29 C 36.64 132.63 32.81 133.40 29.45 132.39 C 25.70 130.65 24.18 126.06 25.21 122.21 Z" />
<path fill="#02aaa5" opacity="1.00" d=" M 169.55 115.64 C 176.50 114.40 184.16 115.70 189.69 120.28 C 193.13 123.09 195.52 127.53 194.89 132.06 C 194.30 137.58 189.81 141.74 185.00 143.94 C 176.09 147.75 164.50 146.59 157.65 139.33 C 154.37 135.84 153.10 130.41 155.10 125.96 C 157.60 120.20 163.62 116.82 169.55 115.64 Z" />
<path fill="#02aaa5" opacity="1.00" d=" M 48.76 119.98 C 49.24 119.89 50.20 119.73 50.68 119.65 C 57.74 121.68 65.14 122.73 72.47 121.82 C 72.11 125.80 71.85 130.08 69.66 133.56 C 64.01 140.08 52.52 137.82 48.44 130.67 C 46.52 127.29 48.34 123.49 48.76 119.98 Z" />
</g>
<g id="#f79646ff">
<path fill="#f79646" opacity="1.00" d=" M 152.87 13.56 C 153.62 11.87 154.71 9.61 156.96 10.01 C 157.65 10.80 157.96 11.72 157.89 12.76 C 155.99 17.83 153.79 22.80 151.51 27.71 C 150.68 29.23 148.00 30.18 147.45 27.84 C 148.37 22.78 150.99 18.28 152.87 13.56 Z" />
<path fill="#f79646" opacity="1.00" d=" M 162.10 104.82 C 172.43 101.68 184.13 101.19 194.01 106.08 C 201.55 109.75 207.37 116.24 211.52 123.42 C 217.06 133.13 213.84 146.36 205.32 153.29 C 197.58 159.19 187.44 160.50 178.00 161.08 C 178.00 160.56 178.00 159.53 178.00 159.01 C 176.33 159.01 174.67 159.00 173.01 159.00 C 173.01 159.51 173.01 160.54 173.01 161.05 C 158.94 160.62 146.27 151.37 139.92 139.10 C 135.64 130.56 139.62 120.31 146.01 114.01 C 150.32 109.40 156.11 106.57 162.10 104.82 M 169.47 109.62 C 162.84 110.91 156.26 113.62 151.60 118.66 C 146.70 123.72 144.38 131.79 147.62 138.33 C 150.79 145.34 157.72 149.95 165.01 151.82 C 174.51 154.71 185.20 154.61 194.23 150.25 C 200.43 146.51 205.95 139.54 204.61 131.89 C 203.71 126.51 201.39 121.26 197.98 117.01 C 190.70 109.57 179.30 108.45 169.47 109.62 Z" />
</g>
<g id="#002060ff">
<path fill="#002060" opacity="1.00" d=" M 56.28 55.52 C 63.91 53.05 71.92 51.49 79.97 51.79 L 80.77 51.86 C 88.63 52.12 96.03 54.81 102.97 58.30 C 103.19 58.37 103.64 58.51 103.86 58.58 C 109.18 63.45 115.47 67.54 119.08 73.98 C 124.00 81.75 123.04 91.97 118.76 99.79 C 115.48 106.27 109.32 110.50 103.16 113.95 C 100.86 114.78 98.53 115.53 96.31 116.58 C 89.97 118.55 83.60 120.58 76.97 121.35 C 75.47 121.51 73.97 121.66 72.47 121.82 C 65.14 122.73 57.74 121.68 50.68 119.65 C 50.02 119.38 49.35 119.13 48.68 118.88 C 43.18 116.31 37.91 113.18 33.15 109.40 C 32.91 109.21 32.44 108.82 32.20 108.63 C 29.52 105.96 26.89 103.13 25.14 99.74 C 22.04 93.98 22.81 86.94 24.98 81.00 C 29.10 70.71 38.23 63.47 48.05 58.92 C 50.78 57.76 53.55 56.69 56.28 55.52 M 66.48 56.57 C 55.09 59.24 43.21 64.27 36.58 74.42 C 32.44 81.00 30.20 90.12 34.87 97.02 C 39.23 103.47 45.95 108.04 52.94 111.24 C 64.33 116.31 77.33 114.28 88.84 110.69 C 95.49 108.41 102.39 105.55 106.99 99.99 C 112.22 93.70 114.30 84.49 111.27 76.76 C 108.10 69.72 101.95 64.46 95.43 60.58 C 86.80 55.41 76.19 54.44 66.48 56.57 Z" />
<path fill="#002060" opacity="1.00" d=" M 319.35 93.47 C 327.14 90.91 337.00 93.31 341.46 100.55 C 344.10 104.59 343.40 110.46 339.60 113.54 C 332.23 119.78 319.97 118.38 313.66 111.24 C 310.97 108.18 309.94 103.56 311.69 99.79 C 313.06 96.59 316.23 94.67 319.35 93.47 Z" />
</g>
<g id="#e46c0aff">
<path fill="#e46c0a" opacity="1.00" d=" M 66.48 56.57 C 76.19 54.44 86.80 55.41 95.43 60.58 C 101.95 64.46 108.10 69.72 111.27 76.76 C 114.30 84.49 112.22 93.70 106.99 99.99 C 102.39 105.55 95.49 108.41 88.84 110.69 C 77.33 114.28 64.33 116.31 52.94 111.24 C 45.95 108.04 39.23 103.47 34.87 97.02 C 30.20 90.12 32.44 81.00 36.58 74.42 C 43.21 64.27 55.09 59.24 66.48 56.57 M 69.42 60.53 C 57.25 62.29 44.43 68.33 38.87 79.90 C 35.03 87.54 37.77 97.31 44.42 102.44 C 49.30 106.62 55.68 108.29 61.88 109.34 C 73.20 110.62 85.23 109.13 95.10 103.13 C 102.14 98.48 108.16 89.73 105.69 81.00 C 103.59 75.11 100.24 69.52 95.50 65.38 C 88.07 59.84 78.26 59.78 69.42 60.53 Z" />
<path fill="#e46c0a" opacity="1.00" d=" M 240.07 65.08 C 244.18 63.08 249.50 64.55 251.93 68.46 C 255.67 64.54 262.20 65.12 265.61 69.16 C 265.94 70.02 266.23 70.89 266.49 71.77 C 269.06 64.01 282.68 70.64 279.58 77.58 C 279.06 78.80 278.43 79.96 277.73 81.08 C 273.88 80.66 271.02 83.78 267.41 84.50 C 253.02 88.62 237.55 88.76 222.96 85.62 C 218.14 84.80 213.93 82.28 209.39 80.67 C 208.24 78.62 206.22 76.48 207.28 73.96 C 208.79 69.52 213.95 67.55 218.32 67.98 L 218.55 68.28 C 218.52 70.27 221.10 71.82 221.71 69.28 C 224.14 65.09 230.14 64.44 233.96 67.05 C 236.25 68.89 238.08 65.99 240.07 65.08 M 239.76 68.83 C 242.21 70.33 245.65 70.72 248.04 68.88 C 248.03 65.01 240.48 65.09 239.76 68.83 M 226.35 67.38 C 224.63 67.74 222.89 69.99 225.00 71.16 C 227.31 72.72 233.01 72.82 233.03 69.03 C 231.50 66.97 228.64 66.81 226.35 67.38 M 257.28 68.34 C 255.95 68.70 254.07 70.33 255.43 71.72 C 257.29 73.78 261.81 73.79 263.08 71.04 C 263.21 68.10 259.39 67.78 257.28 68.34 M 210.11 70.93 C 206.14 74.85 215.92 77.11 217.12 72.98 C 216.99 69.72 212.24 69.52 210.11 70.93 M 271.28 71.33 C 269.95 71.79 268.15 73.15 269.38 74.68 C 271.13 76.69 274.89 76.62 276.75 74.78 C 278.21 71.58 273.50 70.52 271.28 71.33 Z" />
<path fill="#e46c0a" opacity="1.00" d=" M 68.42 70.54 C 75.52 69.40 83.64 70.83 88.60 76.43 C 93.19 81.46 91.94 89.75 87.27 94.31 C 79.24 102.17 65.30 103.72 56.19 96.82 C 51.26 93.05 50.01 85.55 53.28 80.32 C 56.42 74.87 62.50 71.91 68.42 70.54 Z" />
<path fill="#e46c0a" opacity="1.00" d=" M 302.67 84.00 C 298.43 76.06 309.30 67.38 316.62 71.33 C 318.70 72.86 319.94 75.23 321.44 77.28 C 321.31 78.39 321.16 79.49 321.02 80.60 C 320.55 80.89 319.62 81.46 319.15 81.75 C 320.18 81.27 321.60 81.34 322.32 80.33 C 322.98 77.93 322.20 75.00 324.06 73.03 C 328.78 67.82 338.75 69.52 341.35 76.10 C 342.03 78.71 341.10 81.40 340.85 84.02 C 341.91 84.55 342.99 85.08 344.06 85.61 C 348.36 82.92 352.62 79.28 357.98 79.34 C 361.16 79.26 364.85 81.52 364.64 85.06 C 364.48 90.17 360.09 93.59 356.29 96.32 C 357.80 98.73 360.74 98.19 363.17 98.56 C 366.51 98.89 370.03 100.08 372.27 102.71 C 373.85 104.50 373.83 107.39 372.20 109.15 C 369.55 112.22 365.27 112.75 361.51 113.34 C 361.45 113.89 361.33 114.98 361.27 115.52 C 364.01 118.41 366.99 122.39 365.31 126.58 C 363.43 130.18 358.54 130.66 355.12 129.19 C 352.73 128.46 350.57 126.18 347.93 127.16 C 347.35 129.97 347.47 133.23 345.32 135.43 C 342.06 139.24 336.01 139.90 331.99 136.91 C 330.71 135.24 329.55 133.50 328.33 131.79 C 327.89 132.77 327.45 133.76 327.02 134.74 C 324.08 138.11 318.83 139.86 314.84 137.26 C 310.45 134.89 309.36 129.22 310.81 124.76 C 306.95 127.12 302.85 130.02 298.08 129.46 C 295.35 129.33 292.71 126.88 293.15 124.01 C 293.51 120.25 296.52 117.69 298.83 115.02 C 297.68 112.10 294.38 113.26 291.97 113.06 C 288.40 112.98 284.08 110.95 283.58 107.03 C 283.60 104.03 285.81 101.57 288.38 100.30 C 290.23 99.17 293.05 98.73 293.09 96.03 C 290.94 94.12 288.16 92.67 287.00 89.89 C 285.55 87.33 286.72 83.63 289.53 82.57 C 293.81 80.46 298.65 82.03 302.67 84.00 M 316.31 85.46 C 309.45 86.98 302.64 91.34 300.42 98.31 C 298.47 104.90 301.74 111.90 306.77 116.18 C 312.50 120.90 319.76 123.47 327.04 124.58 C 332.04 124.75 337.34 125.31 342.01 123.08 C 347.74 120.83 353.17 115.54 352.86 108.97 C 352.86 102.10 350.49 94.56 344.52 90.59 C 336.36 85.09 325.88 83.38 316.31 85.46 Z" />
</g>
<g id="#ffc600ff">
<path fill="#ffc600" opacity="1.00" d=" M 69.42 60.53 C 78.26 59.78 88.07 59.84 95.50 65.38 C 100.24 69.52 103.59 75.11 105.69 81.00 C 108.16 89.73 102.14 98.48 95.10 103.13 C 85.23 109.13 73.20 110.62 61.88 109.34 C 55.68 108.29 49.30 106.62 44.42 102.44 C 37.77 97.31 35.03 87.54 38.87 79.90 C 44.43 68.33 57.25 62.29 69.42 60.53 M 68.42 70.54 C 62.50 71.91 56.42 74.87 53.28 80.32 C 50.01 85.55 51.26 93.05 56.19 96.82 C 65.30 103.72 79.24 102.17 87.27 94.31 C 91.94 89.75 93.19 81.46 88.60 76.43 C 83.64 70.83 75.52 69.40 68.42 70.54 Z" />
<path fill="#ffc600" opacity="1.00" d=" M 316.31 85.46 C 325.88 83.38 336.36 85.09 344.52 90.59 C 350.49 94.56 352.86 102.10 352.86 108.97 C 353.17 115.54 347.74 120.83 342.01 123.08 C 337.34 125.31 332.04 124.75 327.04 124.58 C 319.76 123.47 312.50 120.90 306.77 116.18 C 301.74 111.90 298.47 104.90 300.42 98.31 C 302.64 91.34 309.45 86.98 316.31 85.46 M 321.41 88.63 C 316.13 89.60 310.71 92.18 307.91 96.97 C 305.00 101.78 306.00 108.24 309.53 112.46 C 316.38 120.71 328.73 123.30 338.60 119.50 C 343.02 117.72 347.11 114.26 348.38 109.50 C 349.60 104.82 348.02 99.71 344.74 96.24 C 338.94 89.92 329.76 87.37 321.41 88.63 Z" />
<path fill="#ffc600" opacity="1.00" d=" M 386.83 120.03 C 385.51 113.65 392.08 108.12 398.13 109.17 C 401.14 109.85 402.18 113.21 403.87 115.39 C 403.43 115.84 402.54 116.74 402.10 117.20 C 405.38 116.53 403.82 111.99 406.14 110.21 C 409.80 107.37 415.60 108.06 418.95 111.12 C 421.70 113.48 420.06 117.36 419.90 120.39 C 424.59 120.32 427.50 115.60 432.04 114.80 C 434.78 113.94 439.21 114.47 439.54 118.02 C 439.71 123.10 434.71 125.75 431.49 128.80 C 435.61 129.15 440.12 128.75 443.79 131.02 C 445.42 132.03 447.25 133.87 446.30 135.97 C 444.35 139.44 439.98 139.60 436.57 140.51 C 435.43 143.38 438.33 145.42 438.96 148.03 C 439.59 149.89 438.86 152.21 436.93 152.94 C 433.91 154.42 430.71 152.69 427.97 151.44 C 426.52 151.77 425.09 152.12 423.66 152.48 C 423.03 158.77 415.24 162.58 409.99 158.92 C 409.97 158.47 409.94 157.55 409.92 157.10 L 408.57 157.08 C 409.06 155.01 406.15 154.55 406.64 156.89 C 406.48 157.17 406.16 157.75 406.00 158.04 C 402.56 161.78 395.79 161.19 393.15 156.82 C 391.72 155.00 392.05 152.57 392.04 150.42 C 388.77 152.55 385.12 155.16 380.99 154.24 C 379.34 154.23 377.22 152.92 377.78 151.01 C 377.96 146.97 381.89 144.98 383.82 141.97 C 380.40 141.40 376.79 142.86 373.49 141.37 C 371.59 140.62 369.52 138.76 370.28 136.50 C 371.32 133.44 374.58 132.23 377.29 131.06 C 377.53 130.18 377.76 129.30 378.00 128.42 C 375.33 126.52 371.42 122.65 374.43 119.43 C 378.03 116.43 383.00 118.67 386.83 120.03 Z" />
</g>
<g id="#ffff66ff">
<path fill="#ffff66" opacity="1.00" d=" M 169.47 109.62 C 179.30 108.45 190.70 109.57 197.98 117.01 C 201.39 121.26 203.71 126.51 204.61 131.89 C 205.95 139.54 200.43 146.51 194.23 150.25 C 185.20 154.61 174.51 154.71 165.01 151.82 C 157.72 149.95 150.79 145.34 147.62 138.33 C 144.38 131.79 146.70 123.72 151.60 118.66 C 156.26 113.62 162.84 110.91 169.47 109.62 M 169.55 115.64 C 163.62 116.82 157.60 120.20 155.10 125.96 C 153.10 130.41 154.37 135.84 157.65 139.33 C 164.50 146.59 176.09 147.75 185.00 143.94 C 189.81 141.74 194.30 137.58 194.89 132.06 C 195.52 127.53 193.13 123.09 189.69 120.28 C 184.16 115.70 176.50 114.40 169.55 115.64 Z" />
</g>
</svg>
