<?xml version="1.0" encoding="UTF-8" ?>
<!DOCTYPE svg PUBLIC "-//W3C//DTD SVG 1.1//EN" "http://www.w3.org/Graphics/SVG/1.1/DTD/svg11.dtd">
<svg width="146pt" height="165pt" viewBox="0 0 146 165" version="1.1" xmlns="http://www.w3.org/2000/svg">
<g id="#4ab19aff">
<path fill="#4ab19a" opacity="1.00" d=" M 138.11 0.00 L 146.00 0.00 L 146.00 164.65 C 143.49 164.66 140.97 164.62 138.46 164.72 L 138.25 164.08 C 138.28 110.29 138.23 56.51 138.28 2.72 C 116.44 24.35 94.84 46.25 73.07 67.96 L 72.31 67.84 C 50.71 46.36 29.38 24.59 7.74 3.15 C 7.74 57.10 7.74 111.05 7.74 165.00 L 0.00 165.00 L 0.00 0.35 C 2.62 0.43 5.27 0.17 7.87 0.47 C 29.52 22.16 51.06 43.96 72.80 65.54 C 94.48 43.61 116.30 21.81 138.11 0.00 Z" />
</g>
<g id="#c0504dff">
<path fill="#c0504d" opacity="1.00" d=" M 127.44 28.32 C 127.93 27.27 129.94 26.98 129.41 28.69 C 125.38 32.68 121.36 36.68 117.39 40.73 C 119.00 40.76 120.62 40.77 122.23 40.76 C 122.24 70.23 122.31 99.71 122.20 129.18 C 120.78 129.14 119.37 129.14 117.96 129.17 C 123.68 135.37 129.91 141.14 135.73 147.27 L 135.94 148.05 L 134.93 148.78 C 114.10 128.02 93.41 107.11 72.59 86.33 L 72.09 86.10 C 52.76 105.69 33.18 125.04 13.90 144.68 L 12.57 144.27 L 12.73 143.33 C 17.37 138.63 22.24 134.09 26.66 129.20 C 25.89 129.25 24.35 129.36 23.58 129.41 C 21.98 127.92 23.54 125.75 22.91 123.99 C 22.95 96.59 22.97 69.29 22.87 41.83 L 23.29 40.73 C 24.52 40.77 25.76 40.78 27.00 40.77 C 23.35 36.53 19.14 32.70 15.19 28.71 L 15.74 27.19 L 16.70 27.73 C 35.17 46.40 53.86 64.85 72.27 83.59 C 90.75 65.26 109.06 46.75 127.44 28.32 M 28.78 42.70 C 28.80 70.65 28.94 98.60 28.71 126.54 L 29.25 126.72 C 43.23 112.93 57.00 98.90 70.92 85.05 L 70.76 84.41 C 58.04 71.74 45.41 58.99 32.74 46.28 C 31.45 45.05 30.36 43.59 28.78 42.70 M 73.49 84.83 C 87.92 99.05 102.13 113.49 116.44 127.83 C 116.48 99.11 116.50 70.38 116.42 41.65 C 102.14 56.07 87.72 70.36 73.49 84.83 Z" />
</g>
</svg>
