<?xml version="1.0" encoding="UTF-8" ?>
<!DOCTYPE svg PUBLIC "-//W3C//DTD SVG 1.1//EN" "http://www.w3.org/Graphics/SVG/1.1/DTD/svg11.dtd">
<svg width="146pt" height="165pt" viewBox="0 0 146 165" version="1.1" xmlns="http://www.w3.org/2000/svg">
<g id="#4ab19aff">
<path fill="#4ab19a" opacity="1.00" d=" M 138.11 0.00 L 146.00 0.00 L 146.00 164.65 C 143.41 164.62 140.82 164.72 138.24 164.62 C 138.30 110.64 138.20 56.66 138.29 2.68 C 116.38 24.46 94.64 46.41 72.80 68.26 C 50.97 46.70 29.55 24.73 7.75 3.14 C 7.74 57.10 7.74 111.05 7.74 165.00 L 0.00 165.00 L 0.00 0.35 C 2.60 0.40 5.20 0.24 7.80 0.42 C 29.48 22.10 51.03 43.92 72.77 65.54 C 94.49 43.63 116.29 21.80 138.11 0.00 Z" />
</g>
<g id="#c0504dff">
<path fill="#c0504d" opacity="1.00" d=" M 128.31 27.41 C 128.68 27.55 129.41 27.84 129.78 27.98 C 125.95 32.50 121.45 36.42 117.38 40.72 C 118.99 40.76 120.61 40.77 122.23 40.76 C 122.24 70.23 122.30 99.70 122.20 129.17 C 120.76 129.13 119.33 129.14 117.90 129.21 C 123.79 135.29 129.84 141.23 135.79 147.25 C 135.59 147.65 135.20 148.45 135.00 148.84 C 113.98 127.98 93.26 106.82 72.18 86.03 C 52.78 105.64 33.19 125.06 13.85 144.73 L 12.32 144.03 C 16.85 138.86 22.04 134.29 26.72 129.27 C 25.83 129.28 24.03 129.29 23.14 129.30 C 22.67 100.21 23.06 70.94 22.87 41.75 L 23.35 40.72 C 24.57 40.78 25.80 40.79 27.02 40.76 C 23.32 36.54 19.12 32.69 15.17 28.66 L 15.81 27.14 L 16.64 27.71 C 35.18 46.34 53.83 64.86 72.28 83.59 C 91.03 64.94 109.68 46.18 128.31 27.41 M 28.76 42.52 C 28.86 70.64 28.85 98.76 28.77 126.88 C 28.98 126.76 29.40 126.53 29.62 126.41 C 43.42 112.66 57.14 98.80 70.94 85.04 L 70.78 84.46 C 56.72 70.54 42.99 56.26 28.76 42.52 M 73.49 84.83 C 87.91 99.05 102.14 113.47 116.42 127.85 C 116.50 99.12 116.49 70.38 116.42 41.65 C 102.14 56.07 87.71 70.35 73.49 84.83 Z" />
</g>
</svg>
