<?xml version="1.0" encoding="UTF-8" ?>
<!DOCTYPE svg PUBLIC "-//W3C//DTD SVG 1.1//EN" "http://www.w3.org/Graphics/SVG/1.1/DTD/svg11.dtd">
<svg width="240pt" height="240pt" viewBox="0 0 240 240" version="1.1" xmlns="http://www.w3.org/2000/svg">
<g id="#3e9c87ff">
<path fill="#3e9c87" opacity="1.00" d=" M 70.08 11.13 C 92.06 0.88 117.22 -2.11 141.06 2.07 C 167.14 6.55 191.47 20.19 209.12 39.86 C 227.92 60.50 238.87 87.86 240.00 115.72 L 240.00 124.17 C 238.95 152.80 227.48 180.95 207.84 201.85 C 186.53 224.96 155.81 238.93 124.40 240.00 L 115.64 240.00 C 84.47 238.92 54.01 225.10 32.74 202.28 C 17.06 185.70 6.26 164.53 2.17 142.07 C -2.23 118.15 0.63 92.85 10.80 70.72 C 22.57 44.62 44.03 23.02 70.08 11.13 M 45.15 36.21 C 43.62 36.88 44.15 38.70 43.98 40.01 C 44.05 74.01 43.93 108.02 44.05 142.02 C 43.80 143.70 45.57 144.27 46.91 144.01 C 67.27 143.99 87.63 144.01 108.00 144.00 C 108.00 152.07 108.00 160.14 108.00 168.21 C 94.99 168.73 81.91 168.63 68.94 169.99 L 67.91 171.56 C 69.30 171.63 70.69 171.66 72.08 171.64 C 104.68 169.72 137.42 169.64 170.00 171.85 C 171.18 172.03 171.95 171.50 172.30 170.26 C 159.25 168.80 146.11 168.68 133.00 168.20 C 133.00 160.13 133.00 152.07 133.00 144.00 C 153.00 144.02 173.01 143.97 193.01 144.03 C 194.24 144.02 195.47 143.92 196.69 143.73 C 197.32 140.19 196.91 136.57 197.00 133.00 C 197.04 100.88 196.92 68.77 197.06 36.66 C 195.71 36.38 194.36 36.03 192.99 36.00 C 147.01 36.00 101.02 36.00 55.04 36.00 C 51.75 36.04 48.43 35.78 45.15 36.21 M 119.75 197.76 C 110.44 193.37 101.31 188.58 92.07 184.04 C 88.58 182.40 85.31 180.14 81.44 179.48 C 82.71 182.77 86.66 183.24 89.39 184.82 C 88.54 184.88 86.85 185.00 86.00 185.06 C 86.00 194.35 86.01 203.65 85.99 212.95 C 86.76 213.00 88.28 213.11 89.04 213.16 C 86.52 214.74 82.31 215.01 81.68 218.48 C 85.75 217.25 89.41 215.05 93.21 213.20 C 102.04 208.83 110.80 204.33 119.67 200.03 C 132.18 206.23 144.50 212.85 157.21 218.64 C 157.81 215.25 153.28 215.13 151.16 213.83 C 152.33 211.75 151.99 209.31 152.03 207.03 C 151.93 200.35 152.06 193.67 152.00 187.00 C 152.16 185.59 151.52 184.68 150.07 184.28 C 152.67 183.50 155.14 182.34 157.53 181.06 C 157.35 180.60 156.99 179.68 156.81 179.22 C 144.40 185.28 132.07 191.50 119.75 197.76 Z" />
<path fill="#3e9c87" opacity="1.00" d=" M 47.00 39.00 C 96.00 39.00 145.00 39.00 194.00 39.00 C 194.00 73.00 194.00 107.00 194.00 141.00 C 145.00 141.00 96.00 141.00 47.00 141.00 C 47.00 107.00 47.00 73.00 47.00 39.00 M 47.99 42.94 C 48.05 74.92 47.92 106.91 48.06 138.90 C 95.69 139.11 143.32 138.99 190.95 138.96 C 191.09 107.32 190.93 75.67 191.03 44.03 C 191.02 42.75 190.91 41.48 190.70 40.21 C 187.79 39.86 184.86 39.98 181.94 39.99 C 137.92 40.04 93.89 39.94 49.87 40.04 C 48.14 39.73 47.82 41.69 47.99 42.94 Z" />
<path fill="#3e9c87" opacity="1.00" d=" M 50.00 42.00 C 96.33 42.00 142.67 42.00 189.00 42.00 C 189.00 73.67 189.00 105.33 189.00 137.00 C 142.67 137.00 96.33 137.00 50.00 137.00 C 50.00 105.33 50.00 73.67 50.00 42.00 M 103.48 58.05 C 105.36 61.67 107.27 65.27 109.16 68.87 C 111.84 67.99 114.59 67.38 117.40 67.10 C 118.14 63.14 118.80 59.17 119.45 55.20 C 113.97 55.08 108.60 56.18 103.48 58.05 M 121.77 55.32 C 121.76 59.29 121.74 63.26 121.61 67.23 C 124.14 67.99 126.65 68.85 129.09 69.86 C 131.73 66.71 134.39 63.58 137.02 60.42 C 132.34 57.70 127.14 56.01 121.77 55.32 M 88.29 70.36 C 91.87 72.58 95.39 74.91 98.94 77.18 C 100.88 74.85 103.05 72.71 105.44 70.84 C 104.20 66.92 102.78 63.07 101.39 59.21 C 96.18 61.81 91.88 65.83 88.29 70.36 M 132.50 72.10 C 134.45 74.03 136.25 76.10 137.93 78.26 C 141.61 76.22 145.29 74.18 148.97 72.14 C 146.23 68.09 142.89 64.47 138.88 61.66 C 136.78 65.16 134.62 68.61 132.50 72.10 M 87.22 72.19 C 84.21 77.22 82.50 82.95 82.03 88.79 C 86.37 88.73 90.70 88.49 95.04 88.45 C 95.50 85.88 96.15 83.36 96.92 80.87 C 93.70 77.97 90.44 75.10 87.22 72.19 M 113.14 73.19 C 104.40 75.48 98.66 85.22 100.87 93.99 C 102.51 102.63 111.45 108.94 120.15 107.66 C 129.64 106.91 137.08 97.31 135.60 87.93 C 134.68 77.46 123.11 69.95 113.14 73.19 M 139.70 82.00 C 140.19 84.15 140.65 86.31 141.06 88.48 C 145.41 88.51 149.76 88.50 154.10 88.49 C 153.68 83.56 152.22 78.80 150.21 74.30 C 146.67 76.82 143.20 79.44 139.70 82.00 M 81.98 91.00 C 82.46 97.02 84.09 103.01 87.34 108.14 C 90.47 105.22 93.68 102.38 96.90 99.56 C 96.27 97.24 95.67 94.91 95.14 92.57 C 90.76 91.95 86.37 91.45 81.98 91.00 M 140.94 92.62 C 140.54 94.45 140.12 96.27 139.70 98.10 C 143.21 100.70 146.75 103.26 150.32 105.77 C 152.33 101.14 153.78 96.25 154.13 91.19 C 149.72 91.52 145.32 92.00 140.94 92.62 M 132.66 108.08 C 134.85 111.52 137.08 114.93 139.27 118.36 C 143.07 115.57 146.35 112.13 148.83 108.11 C 145.18 106.09 141.55 104.04 137.92 101.98 C 136.28 104.11 134.53 106.16 132.66 108.08 M 88.33 109.90 C 91.88 114.39 96.11 118.41 101.25 121.02 C 102.66 117.21 104.08 113.41 105.55 109.63 C 103.16 107.65 100.94 105.48 98.96 103.09 C 95.44 105.38 91.93 107.72 88.33 109.90 M 121.76 112.99 C 121.88 116.96 122.01 120.93 122.17 124.89 C 127.32 124.16 132.34 122.55 136.85 119.93 C 134.29 116.74 131.72 113.55 129.12 110.39 C 126.71 111.37 124.24 112.22 121.76 112.99 M 103.87 122.36 C 108.85 124.13 114.06 125.11 119.35 125.08 C 118.74 121.13 118.14 117.17 117.57 113.21 C 114.79 112.86 112.04 112.32 109.37 111.44 C 107.34 114.98 105.55 118.64 103.87 122.36 Z" />
<path fill="#3e9c87" opacity="1.00" d=" M 93.01 186.76 C 101.10 190.81 109.20 194.82 117.27 198.91 C 109.20 202.99 101.09 207.01 93.00 211.06 C 93.00 202.96 92.99 194.86 93.01 186.76 Z" />
<path fill="#3e9c87" opacity="1.00" d=" M 121.86 198.91 C 129.22 195.17 136.61 191.51 144.00 187.82 C 144.00 195.21 144.01 202.61 143.99 210.00 C 136.62 206.29 129.22 202.64 121.86 198.91 Z" />
</g>
<g id="#ffffffff">
<path fill="#ffffff" opacity="1.00" d=" M 45.15 36.21 C 48.43 35.78 51.75 36.04 55.04 36.00 C 101.02 36.00 147.01 36.00 192.99 36.00 C 194.36 36.03 195.71 36.38 197.06 36.66 C 196.92 68.77 197.04 100.88 197.00 133.00 C 196.91 136.57 197.32 140.19 196.69 143.73 C 195.47 143.92 194.24 144.02 193.01 144.03 C 173.01 143.97 153.00 144.02 133.00 144.00 C 133.00 152.07 133.00 160.13 133.00 168.20 C 146.11 168.68 159.25 168.80 172.30 170.26 C 171.95 171.50 171.18 172.03 170.00 171.85 C 137.42 169.64 104.68 169.72 72.08 171.64 C 70.69 171.66 69.30 171.63 67.91 171.56 L 68.94 169.99 C 81.91 168.63 94.99 168.73 108.00 168.21 C 108.00 160.14 108.00 152.07 108.00 144.00 C 87.63 144.01 67.27 143.99 46.91 144.01 C 45.57 144.27 43.80 143.70 44.05 142.02 C 43.93 108.02 44.05 74.01 43.98 40.01 C 44.15 38.70 43.62 36.88 45.15 36.21 M 47.00 39.00 C 47.00 73.00 47.00 107.00 47.00 141.00 C 96.00 141.00 145.00 141.00 194.00 141.00 C 194.00 107.00 194.00 73.00 194.00 39.00 C 145.00 39.00 96.00 39.00 47.00 39.00 Z" />
<path fill="#ffffff" opacity="1.00" d=" M 47.99 42.94 C 47.82 41.69 48.14 39.73 49.87 40.04 C 93.89 39.94 137.92 40.04 181.94 39.99 C 184.86 39.98 187.79 39.86 190.70 40.21 C 190.91 41.48 191.02 42.75 191.03 44.03 C 190.93 75.67 191.09 107.32 190.95 138.96 C 143.32 138.99 95.69 139.11 48.06 138.90 C 47.92 106.91 48.05 74.92 47.99 42.94 M 50.00 42.00 C 50.00 73.67 50.00 105.33 50.00 137.00 C 96.33 137.00 142.67 137.00 189.00 137.00 C 189.00 105.33 189.00 73.67 189.00 42.00 C 142.67 42.00 96.33 42.00 50.00 42.00 Z" />
<path fill="#ffffff" opacity="1.00" d=" M 103.48 58.05 C 108.60 56.18 113.97 55.08 119.45 55.20 C 118.80 59.17 118.14 63.14 117.40 67.10 C 114.59 67.38 111.84 67.99 109.16 68.87 C 107.27 65.27 105.36 61.67 103.48 58.05 Z" />
<path fill="#ffffff" opacity="1.00" d=" M 121.77 55.32 C 127.14 56.01 132.34 57.70 137.02 60.42 C 134.39 63.58 131.73 66.71 129.09 69.86 C 126.65 68.85 124.14 67.99 121.61 67.23 C 121.74 63.26 121.76 59.29 121.77 55.32 Z" />
<path fill="#ffffff" opacity="1.00" d=" M 88.29 70.36 C 91.88 65.83 96.18 61.81 101.39 59.21 C 102.78 63.07 104.20 66.92 105.44 70.84 C 103.05 72.71 100.88 74.85 98.94 77.18 C 95.39 74.91 91.87 72.58 88.29 70.36 Z" />
<path fill="#ffffff" opacity="1.00" d=" M 132.50 72.10 C 134.62 68.61 136.78 65.16 138.88 61.66 C 142.89 64.47 146.23 68.09 148.97 72.14 C 145.29 74.18 141.61 76.22 137.93 78.26 C 136.25 76.10 134.45 74.03 132.50 72.10 Z" />
<path fill="#ffffff" opacity="1.00" d=" M 87.22 72.19 C 90.44 75.10 93.70 77.97 96.92 80.87 C 96.15 83.36 95.50 85.88 95.04 88.45 C 90.70 88.49 86.37 88.73 82.03 88.79 C 82.50 82.95 84.21 77.22 87.22 72.19 Z" />
<path fill="#ffffff" opacity="1.00" d=" M 113.14 73.19 C 123.11 69.95 134.68 77.46 135.60 87.93 C 137.08 97.31 129.64 106.91 120.15 107.66 C 111.45 108.94 102.51 102.63 100.87 93.99 C 98.66 85.22 104.40 75.48 113.14 73.19 Z" />
<path fill="#ffffff" opacity="1.00" d=" M 139.70 82.00 C 143.20 79.44 146.67 76.82 150.21 74.30 C 152.22 78.80 153.68 83.56 154.10 88.49 C 149.76 88.50 145.41 88.51 141.06 88.48 C 140.65 86.31 140.19 84.15 139.70 82.00 Z" />
<path fill="#ffffff" opacity="1.00" d=" M 81.98 91.00 C 86.37 91.45 90.76 91.95 95.14 92.57 C 95.67 94.91 96.27 97.24 96.90 99.56 C 93.68 102.38 90.47 105.22 87.34 108.14 C 84.09 103.01 82.46 97.02 81.98 91.00 Z" />
<path fill="#ffffff" opacity="1.00" d=" M 140.94 92.62 C 145.32 92.00 149.72 91.52 154.13 91.19 C 153.78 96.25 152.33 101.14 150.32 105.77 C 146.75 103.26 143.21 100.70 139.70 98.10 C 140.12 96.27 140.54 94.45 140.94 92.62 Z" />
<path fill="#ffffff" opacity="1.00" d=" M 132.66 108.08 C 134.53 106.16 136.28 104.11 137.92 101.98 C 141.55 104.04 145.18 106.09 148.83 108.11 C 146.35 112.13 143.07 115.57 139.27 118.36 C 137.08 114.93 134.85 111.52 132.66 108.08 Z" />
<path fill="#ffffff" opacity="1.00" d=" M 88.33 109.90 C 91.93 107.72 95.44 105.38 98.96 103.09 C 100.94 105.48 103.16 107.65 105.55 109.63 C 104.08 113.41 102.66 117.21 101.25 121.02 C 96.11 118.41 91.88 114.39 88.33 109.90 Z" />
<path fill="#ffffff" opacity="1.00" d=" M 121.76 112.99 C 124.24 112.22 126.71 111.37 129.12 110.39 C 131.72 113.55 134.29 116.74 136.85 119.93 C 132.34 122.55 127.32 124.16 122.17 124.89 C 122.01 120.93 121.88 116.96 121.76 112.99 Z" />
<path fill="#ffffff" opacity="1.00" d=" M 103.87 122.36 C 105.55 118.64 107.34 114.98 109.37 111.44 C 112.04 112.32 114.79 112.86 117.57 113.21 C 118.14 117.17 118.74 121.13 119.35 125.08 C 114.06 125.11 108.85 124.13 103.87 122.36 Z" />
<path fill="#ffffff" opacity="1.00" d=" M 119.75 197.76 C 132.07 191.50 144.40 185.28 156.81 179.22 C 156.99 179.68 157.35 180.60 157.53 181.06 C 155.14 182.34 152.67 183.50 150.07 184.28 C 151.52 184.68 152.16 185.59 152.00 187.00 C 152.06 193.67 151.93 200.35 152.03 207.03 C 151.99 209.31 152.33 211.75 151.16 213.83 C 153.28 215.13 157.81 215.25 157.21 218.64 C 144.50 212.85 132.18 206.23 119.67 200.03 C 110.80 204.33 102.04 208.83 93.21 213.20 C 89.41 215.05 85.75 217.25 81.68 218.48 C 82.31 215.01 86.52 214.74 89.04 213.16 C 88.28 213.11 86.76 213.00 85.99 212.95 C 86.01 203.65 86.00 194.35 86.00 185.06 C 86.85 185.00 88.54 184.88 89.39 184.82 C 86.66 183.24 82.71 182.77 81.44 179.48 C 85.31 180.14 88.58 182.40 92.07 184.04 C 101.31 188.58 110.44 193.37 119.75 197.76 M 93.01 186.76 C 92.99 194.86 93.00 202.96 93.00 211.06 C 101.09 207.01 109.20 202.99 117.27 198.91 C 109.20 194.82 101.10 190.81 93.01 186.76 M 121.86 198.91 C 129.22 202.64 136.62 206.29 143.99 210.00 C 144.01 202.61 144.00 195.21 144.00 187.82 C 136.61 191.51 129.22 195.17 121.86 198.91 Z" />
</g>
</svg>
