<?xml version="1.0" encoding="UTF-8" ?>
<!DOCTYPE svg PUBLIC "-//W3C//DTD SVG 1.1//EN" "http://www.w3.org/Graphics/SVG/1.1/DTD/svg11.dtd">
<svg width="127pt" height="126pt" viewBox="0 0 127 126" version="1.1" xmlns="http://www.w3.org/2000/svg">
<g id="#ffffffff">
<path fill="#ffffff" opacity="1.00" d=" M 16.92 20.01 C 28.98 7.29 46.47 -0.08 64.00 0.22 C 79.79 0.11 95.56 6.14 107.20 16.82 C 118.34 26.81 125.59 40.99 127.00 55.90 L 127.00 66.41 C 126.19 77.75 121.89 88.73 115.02 97.75 C 106.45 109.29 93.68 117.43 79.85 121.12 C 84.20 119.58 88.45 117.80 92.61 115.80 C 89.59 112.85 86.04 110.56 82.22 108.79 C 88.85 106.53 94.33 101.87 98.18 96.08 C 102.45 92.72 106.61 89.02 109.22 84.16 C 113.86 74.91 114.64 64.15 112.98 54.05 C 109.66 36.26 96.14 20.96 79.07 15.11 C 70.79 12.01 61.77 11.69 53.06 12.62 C 54.71 11.32 56.35 10.03 57.98 8.72 C 57.43 8.20 56.32 7.18 55.76 6.66 C 52.51 7.38 50.63 10.34 48.88 12.89 C 47.02 11.59 45.23 9.92 42.86 9.68 C 41.35 11.81 43.52 13.38 44.75 14.92 C 27.75 20.53 14.55 36.12 12.18 53.92 C 10.49 63.45 12.70 73.06 15.96 82.00 C 18.21 89.36 24.36 94.46 30.67 98.37 C 34.41 102.74 38.98 106.45 44.38 108.56 C 40.60 110.43 37.06 112.74 33.79 115.41 C 35.23 116.27 36.66 117.16 38.13 117.98 C 28.28 113.44 19.27 106.84 12.67 98.17 C 4.52 87.65 -0.05 74.39 0.11 61.07 C 0.18 45.90 6.40 30.92 16.92 20.01 Z" />
<path fill="#ffffff" opacity="1.00" d=" M 55.57 110.08 C 58.42 110.96 61.06 112.43 63.98 113.07 C 67.12 112.64 69.91 111.01 72.92 110.11 C 70.77 112.89 67.80 115.44 64.02 114.88 C 60.39 115.24 57.54 112.84 55.57 110.08 Z" />
</g>
<g id="#482400ff">
<path fill="#482400" opacity="1.00" d=" M 48.88 12.89 C 50.63 10.34 52.51 7.38 55.76 6.66 C 56.32 7.18 57.43 8.20 57.98 8.72 C 56.35 10.03 54.71 11.32 53.06 12.62 C 61.77 11.69 70.79 12.01 79.07 15.11 C 96.14 20.96 109.66 36.26 112.98 54.05 C 114.64 64.15 113.86 74.91 109.22 84.16 C 106.61 89.02 102.45 92.72 98.18 96.08 C 101.72 89.27 101.76 81.52 101.27 74.05 C 84.46 76.92 65.32 72.06 54.13 58.62 C 48.47 68.01 37.60 75.29 26.28 73.18 C 25.25 81.77 25.84 90.92 30.67 98.37 C 24.36 94.46 18.21 89.36 15.96 82.00 C 12.70 73.06 10.49 63.45 12.18 53.92 C 14.55 36.12 27.75 20.53 44.75 14.92 C 43.52 13.38 41.35 11.81 42.86 9.68 C 45.23 9.92 47.02 11.59 48.88 12.89 Z" />
</g>
<g id="#fadfaeff">
<path fill="#fadfae" opacity="1.00" d=" M 54.13 58.62 C 65.32 72.06 84.46 76.92 101.27 74.05 C 101.76 81.52 101.72 89.27 98.18 96.08 C 94.33 101.87 88.85 106.53 82.22 108.79 C 79.16 109.51 76.01 109.62 72.92 110.11 C 69.91 111.01 67.12 112.64 63.98 113.07 C 61.06 112.43 58.42 110.96 55.57 110.08 C 51.83 109.64 48.02 109.61 44.38 108.56 C 38.98 106.45 34.41 102.74 30.67 98.37 C 25.84 90.92 25.25 81.77 26.28 73.18 C 37.60 75.29 48.47 68.01 54.13 58.62 M 34.66 79.80 C 35.10 80.51 35.55 81.22 35.99 81.93 C 37.24 81.77 38.49 81.62 39.73 81.47 C 39.65 80.21 39.57 78.95 39.40 77.70 C 38.25 77.43 37.09 77.23 35.91 77.08 C 35.49 77.98 35.08 78.89 34.66 79.80 M 87.43 78.77 C 87.17 80.49 88.49 81.46 89.70 82.31 C 90.42 82.00 91.86 81.38 92.58 81.07 C 92.46 80.27 92.23 78.67 92.11 77.87 C 90.61 76.79 88.29 76.97 87.43 78.77 M 50.16 98.85 C 54.68 105.85 64.45 107.42 71.89 104.79 C 76.79 103.04 81.51 98.32 80.38 92.71 C 76.57 91.44 77.28 96.31 75.46 98.32 C 70.29 103.48 61.25 104.03 55.45 99.55 C 53.16 97.98 52.50 95.17 52.01 92.62 C 47.94 91.42 48.88 96.84 50.16 98.85 Z" />
</g>
<g id="#000000ff">
<path fill="#000000" opacity="1.00" d=" M 34.66 79.80 C 35.08 78.89 35.49 77.98 35.91 77.08 C 37.09 77.23 38.25 77.43 39.40 77.70 C 39.57 78.95 39.65 80.21 39.73 81.47 C 38.49 81.62 37.24 81.77 35.99 81.93 C 35.55 81.22 35.10 80.51 34.66 79.80 Z" />
<path fill="#000000" opacity="1.00" d=" M 87.43 78.77 C 88.29 76.97 90.61 76.79 92.11 77.87 C 92.23 78.67 92.46 80.27 92.58 81.07 C 91.86 81.38 90.42 82.00 89.70 82.31 C 88.49 81.46 87.17 80.49 87.43 78.77 Z" />
<path fill="#000000" opacity="1.00" d=" M 50.16 98.85 C 48.88 96.84 47.94 91.42 52.01 92.62 C 52.50 95.17 53.16 97.98 55.45 99.55 C 61.25 104.03 70.29 103.48 75.46 98.32 C 77.28 96.31 76.57 91.44 80.38 92.71 C 81.51 98.32 76.79 103.04 71.89 104.79 C 64.45 107.42 54.68 105.85 50.16 98.85 Z" />
</g>
<g id="#3e9c87ff">
<path fill="#3e9c87" opacity="1.00" d=" M 33.79 115.41 C 37.06 112.74 40.60 110.43 44.38 108.56 C 48.02 109.61 51.83 109.64 55.57 110.08 C 57.54 112.84 60.39 115.24 64.02 114.88 C 67.80 115.44 70.77 112.89 72.92 110.11 C 76.01 109.62 79.16 109.51 82.22 108.79 C 86.04 110.56 89.59 112.85 92.61 115.80 C 88.45 117.80 84.20 119.58 79.85 121.12 C 72.40 123.40 64.55 122.91 56.87 122.80 C 50.42 122.27 44.04 120.61 38.13 117.98 C 36.66 117.16 35.23 116.27 33.79 115.41 Z" />
</g>
</svg>
