<?xml version="1.0" encoding="UTF-8" ?>
<!DOCTYPE svg PUBLIC "-//W3C//DTD SVG 1.1//EN" "http://www.w3.org/Graphics/SVG/1.1/DTD/svg11.dtd">
<svg width="699pt" height="550pt" viewBox="0 0 699 550" version="1.1" xmlns="http://www.w3.org/2000/svg">
<g id="#56a895fe">
<path fill="#56a895" opacity="1.00" d=" M 350.13 22.62 C 351.61 22.48 353.09 22.40 354.59 22.33 C 354.87 30.91 354.61 39.50 354.73 48.08 C 352.83 48.25 350.45 48.65 350.53 45.96 C 348.43 47.58 345.78 49.00 343.05 48.32 C 340.12 47.21 338.43 44.15 338.31 41.12 C 337.99 37.49 338.58 33.09 341.86 30.89 C 344.51 29.24 347.80 30.21 350.21 31.84 C 350.17 28.77 350.17 25.69 350.13 22.62 M 344.45 34.52 C 342.36 36.79 342.43 40.55 343.81 43.18 C 344.70 45.01 347.33 44.92 348.62 43.57 C 351.10 41.90 349.92 38.58 350.18 36.08 C 348.57 34.92 346.45 32.74 344.45 34.52 Z" />
<path fill="#56a895" opacity="1.00" d=" M 359.27 23.46 C 360.63 22.63 362.32 23.26 363.82 23.26 C 363.79 24.70 363.75 26.14 363.68 27.57 C 362.25 27.62 360.83 27.66 359.41 27.68 C 359.15 26.30 358.29 24.76 359.27 23.46 Z" />
<path fill="#56a895" opacity="1.00" d=" M 299.72 29.49 C 302.30 23.74 310.47 22.01 315.44 25.64 C 316.11 26.95 315.66 28.52 315.77 29.93 C 312.98 28.65 309.59 26.68 306.65 28.67 C 302.55 31.86 302.63 38.61 305.47 42.61 C 308.33 45.75 312.83 43.84 316.06 42.43 C 315.63 43.82 316.46 46.07 314.88 46.91 C 311.13 49.14 306.15 48.80 302.46 46.64 C 297.67 42.45 297.27 35.03 299.72 29.49 Z" />
<path fill="#56a895" opacity="1.00" d=" M 324.17 30.30 C 327.60 29.63 331.96 29.88 334.15 33.02 C 336.21 36.35 336.22 40.88 334.45 44.34 C 331.74 49.40 323.86 49.81 320.09 45.79 C 316.57 40.90 317.74 32.11 324.17 30.30 M 324.46 34.50 C 321.73 37.32 322.13 44.70 327.01 44.79 C 331.18 44.79 331.42 39.46 330.69 36.46 C 330.26 33.68 326.38 32.63 324.46 34.50 Z" />
<path fill="#56a895" opacity="1.00" d=" M 359.20 30.26 C 360.68 30.29 362.16 30.31 363.65 30.35 C 363.78 36.24 363.66 42.13 363.73 48.03 C 362.18 48.10 360.63 48.13 359.10 48.12 C 359.07 42.17 358.90 36.21 359.20 30.26 Z" />
<path fill="#56a895" opacity="1.00" d=" M 368.17 30.32 C 369.36 30.29 370.57 30.26 371.78 30.23 C 371.84 30.85 371.96 32.10 372.02 32.72 C 374.85 29.70 380.98 28.60 383.06 33.00 C 384.51 37.86 383.57 43.08 383.82 48.10 C 382.30 48.11 380.79 48.09 379.28 48.05 C 379.20 44.05 379.56 40.03 379.04 36.05 C 378.39 32.50 373.29 34.20 372.79 36.92 C 372.55 40.61 372.76 44.30 372.75 47.98 C 371.20 48.09 369.65 48.14 368.11 48.14 C 368.04 42.21 367.94 36.26 368.17 30.32 Z" />
<path fill="#56a895" opacity="1.00" d=" M 391.37 30.46 C 395.13 29.63 399.02 30.50 402.84 30.35 C 402.85 32.06 403.32 34.33 400.77 33.84 C 400.96 36.06 401.22 38.73 399.25 40.28 C 396.92 42.46 393.54 41.81 390.66 41.71 C 391.36 45.18 395.61 43.57 398.08 44.35 C 401.40 44.36 403.90 48.16 402.18 51.13 C 399.51 55.48 393.35 55.33 389.05 54.02 C 385.69 52.98 385.60 48.47 388.26 46.59 C 386.79 44.47 387.00 41.92 388.48 39.86 C 386.57 36.62 387.45 31.64 391.37 30.46 M 392.53 33.64 C 389.44 35.81 393.29 40.60 396.13 38.17 C 398.82 35.77 395.28 31.71 392.53 33.64 M 392.29 47.29 C 391.18 47.99 389.90 49.77 391.16 50.95 C 393.44 52.14 397.70 52.23 398.30 49.04 C 397.07 46.97 394.33 47.40 392.29 47.29 Z" />
<path fill="#56a895" opacity="1.00" d=" M 331.04 127.13 C 337.69 122.47 344.43 117.94 351.01 113.18 C 354.71 115.12 358.23 117.41 362.12 118.98 C 364.26 120.38 366.40 121.78 368.55 123.17 C 371.81 126.36 375.44 129.11 379.04 131.89 C 419.49 162.84 459.97 193.75 500.49 224.62 C 501.85 225.71 502.75 227.23 503.73 228.66 C 515.27 226.05 526.73 223.10 538.30 220.67 C 537.90 222.15 537.49 223.64 537.06 225.11 C 526.70 227.42 516.42 230.05 506.05 232.30 C 504.00 232.89 501.16 233.06 500.74 235.65 C 482.41 295.27 463.91 354.86 445.51 414.45 C 445.14 416.31 446.71 417.82 447.47 419.38 C 452.57 427.10 456.98 435.27 462.36 442.81 C 462.42 442.96 462.53 443.25 462.59 443.40 C 462.11 444.95 461.11 445.96 459.57 446.43 C 453.68 437.26 448.05 427.92 442.42 418.59 C 441.37 417.04 440.36 414.78 438.10 415.10 C 380.71 414.97 323.31 415.16 265.92 415.03 C 264.38 415.16 262.27 414.84 261.56 416.62 C 254.57 427.95 247.67 439.34 240.51 450.57 C 239.26 452.50 238.49 454.68 237.75 456.85 C 237.47 456.86 236.91 456.87 236.63 456.88 C 235.05 456.88 233.47 456.85 231.89 456.79 L 232.34 456.04 C 240.87 442.69 248.91 429.02 257.48 415.70 C 254.95 409.85 253.39 403.67 251.46 397.62 C 234.53 342.88 217.70 288.11 200.66 233.41 C 195.20 232.02 189.71 230.74 184.15 229.83 L 184.02 229.43 C 185.40 228.32 186.80 227.22 188.21 226.13 L 188.49 226.20 C 191.78 227.01 195.07 227.87 198.39 228.54 C 199.56 227.02 200.72 225.46 202.24 224.26 C 229.05 203.74 255.94 183.32 282.70 162.72 C 286.87 159.01 292.04 156.44 295.55 152.01 C 303.93 146.02 312.30 139.99 320.60 133.87 C 324.38 132.12 327.60 129.42 331.04 127.13 M 239.14 201.18 C 227.30 210.62 214.79 219.26 203.23 229.05 C 206.17 230.97 209.75 231.14 213.05 232.02 C 226.44 235.31 239.88 238.39 253.29 241.58 C 254.90 241.84 256.84 242.56 258.17 241.20 C 288.12 218.48 318.01 195.65 347.99 172.97 C 349.31 172.07 348.78 170.29 348.97 168.96 C 348.80 151.87 349.15 134.77 348.78 117.69 C 312.06 145.26 275.78 173.48 239.14 201.18 M 353.19 117.60 C 352.86 133.05 353.20 148.51 353.04 163.97 C 353.05 166.59 352.90 169.23 353.33 171.83 C 354.21 173.25 355.76 174.05 357.03 175.09 C 385.81 196.94 414.58 218.82 443.33 240.71 C 444.69 241.80 446.35 242.50 448.09 241.81 C 463.73 238.15 479.35 234.37 495.01 230.78 C 496.48 230.48 497.77 229.71 499.07 228.99 C 466.63 203.67 433.70 178.98 401.08 153.89 C 385.02 141.92 369.41 129.35 353.19 117.60 M 296.28 217.35 C 284.98 226.24 273.24 234.58 262.04 243.61 C 290.99 250.46 319.92 257.41 348.92 264.07 C 348.90 235.26 349.06 206.45 348.81 177.65 C 331.12 190.63 313.87 204.22 296.28 217.35 M 353.13 177.58 C 352.97 206.43 353.11 235.28 353.05 264.13 C 382.11 257.52 411.10 250.54 440.10 243.65 C 424.95 231.52 409.23 220.10 393.87 208.22 C 380.20 198.13 367.01 187.38 353.13 177.58 M 205.71 234.78 C 208.75 246.89 212.97 258.67 216.50 270.65 C 226.52 303.18 236.64 335.69 246.64 368.23 C 251.20 382.49 255.23 396.94 260.15 411.08 C 270.26 395.14 279.94 378.93 289.99 362.96 C 290.97 361.69 290.94 360.14 290.38 358.71 C 278.92 321.82 267.48 284.91 256.02 248.02 C 255.62 245.94 253.33 245.84 251.68 245.39 C 236.33 241.98 221.12 237.91 205.71 234.78 M 453.99 244.69 C 451.55 245.27 448.97 245.53 446.75 246.75 C 443.26 256.45 440.59 266.44 437.41 276.25 C 429.63 301.20 421.94 326.18 414.15 351.13 C 413.24 354.28 411.88 357.35 411.47 360.62 C 412.89 363.97 415.19 366.85 417.03 369.97 C 424.24 381.73 431.58 393.42 438.77 405.20 C 439.83 407.01 440.90 408.87 442.52 410.25 C 450.90 383.39 459.08 356.47 467.50 329.62 C 477.06 297.97 487.26 266.49 496.60 234.78 C 482.34 237.83 468.19 241.39 453.99 244.69 M 291.98 350.01 C 292.53 352.10 293.27 354.14 294.29 356.05 C 306.03 336.88 317.88 317.77 329.72 298.66 C 335.78 288.46 342.53 278.64 348.20 268.22 C 318.91 261.38 289.68 254.28 260.36 247.60 C 270.57 281.82 281.54 315.84 291.98 350.01 M 413.99 254.13 C 394.07 258.91 374.09 263.41 354.19 268.28 C 371.69 296.64 389.30 324.93 406.69 353.35 C 406.93 354.22 408.97 356.10 408.97 353.92 C 419.92 318.56 430.99 283.24 441.90 247.87 C 432.45 249.23 423.32 252.18 413.99 254.13 M 351.20 271.75 C 333.35 300.39 315.59 329.09 298.00 357.89 C 333.60 357.90 369.21 358.08 404.80 357.80 C 388.92 332.41 373.27 306.87 357.50 281.42 C 355.42 278.18 353.67 274.72 351.20 271.75 M 295.14 362.13 C 285.39 378.50 275.05 394.52 265.24 410.85 C 322.56 411.00 379.90 411.01 437.23 410.81 C 427.66 394.53 417.52 378.56 407.56 362.52 C 402.49 361.48 397.12 362.30 391.94 362.07 C 359.67 362.10 327.41 361.98 295.14 362.13 Z" />
<path fill="#56a895" opacity="1.00" d=" M 84.40 196.41 C 85.78 196.04 87.50 195.58 88.76 196.46 C 89.52 197.57 89.08 199.04 89.24 200.30 C 87.65 200.53 86.04 200.64 84.44 200.66 C 84.28 199.24 83.85 197.79 84.40 196.41 Z" />
<path fill="#56a895" opacity="1.00" d=" M 27.05 197.37 C 31.05 196.71 35.24 196.93 39.21 197.76 C 49.24 200.47 48.90 217.82 38.97 220.41 C 34.98 221.33 30.85 220.90 26.79 220.86 C 26.24 214.95 26.66 209.00 26.50 203.06 C 26.63 201.18 26.19 199.12 27.05 197.37 M 31.41 200.57 C 31.32 206.19 31.33 211.81 31.40 217.43 C 34.29 217.04 37.94 217.40 39.84 214.73 C 41.92 211.40 42.09 206.66 39.84 203.37 C 37.86 200.71 34.35 200.92 31.41 200.57 Z" />
<path fill="#56a895" opacity="1.00" d=" M 629.95 202.85 C 631.54 202.46 634.24 202.61 633.86 204.97 C 634.47 208.11 630.88 207.44 628.95 207.35 C 629.00 205.86 627.82 203.45 629.95 202.85 Z" />
<path fill="#56a895" opacity="1.00" d=" M 50.14 208.05 C 51.80 202.54 60.05 201.23 63.75 205.35 C 65.56 207.52 65.53 210.50 65.35 213.18 C 61.53 213.26 57.71 213.23 53.89 213.25 C 54.36 214.63 54.30 216.47 55.78 217.25 C 58.65 218.86 61.90 217.26 64.91 217.00 C 65.68 221.14 61.05 221.43 58.10 221.44 C 55.83 221.31 53.40 220.87 51.69 219.25 C 49.07 216.22 48.93 211.70 50.14 208.05 M 54.00 210.31 C 56.46 210.30 58.93 210.30 61.39 210.24 C 60.75 208.60 60.38 206.22 58.13 206.19 C 55.58 205.65 54.20 208.14 54.00 210.31 Z" />
<path fill="#56a895" opacity="1.00" d=" M 68.92 206.07 C 70.70 202.66 75.37 202.24 78.63 203.48 C 80.46 203.84 79.67 206.02 80.05 207.33 C 77.78 206.77 73.71 204.69 72.62 207.87 C 74.29 211.18 80.44 210.47 80.78 214.97 C 81.62 220.66 74.24 222.81 70.01 220.79 C 67.84 220.54 68.37 218.09 68.59 216.58 C 70.92 217.44 74.11 219.27 76.28 217.10 C 77.13 214.45 73.56 214.14 72.00 213.08 C 69.15 212.20 67.59 208.77 68.92 206.07 Z" />
<path fill="#56a895" opacity="1.00" d=" M 84.35 203.33 C 85.82 203.31 87.29 203.31 88.76 203.31 C 88.90 209.24 88.81 215.17 88.82 221.10 C 87.31 221.09 85.79 221.05 84.28 220.98 C 84.32 215.09 84.22 209.21 84.35 203.33 Z" />
<path fill="#56a895" opacity="1.00" d=" M 94.47 204.58 C 98.35 201.71 103.48 203.80 107.91 203.30 C 108.13 204.94 108.43 207.11 106.05 206.95 C 106.17 208.95 106.41 211.26 104.89 212.83 C 102.73 215.43 99.04 214.90 96.08 214.59 C 96.28 215.13 96.67 216.20 96.87 216.73 C 100.10 217.35 103.80 216.55 106.59 218.67 C 108.54 220.58 108.19 224.30 105.94 225.86 C 103.41 227.87 99.95 227.86 96.89 227.59 C 94.73 227.35 91.95 226.53 91.56 224.03 C 90.96 222.17 92.61 220.72 93.46 219.28 C 91.64 217.33 92.60 215.03 93.51 212.94 C 92.60 210.17 91.98 206.77 94.47 204.58 M 97.16 207.18 C 95.30 209.25 98.12 212.75 100.62 211.50 C 102.69 210.70 102.14 208.11 101.40 206.52 C 99.99 206.55 98.09 205.63 97.16 207.18 M 97.26 220.37 C 96.33 221.14 95.31 222.70 96.30 223.84 C 98.47 224.79 101.73 225.23 103.33 223.06 C 103.58 219.77 99.43 220.08 97.26 220.37 Z" />
<path fill="#56a895" opacity="1.00" d=" M 115.43 205.75 C 117.23 204.13 119.41 202.51 122.00 202.99 C 124.58 203.12 126.59 205.40 126.78 207.91 C 127.17 212.29 126.88 216.70 126.92 221.10 C 125.52 220.88 123.48 221.78 122.50 220.50 C 122.14 216.68 122.72 212.83 122.23 209.01 C 121.42 205.41 116.54 207.19 115.91 209.94 C 115.67 213.64 115.91 217.35 115.81 221.06 C 114.33 221.11 112.86 221.13 111.39 221.15 C 111.20 215.19 111.30 209.22 111.32 203.25 C 113.38 203.24 115.95 202.81 115.43 205.75 Z" />
<path fill="#56a895" opacity="1.00" d=" M 561.32 204.33 C 565.22 203.38 569.41 203.59 573.25 204.67 C 578.57 206.52 578.84 214.51 574.59 217.62 C 572.19 219.48 569.00 219.42 566.12 219.45 C 565.96 222.28 565.92 225.11 565.84 227.95 C 564.29 227.91 562.75 227.86 561.22 227.79 C 561.18 219.97 561.02 212.14 561.32 204.33 M 565.94 207.37 C 565.93 210.22 565.94 213.08 566.06 215.93 C 567.68 215.69 569.47 215.86 570.96 215.04 C 572.69 213.70 572.88 211.08 571.95 209.22 C 570.61 207.27 567.95 207.73 565.94 207.37 Z" />
<path fill="#56a895" opacity="1.00" d=" M 581.88 210.58 C 585.63 209.26 591.85 208.81 593.54 213.35 C 594.35 218.16 593.84 223.09 593.88 227.96 C 592.31 227.87 590.29 228.50 589.78 226.40 C 586.35 229.52 578.83 228.60 579.01 223.03 C 578.84 217.57 585.49 217.24 589.46 217.24 C 589.38 216.37 589.21 214.63 589.13 213.76 C 586.04 212.60 582.90 213.72 580.05 214.96 C 579.85 213.28 579.61 210.85 581.88 210.58 M 583.56 223.10 C 584.19 226.13 587.80 224.69 589.43 223.38 C 589.43 222.33 589.44 221.29 589.47 220.25 C 587.34 220.18 582.99 219.83 583.56 223.10 Z" />
<path fill="#56a895" opacity="1.00" d=" M 600.61 210.68 C 603.29 209.37 606.64 209.36 609.28 210.79 C 609.51 211.83 609.70 212.88 609.84 213.94 C 607.46 213.74 604.21 211.77 602.39 214.07 C 602.36 216.96 605.94 216.88 607.78 218.24 C 611.59 219.81 611.14 225.97 607.45 227.41 C 604.54 228.58 600.91 228.71 598.27 226.85 C 598.14 225.99 597.89 224.28 597.76 223.42 C 600.48 224.35 603.49 225.65 606.25 224.07 C 606.07 220.95 602.67 220.70 600.56 219.35 C 597.23 217.75 597.36 212.29 600.61 210.68 Z" />
<path fill="#56a895" opacity="1.00" d=" M 614.98 211.08 C 617.66 209.33 621.36 209.28 624.18 210.74 C 624.53 211.78 624.74 212.86 624.79 213.98 C 622.48 213.74 619.22 211.77 617.48 214.02 C 617.15 216.90 620.97 216.88 622.72 218.21 C 626.37 219.66 626.24 225.37 622.96 227.15 C 619.90 228.81 616.23 228.41 613.16 227.03 C 613.08 226.13 612.94 224.34 612.87 223.44 C 615.33 224.00 618.77 226.28 620.82 223.79 C 621.68 221.13 617.85 220.83 616.27 219.72 C 612.67 218.58 612.04 213.25 614.98 211.08 Z" />
<path fill="#56a895" opacity="1.00" d=" M 628.96 210.17 C 630.43 210.11 631.89 210.06 633.37 210.03 C 633.55 215.99 633.52 221.97 633.39 227.93 C 631.93 227.91 630.48 227.89 629.03 227.85 C 628.75 221.96 628.86 216.06 628.96 210.17 Z" />
<path fill="#56a895" opacity="1.00" d=" M 642.21 210.38 C 646.25 208.97 652.08 209.77 653.78 214.27 C 655.33 218.64 654.70 224.88 650.14 227.20 C 646.10 229.08 639.97 228.51 637.93 224.02 C 635.99 219.32 636.86 212.38 642.21 210.38 M 643.24 214.25 C 640.56 217.12 640.93 224.79 646.02 224.53 C 650.05 224.41 650.13 219.33 649.55 216.42 C 649.20 213.55 645.26 212.29 643.24 214.25 Z" />
<path fill="#56a895" opacity="1.00" d=" M 657.95 210.01 C 659.89 210.04 662.52 209.47 662.04 212.41 C 663.94 210.74 666.39 209.25 669.03 209.88 C 671.56 210.18 673.33 212.57 673.47 215.01 C 673.76 219.27 673.53 223.55 673.58 227.83 C 672.09 227.86 670.62 227.88 669.16 227.89 C 668.66 223.52 669.78 218.91 668.38 214.69 C 666.42 212.33 663.95 214.80 662.43 216.29 C 662.50 220.16 662.51 224.04 662.39 227.92 C 660.95 227.92 659.52 227.90 658.10 227.88 C 657.69 221.94 657.90 215.97 657.95 210.01 Z" />
<path fill="#56a895" opacity="1.00" d=" M 235.29 492.54 C 237.07 491.33 240.97 490.82 240.72 494.02 C 241.22 496.57 237.65 497.00 236.11 495.89 C 235.64 494.82 235.51 493.66 235.29 492.54 Z" />
<path fill="#56a895" opacity="1.00" d=" M 244.84 491.10 C 246.33 491.07 247.81 491.05 249.30 491.03 C 249.38 494.27 249.39 497.52 249.29 500.77 C 251.27 499.60 253.43 497.82 255.88 498.75 C 259.72 499.27 261.32 503.58 261.35 506.99 C 261.61 510.88 260.18 515.94 255.83 516.87 C 253.34 517.75 250.98 516.27 249.00 514.96 C 248.95 517.35 246.51 516.60 244.91 516.82 C 244.62 508.25 244.75 499.67 244.84 491.10 M 249.28 505.15 C 249.33 507.01 249.35 508.88 249.33 510.75 C 250.66 511.92 252.04 513.40 254.01 513.22 C 257.46 511.24 257.47 505.54 254.80 502.94 C 252.59 501.43 250.68 503.66 249.28 505.15 Z" />
<path fill="#56a895" opacity="1.00" d=" M 266.52 491.61 C 270.26 490.18 271.05 497.15 267.12 496.42 C 264.10 497.10 263.36 491.59 266.52 491.61 Z" />
<path fill="#56a895" opacity="1.00" d=" M 273.83 491.11 C 275.32 491.07 276.81 491.05 278.30 491.03 C 278.33 499.61 278.51 508.20 278.21 516.77 C 276.78 516.74 275.36 516.72 273.95 516.71 C 273.57 508.18 273.79 499.64 273.83 491.11 Z" />
<path fill="#56a895" opacity="1.00" d=" M 284.53 491.61 C 288.17 490.21 289.08 496.94 285.25 496.43 C 282.16 497.24 281.28 491.58 284.53 491.61 Z" />
<path fill="#56a895" opacity="1.00" d=" M 536.43 491.60 C 537.93 491.24 539.89 492.09 539.66 493.90 C 540.25 495.88 538.13 496.64 536.57 496.42 C 533.88 496.51 533.49 491.52 536.43 491.60 Z" />
<path fill="#56a895" opacity="1.00" d=" M 447.18 493.00 C 448.64 492.58 450.20 492.78 451.71 492.70 C 451.99 499.39 451.71 506.09 451.88 512.78 C 454.62 512.75 457.37 512.76 460.12 512.81 C 460.05 514.10 459.99 515.40 459.92 516.71 C 455.72 516.70 451.53 516.76 447.35 516.61 C 446.79 508.76 447.02 500.86 447.18 493.00 Z" />
<path fill="#56a895" opacity="1.00" d=" M 107.31 493.29 C 111.43 492.33 116.18 492.33 120.23 493.76 C 125.20 496.04 124.27 503.88 119.26 505.61 C 122.43 508.48 123.66 512.73 125.00 516.64 C 123.34 516.69 121.69 516.72 120.04 516.76 C 117.97 513.01 117.57 506.26 111.83 506.76 C 111.83 510.07 111.84 513.39 111.78 516.71 C 110.24 516.70 108.69 516.69 107.15 516.68 C 107.11 508.89 106.75 501.06 107.31 493.29 M 111.82 496.41 C 111.83 498.73 111.83 501.07 111.83 503.40 C 114.31 503.24 118.66 503.57 118.55 499.96 C 118.80 496.30 114.40 496.29 111.82 496.41 Z" />
<path fill="#56a895" opacity="1.00" d=" M 292.60 494.57 C 294.14 494.58 295.68 494.60 297.23 494.64 C 297.22 496.08 297.22 497.53 297.22 498.98 C 298.62 499.00 300.02 499.03 301.43 499.07 C 301.42 499.97 301.38 501.77 301.36 502.67 C 300.00 502.67 298.65 502.67 297.30 502.67 C 297.44 506.06 296.56 509.78 297.99 512.97 C 298.88 513.00 300.67 513.06 301.57 513.09 C 302.97 518.58 294.07 518.09 293.00 513.95 C 292.11 510.30 292.84 506.53 292.36 502.85 C 291.81 502.76 290.69 502.60 290.13 502.52 C 290.05 501.41 289.98 500.30 289.92 499.20 C 290.58 499.10 291.91 498.92 292.57 498.82 C 292.57 497.40 292.58 495.98 292.60 494.57 Z" />
<path fill="#56a895" opacity="1.00" d=" M 128.71 515.32 C 123.32 510.41 125.71 498.35 134.04 498.59 C 139.49 497.92 143.40 503.81 141.60 508.72 C 137.88 509.24 134.11 508.84 130.37 508.94 C 130.85 510.59 131.06 512.79 133.05 513.32 C 135.75 514.00 138.47 513.23 141.05 512.44 C 141.10 513.61 141.14 514.79 141.19 515.98 C 137.17 517.09 132.28 518.08 128.71 515.32 M 130.38 506.04 C 132.82 506.05 135.26 506.05 137.71 506.06 C 137.54 504.03 136.50 501.44 133.99 501.82 C 131.57 501.71 130.97 504.23 130.38 506.04 Z" />
<path fill="#56a895" opacity="1.00" d=" M 145.01 504.00 C 145.00 498.29 152.62 497.36 156.55 499.79 C 156.49 500.60 156.38 502.22 156.32 503.03 C 154.10 502.47 150.92 500.47 149.24 503.03 C 149.30 505.68 152.48 505.71 154.23 506.85 C 158.09 508.08 158.38 514.06 154.94 515.95 C 151.93 517.73 148.31 517.20 145.19 516.06 C 145.06 515.12 144.82 513.24 144.69 512.30 C 147.06 513.09 152.89 515.62 152.78 511.27 C 150.41 508.69 144.72 508.65 145.01 504.00 Z" />
<path fill="#56a895" opacity="1.00" d=" M 160.83 498.83 C 162.65 498.81 165.32 498.46 164.92 501.16 C 166.92 499.65 169.34 497.87 172.00 498.77 C 175.81 499.37 177.37 503.66 177.35 507.07 C 177.54 510.91 176.29 515.97 171.90 516.84 C 169.47 517.80 167.22 516.31 165.29 515.00 C 165.38 517.79 165.37 520.60 165.31 523.40 C 163.81 523.38 162.31 523.36 160.82 523.32 C 160.74 515.15 160.71 506.99 160.83 498.83 M 166.68 503.70 C 164.47 505.35 165.61 508.40 165.30 510.73 C 166.47 511.65 167.48 512.94 169.01 513.28 C 172.85 512.86 172.96 507.94 172.23 505.06 C 171.78 502.48 168.23 501.52 166.68 503.70 Z" />
<path fill="#56a895" opacity="1.00" d=" M 184.41 499.55 C 188.20 497.90 193.66 498.19 196.07 501.98 C 198.43 506.52 197.97 513.47 193.01 516.10 C 188.87 518.01 182.52 517.29 180.65 512.56 C 179.13 508.11 179.71 501.84 184.41 499.55 M 187.31 502.41 C 184.18 503.78 184.20 508.18 185.04 511.00 C 186.06 514.48 191.81 514.06 192.40 510.49 C 193.65 507.04 192.11 500.84 187.31 502.41 Z" />
<path fill="#56a895" opacity="1.00" d=" M 200.82 498.85 C 202.74 498.77 205.42 498.44 204.90 501.27 C 207.84 498.10 214.13 497.30 215.95 502.02 C 217.21 506.76 216.36 511.79 216.56 516.65 C 215.06 516.67 213.56 516.70 212.06 516.73 C 211.62 512.61 212.24 508.43 211.60 504.33 C 210.68 501.07 206.30 503.04 205.44 505.33 C 205.18 509.11 205.44 512.92 205.35 516.72 C 203.82 516.68 202.29 516.64 200.77 516.60 C 200.78 510.68 200.70 504.76 200.82 498.85 Z" />
<path fill="#56a895" opacity="1.00" d=" M 221.96 499.92 C 224.78 497.86 228.53 498.36 231.52 499.74 C 231.48 500.57 231.39 502.21 231.35 503.04 C 229.16 502.36 224.45 500.12 224.30 503.98 C 225.56 505.82 228.09 506.03 229.89 507.20 C 233.51 508.93 232.97 515.00 229.25 516.30 C 226.34 517.70 223.07 517.09 220.17 516.03 C 220.05 515.10 219.81 513.24 219.69 512.30 C 222.18 512.89 225.49 515.01 227.73 512.75 C 228.54 510.04 224.93 509.76 223.34 508.66 C 219.59 507.63 218.81 502.05 221.96 499.92 Z" />
<path fill="#56a895" opacity="1.00" d=" M 235.82 498.97 C 237.31 498.91 238.81 498.87 240.31 498.86 C 240.39 504.81 240.35 510.76 240.34 516.71 C 238.82 516.69 237.30 516.66 235.79 516.64 C 235.76 510.75 235.72 504.86 235.82 498.97 Z" />
<path fill="#56a895" opacity="1.00" d=" M 264.81 498.98 C 266.31 498.91 267.81 498.87 269.31 498.86 C 269.39 504.81 269.35 510.76 269.34 516.71 C 267.82 516.69 266.30 516.66 264.79 516.64 C 264.75 510.75 264.72 504.86 264.81 498.98 Z" />
<path fill="#56a895" opacity="1.00" d=" M 282.82 498.97 C 284.31 498.90 285.80 498.86 287.29 498.85 C 287.42 504.80 287.34 510.76 287.34 516.71 C 285.82 516.69 284.30 516.66 282.78 516.63 C 282.77 510.74 282.71 504.85 282.82 498.97 Z" />
<path fill="#56a895" opacity="1.00" d=" M 302.80 498.90 C 304.38 498.85 305.98 498.89 307.56 499.03 C 308.98 502.85 309.82 506.93 311.92 510.46 C 313.37 506.60 314.41 502.60 315.79 498.72 C 317.22 498.79 318.65 498.89 320.08 499.00 C 318.07 506.72 315.13 514.17 312.60 521.74 C 312.05 524.22 308.87 523.30 307.04 523.16 C 307.82 521.10 308.63 519.04 309.40 516.98 C 306.97 511.05 304.53 505.08 302.80 498.90 Z" />
<path fill="#56a895" opacity="1.00" d=" M 465.16 500.08 C 468.41 498.02 473.34 497.93 476.08 500.91 C 478.00 503.05 477.89 506.08 477.82 508.77 C 474.00 509.05 470.16 508.95 466.33 508.94 C 466.81 510.60 466.99 512.87 469.04 513.36 C 471.75 513.96 474.47 513.23 477.05 512.42 C 477.07 513.60 477.09 514.78 477.13 515.98 C 472.74 517.24 466.94 518.20 463.60 514.31 C 460.84 510.05 461.18 503.48 465.16 500.08 M 466.30 506.04 C 468.76 506.05 471.23 506.05 473.70 506.04 C 473.35 504.11 472.49 501.37 469.96 501.83 C 467.55 501.62 466.78 504.21 466.30 506.04 Z" />
<path fill="#56a895" opacity="1.00" d=" M 483.54 499.51 C 487.37 498.01 493.82 497.70 495.44 502.42 C 496.03 507.18 495.59 512.01 495.68 516.80 C 494.12 516.74 492.43 516.85 491.39 515.47 C 487.85 518.20 480.85 517.47 480.75 512.03 C 480.60 506.40 487.40 506.20 491.45 505.99 C 490.96 504.79 491.34 502.74 489.78 502.33 C 486.99 501.27 484.41 503.48 481.71 503.44 C 481.27 501.77 481.69 499.96 483.54 499.51 M 485.88 509.90 C 485.06 510.91 485.55 512.24 485.58 513.41 C 487.61 513.96 489.65 513.63 491.25 512.20 C 491.31 511.17 491.38 510.15 491.46 509.14 C 489.58 509.04 487.57 508.92 485.88 509.90 Z" />
<path fill="#56a895" opacity="1.00" d=" M 500.72 498.87 C 502.53 498.94 505.23 498.20 504.73 501.03 C 506.56 499.40 508.66 497.98 511.25 498.67 C 511.26 500.14 511.28 501.62 511.28 503.11 C 509.04 502.67 506.58 503.13 505.60 505.44 C 505.03 509.14 505.50 512.93 505.35 516.67 C 503.79 516.67 502.23 516.67 500.68 516.66 C 500.63 510.73 500.58 504.80 500.72 498.87 Z" />
<path fill="#56a895" opacity="1.00" d=" M 514.74 498.83 C 516.66 498.75 519.43 498.51 518.75 501.35 C 520.78 499.79 523.27 497.96 525.99 498.78 C 528.63 499.08 530.13 501.72 530.33 504.16 C 530.65 508.31 530.41 512.48 530.46 516.64 C 528.98 516.67 527.52 516.71 526.06 516.75 C 525.17 511.98 527.39 506.38 524.17 502.26 C 522.42 502.86 520.08 503.30 519.44 505.33 C 519.18 509.11 519.45 512.90 519.33 516.69 C 517.78 516.68 516.23 516.67 514.69 516.67 C 514.63 510.72 514.56 504.77 514.74 498.83 Z" />
<path fill="#56a895" opacity="1.00" d=" M 534.74 498.91 C 536.25 498.88 537.76 498.88 539.28 498.90 C 539.42 504.83 539.35 510.77 539.33 516.70 C 537.77 516.68 536.21 516.66 534.67 516.63 C 534.66 510.72 534.55 504.81 534.74 498.91 Z" />
<path fill="#56a895" opacity="1.00" d=" M 543.76 498.81 C 545.65 498.76 548.42 498.52 547.76 501.33 C 550.48 498.66 555.65 497.16 558.21 500.82 C 560.58 505.70 559.04 511.40 559.47 516.63 C 557.99 516.67 556.51 516.71 555.05 516.75 C 554.18 511.98 556.37 506.40 553.19 502.27 C 551.44 502.85 549.17 503.29 548.44 505.26 C 548.18 509.06 548.45 512.88 548.32 516.70 C 546.77 516.69 545.23 516.67 543.69 516.66 C 543.64 510.71 543.54 504.75 543.76 498.81 Z" />
<path fill="#56a895" opacity="1.00" d=" M 565.18 500.10 C 569.12 497.36 574.09 499.50 578.49 499.10 C 578.52 500.79 578.82 502.81 576.45 502.66 C 576.58 504.59 576.85 506.83 575.39 508.39 C 573.33 511.06 569.60 510.71 566.66 510.20 C 566.57 511.55 567.29 513.02 568.87 512.65 C 571.88 512.98 575.95 512.31 577.76 515.39 C 579.55 518.40 577.07 522.13 573.93 522.82 C 570.16 523.80 565.03 524.18 562.37 520.75 C 561.30 518.66 562.62 516.65 563.84 515.02 C 562.37 512.99 562.67 510.69 564.05 508.71 C 562.94 505.91 562.44 502.15 565.18 500.10 M 568.14 502.30 C 565.66 504.18 567.99 508.52 571.02 507.27 C 574.62 505.80 571.43 499.69 568.14 502.30 M 566.32 517.93 C 566.50 521.93 575.10 521.03 573.61 516.56 C 571.19 516.23 567.40 514.71 566.32 517.93 Z" />
</g>
<g id="#edededc1">
<path fill="#ededed" opacity="0.76" d=" M 344.49 62.62 C 346.62 61.06 348.57 59.16 351.00 58.07 C 353.12 58.73 354.71 60.41 356.48 61.68 C 423.47 113.00 490.50 164.29 557.48 215.62 C 559.21 216.48 559.33 218.32 558.62 219.96 C 533.33 301.92 508.08 383.90 482.80 465.86 C 481.87 468.89 481.00 471.93 479.90 474.91 C 394.58 475.13 309.25 474.92 223.93 475.01 C 222.15 475.43 221.78 473.30 221.31 472.13 C 203.02 412.75 184.70 353.37 166.40 293.99 C 158.49 268.61 150.90 243.12 142.78 217.80 C 143.48 216.89 144.20 215.98 145.12 215.28 C 211.58 164.40 278.03 113.50 344.49 62.62 M 149.74 217.06 C 162.54 220.16 175.36 223.23 188.21 226.13 C 186.80 227.22 185.40 228.32 184.02 229.43 C 172.02 226.71 160.07 223.81 148.10 220.99 C 153.96 239.31 159.46 257.75 165.19 276.12 C 184.92 340.40 204.95 404.58 224.50 468.91 C 226.89 464.82 229.50 460.87 231.89 456.79 C 233.47 456.85 235.05 456.88 236.63 456.88 C 233.87 461.66 230.88 466.30 227.99 471.00 C 310.22 471.00 392.45 471.00 474.68 471.00 C 469.69 462.87 464.60 454.80 459.69 446.62 L 459.57 446.43 C 461.11 445.96 462.11 444.95 462.59 443.40 C 467.26 451.84 472.86 459.75 477.57 468.19 C 479.07 464.63 480.00 460.87 481.18 457.19 C 505.46 378.48 529.69 299.75 554.00 221.04 C 548.37 222.46 542.69 223.70 537.06 225.11 C 537.49 223.64 537.90 222.15 538.30 220.67 C 538.70 220.55 539.48 220.32 539.87 220.21 C 544.10 219.07 548.39 218.14 552.66 217.16 C 486.16 166.11 419.55 115.21 353.00 64.22 C 353.00 80.16 352.99 96.10 353.01 112.05 C 356.07 114.32 359.06 116.70 362.12 118.98 C 358.23 117.41 354.71 115.12 351.01 113.18 C 344.43 117.94 337.69 122.47 331.04 127.13 C 327.60 129.42 324.38 132.12 320.60 133.87 C 330.05 126.61 339.54 119.41 349.00 112.16 C 349.00 96.22 349.00 80.29 349.00 64.35 C 282.60 115.29 216.04 166.01 149.74 217.06 Z" />
</g>
<g id="#348472d9">
<path fill="#348472" opacity="0.85" d=" M 239.14 201.18 C 275.78 173.48 312.06 145.26 348.78 117.69 C 349.15 134.77 348.80 151.87 348.97 168.96 C 348.78 170.29 349.31 172.07 347.99 172.97 C 318.01 195.65 288.12 218.48 258.17 241.20 C 256.84 242.56 254.90 241.84 253.29 241.58 C 239.88 238.39 226.44 235.31 213.05 232.02 C 209.75 231.14 206.17 230.97 203.23 229.05 C 214.79 219.26 227.30 210.62 239.14 201.18 Z" />
<path fill="#348472" opacity="0.85" d=" M 353.19 117.60 C 369.41 129.35 385.02 141.92 401.08 153.89 C 433.70 178.98 466.63 203.67 499.07 228.99 C 497.77 229.71 496.48 230.48 495.01 230.78 C 479.35 234.37 463.73 238.15 448.09 241.81 C 446.35 242.50 444.69 241.80 443.33 240.71 C 414.58 218.82 385.81 196.94 357.03 175.09 C 355.76 174.05 354.21 173.25 353.33 171.83 C 352.90 169.23 353.05 166.59 353.04 163.97 C 353.20 148.51 352.86 133.05 353.19 117.60 Z" />
<path fill="#348472" opacity="0.85" d=" M 368.55 123.17 C 384.62 131.75 400.32 141.02 416.24 149.87 C 453.94 171.15 491.64 192.42 529.34 213.70 C 532.93 215.73 536.67 217.56 539.87 220.21 C 539.48 220.32 538.70 220.55 538.30 220.67 C 526.73 223.10 515.27 226.05 503.73 228.66 C 502.75 227.23 501.85 225.71 500.49 224.62 C 459.97 193.75 419.49 162.84 379.04 131.89 C 375.44 129.11 371.81 126.36 368.55 123.17 Z" />
<path fill="#348472" opacity="0.85" d=" M 246.06 186.12 C 262.59 174.81 278.80 163.01 295.55 152.01 C 292.04 156.44 286.87 159.01 282.70 162.72 C 255.94 183.32 229.05 203.74 202.24 224.26 C 200.72 225.46 199.56 227.02 198.39 228.54 C 195.07 227.87 191.78 227.01 188.49 226.20 C 207.60 212.73 226.88 199.49 246.06 186.12 Z" />
<path fill="#348472" opacity="0.85" d=" M 296.28 217.35 C 313.87 204.22 331.12 190.63 348.81 177.65 C 349.06 206.45 348.90 235.26 348.92 264.07 C 319.92 257.41 290.99 250.46 262.04 243.61 C 273.24 234.58 284.98 226.24 296.28 217.35 Z" />
<path fill="#348472" opacity="0.85" d=" M 353.13 177.58 C 367.01 187.38 380.20 198.13 393.87 208.22 C 409.23 220.10 424.95 231.52 440.10 243.65 C 411.10 250.54 382.11 257.52 353.05 264.13 C 353.11 235.28 352.97 206.43 353.13 177.58 Z" />
<path fill="#348472" opacity="0.85" d=" M 506.05 232.30 C 516.42 230.05 526.70 227.42 537.06 225.11 C 512.09 297.65 487.36 370.28 462.36 442.81 C 456.98 435.27 452.57 427.10 447.47 419.38 C 446.71 417.82 445.14 416.31 445.51 414.45 C 463.91 354.86 482.41 295.27 500.74 235.65 C 501.16 233.06 504.00 232.89 506.05 232.30 Z" />
<path fill="#348472" opacity="0.85" d=" M 184.15 229.83 C 189.71 230.74 195.20 232.02 200.66 233.41 C 217.70 288.11 234.53 342.88 251.46 397.62 C 253.39 403.67 254.95 409.85 257.48 415.70 C 248.91 429.02 240.87 442.69 232.34 456.04 C 216.24 380.65 200.31 305.21 184.15 229.83 Z" />
<path fill="#348472" opacity="0.85" d=" M 205.71 234.78 C 221.12 237.91 236.33 241.98 251.68 245.39 C 253.33 245.84 255.62 245.94 256.02 248.02 C 267.48 284.91 278.92 321.82 290.38 358.71 C 290.94 360.14 290.97 361.69 289.99 362.96 C 279.94 378.93 270.26 395.14 260.15 411.08 C 255.23 396.94 251.20 382.49 246.64 368.23 C 236.64 335.69 226.52 303.18 216.50 270.65 C 212.97 258.67 208.75 246.89 205.71 234.78 Z" />
<path fill="#348472" opacity="0.85" d=" M 453.99 244.69 C 468.19 241.39 482.34 237.83 496.60 234.78 C 487.26 266.49 477.06 297.97 467.50 329.62 C 459.08 356.47 450.90 383.39 442.52 410.25 C 440.90 408.87 439.83 407.01 438.77 405.20 C 431.58 393.42 424.24 381.73 417.03 369.97 C 415.19 366.85 412.89 363.97 411.47 360.62 C 411.88 357.35 413.24 354.28 414.15 351.13 C 421.94 326.18 429.63 301.20 437.41 276.25 C 440.59 266.44 443.26 256.45 446.75 246.75 C 448.97 245.53 451.55 245.27 453.99 244.69 Z" />
<path fill="#348472" opacity="0.85" d=" M 291.98 350.01 C 281.54 315.84 270.57 281.82 260.36 247.60 C 289.68 254.28 318.91 261.38 348.20 268.22 C 342.53 278.64 335.78 288.46 329.72 298.66 C 317.88 317.77 306.03 336.88 294.29 356.05 C 293.27 354.14 292.53 352.10 291.98 350.01 Z" />
<path fill="#348472" opacity="0.85" d=" M 413.99 254.13 C 423.32 252.18 432.45 249.23 441.90 247.87 C 430.99 283.24 419.92 318.56 408.97 353.92 C 408.97 356.10 406.93 354.22 406.69 353.35 C 389.30 324.93 371.69 296.64 354.19 268.28 C 374.09 263.41 394.07 258.91 413.99 254.13 Z" />
<path fill="#348472" opacity="0.85" d=" M 351.20 271.75 C 353.67 274.72 355.42 278.18 357.50 281.42 C 373.27 306.87 388.92 332.41 404.80 357.80 C 369.21 358.08 333.60 357.90 298.00 357.89 C 315.59 329.09 333.35 300.39 351.20 271.75 Z" />
<path fill="#348472" opacity="0.85" d=" M 295.14 362.13 C 327.41 361.98 359.67 362.10 391.94 362.07 C 397.12 362.30 402.49 361.48 407.56 362.52 C 417.52 378.56 427.66 394.53 437.23 410.81 C 379.90 411.01 322.56 411.00 265.24 410.85 C 275.05 394.52 285.39 378.50 295.14 362.13 Z" />
<path fill="#348472" opacity="0.85" d=" M 261.56 416.62 C 262.27 414.84 264.38 415.16 265.92 415.03 C 323.31 415.16 380.71 414.97 438.10 415.10 C 440.36 414.78 441.37 417.04 442.42 418.59 C 448.05 427.92 453.68 437.26 459.57 446.43 L 459.69 446.62 C 455.49 446.18 451.28 446.71 447.09 446.87 C 377.31 450.18 307.53 453.58 237.75 456.85 C 238.49 454.68 239.26 452.50 240.51 450.57 C 247.67 439.34 254.57 427.95 261.56 416.62 Z" />
</g>
</svg>
